<svg width="691" height="251" viewBox="0 0 691 251" fill="none" xmlns="http://www.w3.org/2000/svg">
<path d="M-7.21464 62.8412C-16.315 34.1594 -17.8298 10.0024 -12 1L-7.21464 62.8412C11.4823 121.769 62.1982 199.796 147.023 204.739C304.661 213.924 353.704 192.261 490.324 211.845C599.621 227.512 668.982 267.476 690 285.5L-163 285.5L-163 111.5L-5.49998 85L-7.21464 62.8412Z" fill="url(#paint0_linear_39_9526)"/>
<path d="M-12 1C-29.8073 28.498 20.9117 197.391 147.023 204.739C304.661 213.924 353.704 192.261 490.324 211.845C599.621 227.512 668.982 267.476 690 285.5L-163 285.5L-163 111.5L-5.49998 85L-12 1Z" stroke="#79BEF5" stroke-width="0.365255"/>
<defs>
<linearGradient id="paint0_linear_39_9526" x1="-141.106" y1="193.647" x2="432.086" y2="193.647" gradientUnits="userSpaceOnUse">
<stop stop-color="#1B44DD"/>
<stop offset="1" stop-color="#4C62B0"/>
</linearGradient>
</defs>
</svg>
