<svg viewBox="0 0 800 800" fill="none" xmlns="http://www.w3.org/2000/svg">
<path d="M800 611.84H0V612.24H800V611.84Z" fill="#EBEBEB"/>
<path d="M136.928 627.072H83.936V627.472H136.928V627.072Z" fill="#EBEBEB"/>
<path d="M287.728 622.736H232.528V623.136H287.728V622.736Z" fill="#EBEBEB"/>
<path d="M210.4 634.8H121.728V635.2H210.4V634.8Z" fill="#EBEBEB"/>
<path d="M718.128 636.272H649.024V636.672H718.128V636.272Z" fill="#EBEBEB"/>
<path d="M629.328 626.272H592.688V626.672H629.328V626.272Z" fill="#EBEBEB"/>
<path d="M462.896 632.688H313.008V633.088H462.896V632.688Z" fill="#EBEBEB"/>
<path d="M379.2 540.48H70.2562C67.836 540.476 65.5163 539.511 63.8064 537.798C62.0966 536.086 61.1362 533.764 61.1362 531.344V97.056C61.1573 94.6496 62.1269 92.3488 63.8345 90.6531C65.5421 88.9575 67.8498 88.0041 70.2562 88H379.2C381.623 88 383.947 88.9625 385.66 90.6759C387.374 92.3892 388.336 94.713 388.336 97.136V531.344C388.336 533.767 387.374 536.091 385.66 537.804C383.947 539.517 381.623 540.48 379.2 540.48ZM70.2562 88.32C67.9421 88.3242 65.7241 89.2465 64.0893 90.8844C62.4544 92.5222 61.5362 94.7418 61.5362 97.056V531.344C61.5362 533.658 62.4544 535.878 64.0893 537.516C65.7241 539.154 67.9421 540.076 70.2562 540.08H379.2C381.516 540.076 383.735 539.154 385.373 537.517C387.01 535.879 387.932 533.66 387.936 531.344V97.056C387.932 94.7404 387.01 92.5208 385.373 90.8834C383.735 89.246 381.516 88.3242 379.2 88.32H70.2562Z" fill="#EBEBEB"/>
<path d="M725.296 540.48H416.336C413.914 540.476 411.593 539.512 409.881 537.799C408.168 536.087 407.204 533.766 407.2 531.344V97.056C407.225 94.6482 408.199 92.3473 409.909 90.6521C411.619 88.957 413.928 88.0041 416.336 88H725.296C727.7 88.0083 730.003 88.9636 731.708 90.6588C733.412 92.3539 734.379 94.6524 734.4 97.056V531.344C734.4 533.761 733.442 536.08 731.736 537.793C730.029 539.505 727.714 540.472 725.296 540.48ZM416.336 88.32C414.021 88.3242 411.801 89.246 410.164 90.8834C408.526 92.5208 407.604 94.7404 407.6 97.056V531.344C407.604 533.66 408.526 535.879 410.164 537.517C411.801 539.154 414.021 540.076 416.336 540.08H725.296C727.612 540.076 729.831 539.154 731.469 537.517C733.106 535.879 734.028 533.66 734.032 531.344V97.056C734.028 94.7404 733.106 92.5208 731.469 90.8834C729.831 89.246 727.612 88.3242 725.296 88.32H416.336Z" fill="#EBEBEB"/>
<path d="M498.816 402.544H453.472V599.184H498.816V402.544Z" fill="#F0F0F0"/>
<path d="M685.776 599.184H462.176V611.648H685.776V599.184Z" fill="#F0F0F0"/>
<path d="M498.816 599.184H694.48V402.544H498.816V599.184Z" fill="#F5F5F5"/>
<path d="M516.64 491.232H676.656V426.736H516.64V491.232Z" fill="#F0F0F0"/>
<path d="M516.64 574.992H676.656V510.496H516.64V574.992Z" fill="#F0F0F0"/>
<path d="M614.608 432.192H578.688C577.514 432.188 576.389 431.72 575.559 430.889C574.728 430.059 574.26 428.934 574.256 427.76C574.26 426.587 574.729 425.464 575.56 424.636C576.39 423.809 577.515 423.344 578.688 423.344H614.608C615.781 423.344 616.905 423.809 617.736 424.636C618.567 425.464 619.036 426.587 619.04 427.76C619.036 428.934 618.567 430.059 617.737 430.889C616.907 431.72 615.782 432.188 614.608 432.192Z" fill="#F5F5F5"/>
<path d="M614.608 515.92H578.688C577.515 515.92 576.39 515.455 575.56 514.628C574.729 513.8 574.26 512.677 574.256 511.504C574.26 510.331 574.729 509.208 575.56 508.38C576.39 507.553 577.515 507.088 578.688 507.088H614.608C615.781 507.088 616.905 507.553 617.736 508.38C618.567 509.208 619.036 510.331 619.04 511.504C619.036 512.677 618.567 513.8 617.736 514.628C616.905 515.455 615.781 515.92 614.608 515.92Z" fill="#F5F5F5"/>
<path d="M595.68 131.328H514.144V220.256H595.68V131.328Z" fill="#E0E0E0"/>
<path d="M600.56 131.328H516.896V220.256H600.56V131.328Z" fill="#F5F5F5"/>
<path d="M593.536 213.248V138.336H523.904V213.248H593.536Z" fill="white"/>
<path d="M567.248 189.152L575.504 174.848C576.369 173.353 576.825 171.656 576.827 169.928C576.828 168.201 576.375 166.503 575.512 165.006C574.649 163.509 573.408 162.266 571.912 161.401C570.416 160.537 568.719 160.081 566.992 160.08H550.4C548.673 160.083 546.977 160.54 545.482 161.404C543.987 162.269 542.745 163.512 541.881 165.007C541.018 166.503 540.562 168.199 540.561 169.926C540.559 171.653 541.011 173.351 541.872 174.848L550.144 189.152C551.003 190.662 552.247 191.918 553.749 192.791C555.252 193.665 556.958 194.125 558.696 194.125C560.433 194.125 562.14 193.665 563.642 192.791C565.144 191.918 566.388 190.662 567.248 189.152Z" fill="#F5F5F5"/>
<path d="M202.048 286.192H151.696V611.84H202.048V286.192Z" fill="#E0E0E0"/>
<path d="M330.368 611.84H161.776L144.064 211.024H312.656L330.368 611.84Z" fill="#E6E6E6"/>
<path d="M354.96 611.84H168.48L150.768 211.024H337.248L354.96 611.84Z" fill="#F0F0F0"/>
<path d="M186.736 592.192L171.808 230.672H318.992L333.92 592.192H186.736Z" fill="white"/>
<path d="M249.968 592.192L199.936 230.672H215.632L265.664 592.192H249.968Z" fill="#FAFAFA"/>
<path d="M272.32 592.192L222.288 230.672H249.056L299.088 592.192H272.32Z" fill="#FAFAFA"/>
<path d="M605.92 394.432H609.6C609.6 386.848 609.6 367.6 609.984 323.488C610.64 243.488 611.92 238.688 611.92 238.688L603.2 275.584C597.584 316.448 604.8 357.52 605.92 394.432Z" fill="#E6E6E6"/>
<path d="M598.64 270.08C586.016 255.04 559.04 250.656 531.44 246.912C520.608 245.44 559.936 270.208 579.152 287.808C594.096 301.472 603.632 305.248 607.728 318.864C609.856 301.888 609.504 283.04 598.64 270.08Z" fill="#E6E6E6"/>
<path d="M615.376 296.96C628 281.92 654.96 277.536 682.576 273.792C693.424 272.336 654.096 297.104 634.864 314.688C619.936 328.368 610.384 332.144 606.288 345.76C604.16 328.768 604.496 309.92 615.376 296.96Z" fill="#E6E6E6"/>
<path d="M609.968 235.2C619.44 217.216 643.248 200.288 669.968 193.872C680.464 191.344 645.664 227.072 632.448 250.112C622.176 267.936 608.544 288.96 606.4 304C603.2 274.144 600.512 253.12 609.968 235.2Z" fill="#E6E6E6"/>
<path d="M608.848 403.056C597.648 403.056 588.256 397.408 587.616 390.256L585.744 377.904H632L630.128 390.256C629.44 397.408 620.128 403.056 608.848 403.056Z" fill="#F0F0F0"/>
<path d="M634.96 382.576H582.736L581.248 368.816H636.464L634.96 382.576Z" fill="#F0F0F0"/>
<path d="M400 684.096C571.332 684.096 710.224 675.987 710.224 665.984C710.224 655.981 571.332 647.872 400 647.872C228.668 647.872 89.7759 655.981 89.7759 665.984C89.7759 675.987 228.668 684.096 400 684.096Z" fill="#F5F5F5"/>
<path d="M449.472 247.2C449.472 202.644 431.772 159.912 400.266 128.406C368.76 96.9 326.029 79.2 281.472 79.2C236.916 79.2 194.184 96.9 162.678 128.406C131.172 159.912 113.472 202.644 113.472 247.2C113.472 320.048 158.464 379.6 224.656 405.344L340.096 450.144L318.192 411.2C355.448 402.84 388.748 382.044 412.609 352.236C436.471 322.427 449.472 285.383 449.472 247.2Z" fill="#1B44DD"/>
<path d="M277.712 400C246.751 399.997 216.487 390.813 190.745 373.61C165.004 356.407 144.942 331.957 133.096 303.352C121.25 274.747 118.152 243.272 124.194 212.906C130.236 182.541 145.147 154.649 167.04 132.757C188.934 110.866 216.828 95.9578 247.194 89.9188C277.56 83.8798 309.035 86.9808 337.639 98.8298C366.242 110.679 390.69 130.743 407.891 156.487C425.091 182.23 434.272 212.495 434.272 243.456C434.226 284.963 417.715 324.755 388.364 354.104C359.013 383.452 319.219 399.958 277.712 400ZM277.712 88.512C247.068 88.5152 217.113 97.6052 191.634 114.633C166.156 131.66 146.299 155.86 134.574 184.173C122.849 212.485 119.783 243.639 125.763 273.694C131.744 303.749 146.502 331.356 168.172 353.024C189.842 374.691 217.45 389.447 247.506 395.424C277.562 401.401 308.715 398.332 337.026 386.604C365.338 374.876 389.536 355.017 406.56 329.537C423.585 304.057 432.672 274.1 432.672 243.456C432.604 202.38 416.256 163.007 387.21 133.963C358.163 104.92 318.788 88.5755 277.712 88.512Z" fill="white"/>
<path d="M136.992 119.136C134.577 119.139 132.215 118.426 130.205 117.086C128.196 115.747 126.628 113.841 125.702 111.611C124.776 109.38 124.531 106.925 125.001 104.556C125.47 102.187 126.631 100.01 128.338 98.3013C130.045 96.5924 132.22 95.4281 134.589 94.9558C136.957 94.4834 139.413 94.7243 141.644 95.6478C143.876 96.5713 145.783 98.136 147.126 100.144C148.468 102.152 149.184 104.513 149.184 106.928C149.18 110.162 147.894 113.262 145.609 115.55C143.324 117.838 140.226 119.128 136.992 119.136ZM136.992 96.336C134.893 96.3329 132.839 96.9527 131.093 98.1171C129.346 99.2815 127.984 100.938 127.179 102.877C126.374 104.816 126.162 106.95 126.571 109.01C126.98 111.069 127.991 112.96 129.475 114.445C130.96 115.93 132.851 116.94 134.91 117.349C136.97 117.758 139.104 117.546 141.043 116.741C142.982 115.937 144.639 114.574 145.803 112.828C146.967 111.081 147.587 109.027 147.584 106.928C147.58 104.12 146.463 101.428 144.477 99.443C142.492 97.4576 139.8 96.3403 136.992 96.336Z" fill="#1B44DD"/>
<path d="M255.664 444.16C254.05 444.16 252.472 443.681 251.129 442.784C249.787 441.886 248.741 440.611 248.124 439.119C247.507 437.627 247.346 435.985 247.662 434.402C247.979 432.819 248.757 431.365 249.9 430.224C251.043 429.084 252.498 428.308 254.082 427.995C255.666 427.682 257.307 427.846 258.798 428.466C260.289 429.086 261.562 430.134 262.457 431.478C263.352 432.822 263.828 434.401 263.824 436.016C263.82 438.177 262.959 440.249 261.429 441.776C259.899 443.302 257.826 444.16 255.664 444.16ZM255.664 429.456C254.367 429.456 253.099 429.841 252.02 430.562C250.941 431.282 250.1 432.307 249.604 433.506C249.107 434.704 248.977 436.023 249.23 437.296C249.484 438.568 250.108 439.737 251.026 440.655C251.943 441.572 253.112 442.197 254.385 442.45C255.657 442.703 256.976 442.573 258.175 442.077C259.373 441.58 260.398 440.739 261.119 439.661C261.84 438.582 262.224 437.313 262.224 436.016C262.224 434.276 261.533 432.608 260.303 431.377C259.073 430.147 257.404 429.456 255.664 429.456Z" fill="#1B44DD"/>
<path d="M407.712 115.392C407.712 115.976 407.539 116.546 407.214 117.031C406.889 117.516 406.427 117.893 405.887 118.115C405.348 118.337 404.754 118.393 404.182 118.277C403.61 118.161 403.086 117.877 402.675 117.462C402.265 117.047 401.987 116.52 401.877 115.946C401.767 115.373 401.83 114.78 402.058 114.243C402.285 113.706 402.668 113.248 403.156 112.929C403.644 112.609 404.217 112.442 404.8 112.448C405.575 112.456 406.316 112.77 406.861 113.321C407.406 113.873 407.712 114.617 407.712 115.392Z" fill="#1B44DD"/>
<path d="M225.952 433.072C225.952 433.655 225.779 434.225 225.455 434.709C225.13 435.194 224.67 435.571 224.131 435.793C223.592 436.016 222.999 436.073 222.428 435.958C221.856 435.843 221.332 435.561 220.921 435.148C220.509 434.735 220.23 434.209 220.119 433.636C220.007 433.064 220.067 432.472 220.293 431.934C220.518 431.397 220.898 430.938 221.384 430.616C221.87 430.295 222.441 430.125 223.024 430.128C223.802 430.132 224.547 430.444 225.095 430.996C225.644 431.548 225.952 432.294 225.952 433.072Z" fill="#1B44DD"/>
<path d="M525.472 618.048L535.104 655.744L553.168 651.312L543.52 613.6L525.472 618.048Z" fill="#FF8B7B"/>
<path d="M553.6 643.616L533.136 648C532.818 648.062 532.535 648.241 532.342 648.502C532.15 648.763 532.062 649.086 532.096 649.408L533.504 664.384C533.549 664.76 533.672 665.123 533.865 665.45C534.059 665.776 534.318 666.058 534.627 666.278C534.936 666.498 535.287 666.651 535.659 666.727C536.03 666.803 536.414 666.801 536.784 666.72C543.184 665.12 545.12 664.256 553.216 662.496C562.688 660.416 566.016 660.976 577.216 658.544C583.936 657.072 583.616 650.032 580.624 650.016C572.662 650.027 564.836 647.941 557.936 643.968C556.59 643.298 555.037 643.172 553.6 643.616Z" fill="#263238"/>
<path opacity="0.2" d="M525.456 618.064L530.432 637.488L548.496 633.056L543.52 613.616L525.456 618.064Z" fill="black"/>
<path d="M493.28 472.832C471.776 409.552 454.736 334.912 454.736 334.912L516.096 331.04C516.096 331.04 525.136 427.936 529.856 472.608C534.752 519.008 550 623.888 550 623.888L522.32 629.504C522.32 629.504 496.352 530.736 493.28 472.832Z" fill="#1B44DD"/>
<path opacity="0.2" d="M483.04 370.08L468.144 388.496C471.936 402.704 476.384 418.672 481.248 435.008C484.045 413.482 484.646 391.727 483.04 370.08Z" fill="black"/>
<path d="M549.584 627.776L524.208 633.344C523.702 633.451 523.175 633.37 522.725 633.117C522.274 632.864 521.931 632.456 521.76 631.968L518.96 623.776C518.868 623.499 518.834 623.206 518.86 622.915C518.887 622.624 518.974 622.342 519.115 622.086C519.257 621.83 519.449 621.607 519.682 621.43C519.914 621.252 520.18 621.125 520.464 621.056L548.016 614.576C548.313 614.506 548.621 614.501 548.92 614.562C549.219 614.623 549.501 614.748 549.746 614.93C549.991 615.111 550.194 615.344 550.34 615.611C550.486 615.879 550.572 616.176 550.592 616.48L551.232 625.584C551.27 626.087 551.124 626.587 550.82 626.99C550.517 627.393 550.078 627.673 549.584 627.776Z" fill="#263238"/>
<path opacity="0.1" d="M549.584 627.776L524.208 633.344C523.702 633.451 523.175 633.37 522.725 633.117C522.274 632.864 521.931 632.456 521.76 631.968L518.96 623.776C518.868 623.499 518.834 623.206 518.86 622.915C518.887 622.624 518.974 622.342 519.115 622.086C519.257 621.83 519.449 621.607 519.682 621.43C519.914 621.252 520.18 621.125 520.464 621.056L548.016 614.576C548.313 614.506 548.621 614.501 548.92 614.562C549.219 614.623 549.501 614.748 549.746 614.93C549.991 615.111 550.194 615.344 550.34 615.611C550.486 615.879 550.572 616.176 550.592 616.48L551.232 625.584C551.27 626.087 551.124 626.587 550.82 626.99C550.517 627.393 550.078 627.673 549.584 627.776Z" fill="white"/>
<path d="M424.256 616.736L423.12 655.632L441.728 655.376L442.864 616.48L424.256 616.736Z" fill="#FF8B7B"/>
<path d="M442.176 647.392L422.4 647.68C422.077 647.678 421.766 647.797 421.526 648.013C421.286 648.229 421.136 648.527 421.104 648.848L419.504 663.808C419.475 664.186 419.525 664.565 419.651 664.923C419.776 665.28 419.975 665.608 420.233 665.885C420.492 666.161 420.805 666.381 421.154 666.531C421.502 666.68 421.877 666.755 422.256 666.752C428.832 666.544 430.912 666 439.2 665.872C448.896 665.712 450.992 666.928 462.352 666.752C469.232 666.64 470.352 659.68 467.392 659.072C459.603 657.491 452.365 653.893 446.4 648.64C445.205 647.696 443.692 647.249 442.176 647.392Z" fill="#263238"/>
<path opacity="0.2" d="M424.256 616.752L423.664 636.8L442.288 636.528L442.864 616.48L424.256 616.752Z" fill="black"/>
<path d="M428.896 471.552C434.144 404.976 429.712 369.072 437.44 336L493.28 332.544C493.28 332.544 475.952 430.4 466.368 474.656C456.784 518.912 446.512 626.416 446.512 626.416L419.072 626.752C419.072 626.752 415.712 523.488 428.896 471.552Z" fill="#1B44DD"/>
<path d="M446.4 631.344L420.448 631.744C419.908 631.75 419.385 631.549 418.987 631.184C418.589 630.818 418.345 630.315 418.304 629.776L417.744 621.2C417.727 620.919 417.766 620.637 417.86 620.371C417.953 620.105 418.099 619.86 418.288 619.652C418.477 619.443 418.707 619.274 418.962 619.155C419.218 619.037 419.495 618.97 419.776 618.96L448.048 618.08C448.364 618.072 448.678 618.135 448.966 618.264C449.254 618.393 449.51 618.585 449.714 618.826C449.918 619.067 450.066 619.351 450.146 619.657C450.226 619.962 450.236 620.282 450.176 620.592L448.432 629.632C448.343 630.108 448.093 630.539 447.722 630.851C447.352 631.163 446.885 631.337 446.4 631.344Z" fill="#263238"/>
<path opacity="0.1" d="M446.4 631.344L420.448 631.744C419.908 631.75 419.385 631.549 418.987 631.184C418.589 630.818 418.345 630.315 418.304 629.776L417.744 621.2C417.727 620.919 417.766 620.637 417.86 620.371C417.953 620.105 418.099 619.86 418.288 619.652C418.477 619.443 418.707 619.274 418.962 619.155C419.218 619.037 419.495 618.97 419.776 618.96L448.048 618.08C448.364 618.072 448.678 618.135 448.966 618.264C449.254 618.393 449.51 618.585 449.714 618.826C449.918 619.067 450.066 619.351 450.146 619.657C450.226 619.962 450.236 620.282 450.176 620.592L448.432 629.632C448.343 630.108 448.093 630.539 447.722 630.851C447.352 631.163 446.885 631.337 446.4 631.344Z" fill="white"/>
<path d="M514.864 219.76L518.064 225.008L521.6 230.4C523.888 233.936 526.272 237.392 528.656 240.768C531.04 244.144 533.568 247.344 536.112 250.368C538.372 253.063 540.903 255.518 543.664 257.696L535.84 256.528C539.015 255.875 542.118 254.91 545.104 253.648C548.384 252.248 551.588 250.678 554.704 248.944C557.904 247.2 561.104 245.264 564.304 243.248C567.504 241.232 570.704 239.04 573.728 236.992L573.984 236.832C575.079 236.063 576.414 235.712 577.745 235.844C579.077 235.976 580.317 236.581 581.239 237.55C582.162 238.52 582.706 239.788 582.772 241.124C582.838 242.461 582.422 243.776 581.6 244.832C579.087 248.207 576.356 251.414 573.424 254.432C570.513 257.45 567.431 260.297 564.192 262.96C560.845 265.709 557.3 268.207 553.584 270.432C549.597 272.846 545.338 274.779 540.896 276.192C539.702 276.559 538.445 276.676 537.203 276.536C535.961 276.396 534.762 276.001 533.68 275.376L533.072 275.024C528.484 272.288 524.277 268.958 520.56 265.12C518.821 263.371 517.152 261.6 515.552 259.808C513.952 258.016 512.432 256.187 510.992 254.32C508.048 250.64 505.344 246.864 502.768 243.008C501.488 241.088 500.224 239.152 499.024 237.168C497.824 235.184 496.672 233.264 495.456 231.056C494.298 228.536 494.116 225.675 494.945 223.028C495.775 220.381 497.557 218.137 499.947 216.729C502.337 215.321 505.165 214.85 507.882 215.407C510.599 215.964 513.013 217.509 514.656 219.744L514.864 219.76Z" fill="#FF8B7B"/>
<path d="M490.608 198.4C512.288 200.864 528.688 234.432 528.688 234.432L506.288 258.224C506.288 258.224 496.336 246.352 485.632 231.328C474 215.008 473.456 196.464 490.608 198.4Z" fill="#263238"/>
<path d="M488.896 203.472C480.56 200.512 454.448 204.944 454.448 204.944C461.76 214.304 466.624 291.84 467.248 336.432C475.168 337.52 493.984 337.376 501.04 335.744C500.16 318.24 494.4 234.592 488.896 203.472Z" fill="white"/>
<path d="M517.376 226.96C516.393 218.896 512.484 211.473 506.391 206.099C500.297 200.726 492.444 197.776 484.32 197.808C468.72 197.938 453.174 199.654 437.92 202.928C435.553 203.441 433.312 204.421 431.329 205.812C429.345 207.202 427.66 208.975 426.371 211.026C425.081 213.076 424.215 215.364 423.821 217.754C423.428 220.144 423.516 222.588 424.08 224.944C435.568 273.152 432.544 318.88 435.616 340.144C448.135 343.262 461.005 344.741 473.904 344.544C473.904 344.544 473.44 338.624 472.864 329.04C472.656 325.296 467.84 213.072 460.336 203.424C460.336 203.424 476.432 201.824 484.768 204.736C490.96 239.68 496.752 344.592 496.752 344.608C509.92 343.664 519.152 335.984 518.976 333.792C521.6 290.896 520.32 252.064 517.376 226.96Z" fill="#263238"/>
<path d="M451.76 163.968C454.208 173.392 457.072 189.968 452.576 199.024C452.116 199.907 451.976 200.922 452.18 201.896C452.385 202.871 452.92 203.744 453.696 204.368C459.472 208.832 466.896 212.976 477.696 212.368C489.04 211.68 488.192 204.896 485.312 200.368C485.018 199.888 484.63 199.474 484.17 199.149C483.711 198.825 483.19 198.597 482.64 198.48C471.92 196.272 471.792 187.744 473.328 179.552L451.76 163.968Z" fill="#FF8B7B"/>
<path opacity="0.2" d="M460.544 170.304L473.344 179.488C472.942 181.469 472.718 183.483 472.672 185.504C468.048 185.296 461.472 180.88 460.672 176.128C460.279 174.21 460.236 172.237 460.544 170.304Z" fill="black"/>
<path d="M487.152 152C490.048 150.08 491.584 136.848 487.152 132.56C491.728 128.528 489.088 119.552 482.816 118.032C476.544 116.512 471.936 120.64 463.856 115.456C462.464 117.344 463.264 119.76 465.68 121.168C469.168 123.2 487.152 152 487.152 152Z" fill="#263238"/>
<path d="M447.824 147.968C450 162.368 450.528 170.992 458.528 177.744C470.576 187.904 487.936 179.504 490.128 164.656C492.112 151.296 488.224 129.904 473.488 125.488C470.222 124.511 466.761 124.379 463.43 125.104C460.099 125.829 457.007 127.388 454.442 129.634C451.878 131.88 449.926 134.741 448.768 137.947C447.61 141.154 447.286 144.602 447.824 147.968Z" fill="#FF8B7B"/>
<path d="M452.24 160.192C456.096 158.384 453.984 142.928 453.04 139.888C463.168 141.296 491.648 133.696 482.272 122.624C475.424 114.624 455.44 123.776 446.928 116.88C444.4 119.584 447.92 122.784 447.92 122.784C447.92 122.784 434.4 125.984 439.92 135.584C428.944 135.088 436.464 161.792 452.24 160.192Z" fill="#263238"/>
<path d="M442.464 129.472C437.136 133.648 435.04 131.776 431.952 128.96C431.216 137.168 437.744 138.224 440.768 137.376C442.752 134.816 442.464 129.472 442.464 129.472Z" fill="#263238"/>
<path d="M443.088 161.248C444.87 164.255 447.731 166.47 451.088 167.44C455.328 168.544 456.928 164.24 455.312 160C453.856 156.112 449.888 150.864 445.84 151.68C441.792 152.496 440.784 157.44 443.088 161.248Z" fill="#FF8B7B"/>
<path d="M467.696 149.248C467.808 150.432 468.512 151.328 469.296 151.248C470.08 151.168 470.608 150.16 470.496 148.976C470.384 147.792 469.68 146.896 468.896 146.976C468.112 147.056 467.6 148.064 467.696 149.248Z" fill="#263238"/>
<path d="M481.024 146.96C481.136 148.144 481.84 149.04 482.624 148.976C483.408 148.912 483.936 147.872 483.824 146.688C483.712 145.504 483.008 144.608 482.224 144.688C481.44 144.768 480.928 145.776 481.024 146.96Z" fill="#263238"/>
<path d="M476.272 148.352C476.272 148.352 479.568 154.928 482.816 157.952C480.896 160.112 477.248 159.552 477.248 159.552L476.272 148.352Z" fill="#FF5652"/>
<path d="M473.6 165.312C472.274 165.423 470.939 165.257 469.68 164.825C468.421 164.392 467.266 163.703 466.288 162.8C466.245 162.77 466.209 162.732 466.183 162.687C466.157 162.642 466.141 162.591 466.137 162.539C466.133 162.487 466.14 162.435 466.158 162.386C466.177 162.338 466.206 162.293 466.243 162.257C466.28 162.221 466.325 162.194 466.375 162.177C466.424 162.16 466.477 162.155 466.528 162.161C466.58 162.167 466.63 162.184 466.674 162.212C466.718 162.239 466.756 162.276 466.784 162.32C467.893 163.293 469.215 163.991 470.644 164.358C472.072 164.725 473.568 164.751 475.008 164.432C475.099 164.413 475.194 164.431 475.272 164.482C475.35 164.533 475.405 164.613 475.424 164.704C475.438 164.797 475.416 164.892 475.363 164.969C475.309 165.047 475.228 165.101 475.136 165.12C474.628 165.213 474.115 165.278 473.6 165.312Z" fill="#263238"/>
<path d="M462.704 147.296C462.589 147.328 462.467 147.328 462.352 147.296C462.182 147.219 462.049 147.079 461.981 146.906C461.912 146.733 461.913 146.54 461.984 146.368C462.41 145.338 463.074 144.423 463.923 143.7C464.771 142.977 465.779 142.465 466.864 142.208C466.954 142.192 467.047 142.194 467.137 142.215C467.226 142.235 467.311 142.273 467.385 142.327C467.46 142.381 467.523 142.449 467.571 142.527C467.619 142.606 467.65 142.693 467.664 142.784C467.692 142.968 467.648 143.156 467.54 143.308C467.433 143.46 467.271 143.565 467.088 143.6C466.233 143.812 465.44 144.225 464.775 144.804C464.11 145.382 463.592 146.11 463.264 146.928C463.21 147.032 463.13 147.12 463.032 147.185C462.934 147.249 462.821 147.287 462.704 147.296Z" fill="#263238"/>
<path d="M486.096 140.608C485.986 140.635 485.87 140.636 485.759 140.611C485.648 140.586 485.545 140.536 485.456 140.464C484.819 139.878 484.051 139.451 483.217 139.22C482.382 138.989 481.504 138.961 480.656 139.136C480.478 139.186 480.288 139.163 480.126 139.073C479.964 138.983 479.844 138.833 479.792 138.656C479.747 138.478 479.771 138.289 479.861 138.129C479.95 137.968 480.097 137.848 480.272 137.792C481.35 137.547 482.47 137.564 483.539 137.843C484.609 138.121 485.595 138.653 486.416 139.392C486.543 139.526 486.614 139.703 486.614 139.888C486.614 140.073 486.543 140.25 486.416 140.384C486.329 140.483 486.219 140.56 486.096 140.608Z" fill="#263238"/>
<path d="M439.728 233.92L437.2 239.584L434.688 245.456C433.088 249.392 431.488 253.344 429.968 257.328C426.955 265.174 424.396 273.188 422.304 281.328L421.616 284.32L421.28 285.824L421.2 286.192C421.103 287.349 421.211 288.513 421.52 289.632C421.941 291.445 422.475 293.23 423.12 294.976C423.76 296.848 424.496 298.768 425.296 300.688C428.496 308.4 432.464 316.32 436.208 324.144L436.288 324.288C436.904 325.488 437.067 326.87 436.745 328.181C436.424 329.491 435.64 330.641 434.539 331.42C433.437 332.198 432.091 332.553 430.749 332.419C429.406 332.284 428.158 331.67 427.232 330.688C420.772 323.975 414.995 316.638 409.984 308.784C407.239 304.566 404.944 300.072 403.136 295.376C401.935 292.313 401.275 289.065 401.184 285.776C401.184 285.216 401.184 284.624 401.28 284.048V283.248V282.8L401.536 281.008L402.032 277.44C403.619 268.152 405.935 259.004 408.96 250.08C410.443 245.664 412.043 241.312 413.76 237.024C414.64 234.88 415.552 232.752 416.528 230.624C417.504 228.496 418.448 226.48 419.616 224.224C421.012 221.759 423.29 219.914 425.991 219.061C428.692 218.209 431.617 218.411 434.175 219.628C436.733 220.846 438.734 222.987 439.777 225.621C440.819 228.255 440.825 231.186 439.792 233.824L439.728 233.92Z" fill="#FF8B7B"/>
<path d="M436.064 203.44C411.888 209.536 405.168 240.448 405.168 240.448L435.2 261.984C435.2 261.984 442.64 254.192 444.88 235.904C445.952 227.2 440.96 203.2 436.064 203.44Z" fill="#263238"/>
<path d="M432.336 320.592L446.304 325.808L435.616 340.208C435.616 340.208 423.536 333.952 425.808 326.992L432.336 320.592Z" fill="#FF8B7B"/>
<path d="M452.8 339.84L448.208 344.24C447.323 345.086 446.167 345.591 444.945 345.664C443.723 345.737 442.515 345.374 441.536 344.64L435.568 340.144L446.256 325.744L452.896 332.4C453.392 332.887 453.784 333.47 454.048 334.113C454.313 334.756 454.445 335.445 454.436 336.14C454.427 336.836 454.277 337.522 453.996 338.157C453.715 338.793 453.308 339.366 452.8 339.84Z" fill="#FF8B7B"/>
<path d="M591.088 242.112L589.376 234.304C589.197 233.499 588.732 232.785 588.067 232.297C587.402 231.809 586.582 231.578 585.76 231.648C583.28 231.857 580.879 232.623 578.736 233.888L569.136 239.584L569.984 248.64C573.968 254.784 586.416 249.28 586.416 249.28L587.44 248.88C588.756 248.373 589.848 247.413 590.517 246.171C591.186 244.93 591.389 243.49 591.088 242.112Z" fill="#FF8B7B"/>
<path d="M567.904 243.072C567.312 240.016 568.64 237.552 568.336 234.672C568.08 232.16 568.752 229.344 567.952 225.92C568.912 224.32 572.384 225.632 572.432 229.872C573.504 234.224 578.288 233.6 580.192 233.072C580.192 233.12 573.728 244.368 567.904 243.072Z" fill="#FF8B7B"/>
<path d="M181.81 213.979L173.335 230.181V240H169.938V230.181L161.426 213.979H165.196L171.618 227.157L178.039 213.979H181.81Z" fill="#FCFCFC"/>
<path d="M194.316 240.336C192.399 240.336 190.657 239.9 189.089 239.029C187.546 238.158 186.327 236.926 185.431 235.333C184.559 233.716 184.124 231.849 184.124 229.733C184.124 227.643 184.572 225.801 185.468 224.208C186.389 222.59 187.633 221.358 189.201 220.512C190.769 219.641 192.524 219.205 194.465 219.205C196.407 219.205 198.161 219.641 199.729 220.512C201.297 221.358 202.529 222.578 203.425 224.171C204.346 225.764 204.807 227.618 204.807 229.733C204.807 231.849 204.334 233.716 203.388 235.333C202.467 236.926 201.21 238.158 199.617 239.029C198.024 239.9 196.257 240.336 194.316 240.336ZM194.316 237.349C195.535 237.349 196.68 237.063 197.751 236.491C198.821 235.918 199.679 235.06 200.327 233.915C200.999 232.77 201.335 231.376 201.335 229.733C201.335 228.091 201.011 226.697 200.364 225.552C199.717 224.407 198.871 223.561 197.825 223.013C196.78 222.441 195.647 222.155 194.428 222.155C193.183 222.155 192.039 222.441 190.993 223.013C189.973 223.561 189.151 224.407 188.529 225.552C187.907 226.697 187.596 228.091 187.596 229.733C187.596 231.401 187.895 232.807 188.492 233.952C189.114 235.097 189.935 235.956 190.956 236.528C191.976 237.076 193.096 237.349 194.316 237.349Z" fill="#FCFCFC"/>
<path d="M227.417 219.541V240H224.02V236.976C223.373 238.021 222.465 238.843 221.295 239.44C220.15 240.012 218.881 240.299 217.487 240.299C215.894 240.299 214.463 239.975 213.193 239.328C211.924 238.656 210.916 237.66 210.169 236.341C209.448 235.022 209.087 233.417 209.087 231.525V219.541H212.447V231.077C212.447 233.093 212.957 234.649 213.977 235.744C214.998 236.814 216.392 237.349 218.159 237.349C219.976 237.349 221.407 236.789 222.452 235.669C223.497 234.549 224.02 232.919 224.02 230.779V219.541H227.417Z" fill="#FCFCFC"/>
<path d="M233.676 213.979H237.447L233.863 222.453H231.474L233.676 213.979Z" fill="#FCFCFC"/>
<path d="M244.718 222.864C245.315 221.694 246.161 220.786 247.256 220.139C248.376 219.492 249.733 219.168 251.326 219.168V222.677H250.43C246.622 222.677 244.718 224.743 244.718 228.875V240H241.32V219.541H244.718V222.864Z" fill="#FCFCFC"/>
<path d="M273.914 228.987C273.914 229.634 273.877 230.318 273.802 231.04H257.45C257.574 233.056 258.259 234.636 259.503 235.781C260.773 236.901 262.303 237.461 264.095 237.461C265.564 237.461 266.783 237.125 267.754 236.453C268.75 235.756 269.446 234.836 269.845 233.691H273.503C272.956 235.657 271.861 237.262 270.218 238.507C268.575 239.726 266.534 240.336 264.095 240.336C262.154 240.336 260.412 239.9 258.869 239.029C257.35 238.158 256.156 236.926 255.285 235.333C254.414 233.716 253.978 231.849 253.978 229.733C253.978 227.618 254.401 225.764 255.247 224.171C256.094 222.578 257.276 221.358 258.794 220.512C260.337 219.641 262.104 219.205 264.095 219.205C266.037 219.205 267.754 219.628 269.247 220.475C270.741 221.321 271.886 222.491 272.682 223.984C273.503 225.452 273.914 227.12 273.914 228.987ZM270.405 228.277C270.405 226.983 270.118 225.876 269.546 224.955C268.974 224.009 268.19 223.3 267.194 222.827C266.223 222.329 265.141 222.08 263.946 222.08C262.229 222.08 260.76 222.628 259.541 223.723C258.346 224.818 257.662 226.336 257.487 228.277H270.405Z" fill="#FCFCFC"/>
<path d="M287.082 229.696C287.082 227.605 287.505 225.776 288.352 224.208C289.198 222.615 290.355 221.383 291.824 220.512C293.317 219.641 294.984 219.205 296.826 219.205C298.419 219.205 299.9 219.579 301.269 220.325C302.638 221.047 303.683 222.005 304.405 223.2V212.373H307.84V240H304.405V236.155C303.733 237.374 302.737 238.382 301.418 239.179C300.099 239.95 298.556 240.336 296.789 240.336C294.972 240.336 293.317 239.888 291.824 238.992C290.355 238.096 289.198 236.839 288.352 235.221C287.505 233.604 287.082 231.762 287.082 229.696ZM304.405 229.733C304.405 228.19 304.094 226.846 303.472 225.701C302.849 224.556 302.003 223.685 300.933 223.088C299.888 222.466 298.73 222.155 297.461 222.155C296.192 222.155 295.034 222.453 293.989 223.051C292.944 223.648 292.11 224.519 291.488 225.664C290.865 226.809 290.554 228.153 290.554 229.696C290.554 231.264 290.865 232.633 291.488 233.803C292.11 234.948 292.944 235.831 293.989 236.453C295.034 237.051 296.192 237.349 297.461 237.349C298.73 237.349 299.888 237.051 300.933 236.453C302.003 235.831 302.849 234.948 303.472 233.803C304.094 232.633 304.405 231.276 304.405 229.733Z" fill="#FCFCFC"/>
<path d="M322.503 240.336C320.587 240.336 318.845 239.9 317.277 239.029C315.734 238.158 314.514 236.926 313.618 235.333C312.747 233.716 312.311 231.849 312.311 229.733C312.311 227.643 312.759 225.801 313.655 224.208C314.576 222.59 315.821 221.358 317.389 220.512C318.957 219.641 320.711 219.205 322.653 219.205C324.594 219.205 326.349 219.641 327.917 220.512C329.485 221.358 330.717 222.578 331.613 224.171C332.534 225.764 332.994 227.618 332.994 229.733C332.994 231.849 332.521 233.716 331.575 235.333C330.654 236.926 329.398 238.158 327.805 239.029C326.212 239.9 324.445 240.336 322.503 240.336ZM322.503 237.349C323.723 237.349 324.868 237.063 325.938 236.491C327.008 235.918 327.867 235.06 328.514 233.915C329.186 232.77 329.522 231.376 329.522 229.733C329.522 228.091 329.198 226.697 328.551 225.552C327.904 224.407 327.058 223.561 326.013 223.013C324.967 222.441 323.835 222.155 322.615 222.155C321.371 222.155 320.226 222.441 319.181 223.013C318.16 223.561 317.339 224.407 316.717 225.552C316.094 226.697 315.783 228.091 315.783 229.733C315.783 231.401 316.082 232.807 316.679 233.952C317.302 235.097 318.123 235.956 319.143 236.528C320.164 237.076 321.284 237.349 322.503 237.349Z" fill="#FCFCFC"/>
<path d="M339.216 216.219C338.568 216.219 338.021 215.995 337.573 215.547C337.125 215.099 336.901 214.551 336.901 213.904C336.901 213.257 337.125 212.709 337.573 212.261C338.021 211.813 338.568 211.589 339.216 211.589C339.838 211.589 340.36 211.813 340.784 212.261C341.232 212.709 341.456 213.257 341.456 213.904C341.456 214.551 341.232 215.099 340.784 215.547C340.36 215.995 339.838 216.219 339.216 216.219ZM340.858 219.541V240H337.461V219.541H340.858Z" fill="#FCFCFC"/>
<path d="M356.616 219.168C359.105 219.168 361.121 219.927 362.664 221.445C364.208 222.939 364.979 225.104 364.979 227.941V240H361.619V228.427C361.619 226.386 361.109 224.83 360.088 223.76C359.068 222.665 357.674 222.117 355.907 222.117C354.115 222.117 352.684 222.677 351.614 223.797C350.568 224.917 350.046 226.548 350.046 228.688V240H346.648V219.541H350.046V222.453C350.718 221.408 351.626 220.599 352.771 220.027C353.941 219.454 355.223 219.168 356.616 219.168Z" fill="#FCFCFC"/>
<path d="M378.966 219.205C380.733 219.205 382.276 219.591 383.595 220.363C384.939 221.134 385.935 222.105 386.582 223.275V219.541H390.017V240.448C390.017 242.315 389.618 243.97 388.822 245.413C388.025 246.882 386.881 248.027 385.387 248.848C383.919 249.669 382.201 250.08 380.235 250.08C377.547 250.08 375.307 249.445 373.515 248.176C371.723 246.907 370.665 245.177 370.342 242.987H373.702C374.075 244.231 374.847 245.227 376.017 245.973C377.186 246.745 378.593 247.131 380.235 247.131C382.102 247.131 383.62 246.546 384.79 245.376C385.985 244.206 386.582 242.564 386.582 240.448V236.155C385.91 237.349 384.914 238.345 383.595 239.141C382.276 239.938 380.733 240.336 378.966 240.336C377.149 240.336 375.494 239.888 374.001 238.992C372.532 238.096 371.375 236.839 370.529 235.221C369.682 233.604 369.259 231.762 369.259 229.696C369.259 227.605 369.682 225.776 370.529 224.208C371.375 222.615 372.532 221.383 374.001 220.512C375.494 219.641 377.149 219.205 378.966 219.205ZM386.582 229.733C386.582 228.19 386.271 226.846 385.649 225.701C385.026 224.556 384.18 223.685 383.11 223.088C382.065 222.466 380.907 222.155 379.638 222.155C378.369 222.155 377.211 222.453 376.166 223.051C375.121 223.648 374.287 224.519 373.665 225.664C373.042 226.809 372.731 228.153 372.731 229.696C372.731 231.264 373.042 232.633 373.665 233.803C374.287 234.948 375.121 235.831 376.166 236.453C377.211 237.051 378.369 237.349 379.638 237.349C380.907 237.349 382.065 237.051 383.11 236.453C384.18 235.831 385.026 234.948 385.649 233.803C386.271 232.633 386.582 231.276 386.582 229.733Z" fill="#FCFCFC"/>
<path d="M231.984 275.205C233.751 275.205 235.294 275.591 236.614 276.363C237.958 277.134 238.953 278.105 239.6 279.275V275.541H243.035V296.448C243.035 298.315 242.637 299.97 241.84 301.413C241.044 302.882 239.899 304.027 238.406 304.848C236.937 305.669 235.22 306.08 233.254 306.08C230.566 306.08 228.326 305.445 226.534 304.176C224.742 302.907 223.684 301.177 223.36 298.987H226.72C227.094 300.231 227.865 301.227 229.035 301.973C230.205 302.745 231.611 303.131 233.254 303.131C235.12 303.131 236.638 302.546 237.808 301.376C239.003 300.206 239.6 298.564 239.6 296.448V292.155C238.928 293.349 237.933 294.345 236.614 295.141C235.294 295.938 233.751 296.336 231.984 296.336C230.167 296.336 228.512 295.888 227.019 294.992C225.55 294.096 224.393 292.839 223.547 291.221C222.701 289.604 222.278 287.762 222.278 285.696C222.278 283.605 222.701 281.776 223.547 280.208C224.393 278.615 225.55 277.383 227.019 276.512C228.512 275.641 230.167 275.205 231.984 275.205ZM239.6 285.733C239.6 284.19 239.289 282.846 238.667 281.701C238.045 280.556 237.198 279.685 236.128 279.088C235.083 278.466 233.926 278.155 232.656 278.155C231.387 278.155 230.23 278.453 229.184 279.051C228.139 279.648 227.305 280.519 226.683 281.664C226.061 282.809 225.75 284.153 225.75 285.696C225.75 287.264 226.061 288.633 226.683 289.803C227.305 290.948 228.139 291.831 229.184 292.453C230.23 293.051 231.387 293.349 232.656 293.349C233.926 293.349 235.083 293.051 236.128 292.453C237.198 291.831 238.045 290.948 238.667 289.803C239.289 288.633 239.6 287.276 239.6 285.733Z" fill="#FCFCFC"/>
<path d="M252.173 278.864C252.771 277.694 253.617 276.786 254.712 276.139C255.832 275.492 257.188 275.168 258.781 275.168V278.677H257.885C254.077 278.677 252.173 280.743 252.173 284.875V296H248.776V275.541H252.173V278.864Z" fill="#FCFCFC"/>
<path d="M281.37 284.987C281.37 285.634 281.332 286.318 281.258 287.04H264.906C265.03 289.056 265.715 290.636 266.959 291.781C268.228 292.901 269.759 293.461 271.551 293.461C273.02 293.461 274.239 293.125 275.21 292.453C276.205 291.756 276.902 290.836 277.3 289.691H280.959C280.412 291.657 279.316 293.262 277.674 294.507C276.031 295.726 273.99 296.336 271.551 296.336C269.61 296.336 267.868 295.9 266.324 295.029C264.806 294.158 263.612 292.926 262.74 291.333C261.869 289.716 261.434 287.849 261.434 285.733C261.434 283.618 261.857 281.764 262.703 280.171C263.549 278.578 264.732 277.358 266.25 276.512C267.793 275.641 269.56 275.205 271.551 275.205C273.492 275.205 275.21 275.628 276.703 276.475C278.196 277.321 279.341 278.491 280.138 279.984C280.959 281.452 281.37 283.12 281.37 284.987ZM277.86 284.277C277.86 282.983 277.574 281.876 277.002 280.955C276.429 280.009 275.645 279.3 274.65 278.827C273.679 278.329 272.596 278.08 271.402 278.08C269.684 278.08 268.216 278.628 266.996 279.723C265.802 280.818 265.117 282.336 264.943 284.277H277.86Z" fill="#FCFCFC"/>
<path d="M284.585 285.696C284.585 283.605 285.008 281.776 285.854 280.208C286.7 278.615 287.858 277.383 289.326 276.512C290.819 275.641 292.475 275.205 294.291 275.205C296.083 275.205 297.639 275.591 298.958 276.363C300.277 277.134 301.26 278.105 301.907 279.275V275.541H305.342V296H301.907V292.192C301.235 293.387 300.227 294.382 298.883 295.179C297.564 295.95 296.021 296.336 294.254 296.336C292.437 296.336 290.795 295.888 289.326 294.992C287.858 294.096 286.7 292.839 285.854 291.221C285.008 289.604 284.585 287.762 284.585 285.696ZM301.907 285.733C301.907 284.19 301.596 282.846 300.974 281.701C300.352 280.556 299.506 279.685 298.435 279.088C297.39 278.466 296.233 278.155 294.963 278.155C293.694 278.155 292.537 278.453 291.491 279.051C290.446 279.648 289.612 280.519 288.99 281.664C288.368 282.809 288.057 284.153 288.057 285.696C288.057 287.264 288.368 288.633 288.99 289.803C289.612 290.948 290.446 291.831 291.491 292.453C292.537 293.051 293.694 293.349 294.963 293.349C296.233 293.349 297.39 293.051 298.435 292.453C299.506 291.831 300.352 290.948 300.974 289.803C301.596 288.633 301.907 287.276 301.907 285.733Z" fill="#FCFCFC"/>
<path d="M315.227 278.341V290.4C315.227 291.396 315.439 292.105 315.862 292.528C316.285 292.926 317.019 293.125 318.065 293.125H320.566V296H317.505C315.613 296 314.194 295.564 313.249 294.693C312.303 293.822 311.83 292.391 311.83 290.4V278.341H309.179V275.541H311.83V270.389H315.227V275.541H320.566V278.341H315.227Z" fill="#FCFCFC"/>
<path d="M329.088 269.979L328.677 288.645H325.84L325.429 269.979H329.088ZM327.408 296.224C326.76 296.224 326.213 296 325.765 295.552C325.317 295.104 325.093 294.556 325.093 293.909C325.093 293.262 325.317 292.715 325.765 292.267C326.213 291.819 326.76 291.595 327.408 291.595C328.03 291.595 328.552 291.819 328.976 292.267C329.424 292.715 329.648 293.262 329.648 293.909C329.648 294.556 329.424 295.104 328.976 295.552C328.552 296 328.03 296.224 327.408 296.224Z" fill="#FCFCFC"/>
</svg>
