<svg viewBox="0 0 800 800" fill="none" xmlns="http://www.w3.org/2000/svg">
<path d="M719.84 637.584H666.848V637.984H719.84V637.584Z" fill="#EBEBEB"/>
<path d="M529.952 641.936H516.048V642.336H529.952V641.936Z" fill="#EBEBEB"/>
<path d="M665.248 622.736H634.544V623.136H665.248V622.736Z" fill="#EBEBEB"/>
<path d="M153.04 625.424H83.936V625.824H153.04V625.424Z" fill="#EBEBEB"/>
<path d="M177.424 625.424H167.296V625.824H177.424V625.424Z" fill="#EBEBEB"/>
<path d="M360.24 632.176H210.352V632.576H360.24V632.176Z" fill="#EBEBEB"/>
<path d="M379.2 540.48H70.2722C67.8492 540.48 65.5254 539.517 63.8121 537.804C62.0988 536.091 61.1362 533.767 61.1362 531.344V97.056C61.1573 94.6469 62.1292 92.3436 63.8402 90.6475C65.5513 88.9515 67.863 87.9999 70.2722 88H379.2C381.623 88 383.947 88.9625 385.66 90.6759C387.374 92.3892 388.336 94.713 388.336 97.136V531.344C388.336 533.767 387.374 536.091 385.66 537.804C383.947 539.517 381.623 540.48 379.2 540.48ZM70.2722 88.32C67.9566 88.3242 65.737 89.246 64.0996 90.8834C62.4622 92.5208 61.5405 94.7404 61.5362 97.056V531.344C61.5405 533.66 62.4622 535.879 64.0996 537.517C65.737 539.154 67.9566 540.076 70.2722 540.08H379.2C381.516 540.076 383.735 539.154 385.373 537.517C387.01 535.879 387.932 533.66 387.936 531.344V97.056C387.932 94.7404 387.01 92.5208 385.373 90.8834C383.735 89.246 381.516 88.3242 379.2 88.32H70.2722Z" fill="#EBEBEB"/>
<path d="M725.296 540.48H416.336C413.914 540.476 411.593 539.512 409.881 537.799C408.168 536.087 407.204 533.766 407.2 531.344V97.056C407.225 94.6482 408.199 92.3473 409.909 90.6521C411.619 88.957 413.928 88.0041 416.336 88H725.296C727.7 88.0083 730.003 88.9636 731.708 90.6588C733.412 92.3539 734.379 94.6524 734.4 97.056V531.344C734.4 533.761 733.442 536.08 731.736 537.793C730.029 539.505 727.714 540.472 725.296 540.48ZM416.336 88.32C414.021 88.3242 411.801 89.246 410.164 90.8834C408.526 92.5208 407.604 94.7404 407.6 97.056V531.344C407.604 533.66 408.526 535.879 410.164 537.517C411.801 539.154 414.021 540.076 416.336 540.08H725.296C727.612 540.076 729.831 539.154 731.469 537.517C733.106 535.879 734.028 533.66 734.032 531.344V97.056C734.028 94.7404 733.106 92.5208 731.469 90.8834C729.831 89.246 727.612 88.3242 725.296 88.32H416.336Z" fill="#EBEBEB"/>
<path d="M800 611.84H0V612.24H800V611.84Z" fill="#EBEBEB"/>
<path d="M362.256 611.84L449.824 552.64C458.784 546.576 473.296 546.576 482.256 552.64L569.824 611.84H362.256Z" fill="#F5F5F5"/>
<path d="M482.256 552.576C476.116 548.768 468.828 547.255 461.68 548.304C458.48 556.72 456.32 568.992 468.288 574.736C487.488 583.92 463.712 593.36 463.712 602.592C464.003 605.967 465.277 609.182 467.376 611.84H569.776L482.256 552.576Z" fill="#EBEBEB"/>
<path d="M49.2642 611.84L136.832 519.04C138.896 516.796 141.402 515.005 144.194 513.78C146.985 512.555 150 511.923 153.048 511.923C156.096 511.923 159.111 512.555 161.903 513.78C164.694 515.005 167.201 516.796 169.264 519.04L256.832 611.84H49.2642Z" fill="#F5F5F5"/>
<path d="M169.264 519.056C166.693 516.275 163.45 514.201 159.847 513.032C156.244 511.864 152.402 511.641 148.688 512.384C145.488 525.552 143.312 544.768 155.296 553.744C174.496 568.144 150.72 582.896 150.72 597.36C150.957 602.358 152.204 607.256 154.384 611.76H256.784L169.264 519.056Z" fill="#EBEBEB"/>
<path d="M207.472 611.68L253.456 562.96C254.54 561.78 255.857 560.838 257.323 560.194C258.79 559.55 260.374 559.217 261.976 559.217C263.578 559.217 265.163 559.55 266.629 560.194C268.096 560.838 269.413 561.78 270.496 562.96L316.464 611.68H207.472Z" fill="#F0F0F0"/>
<path d="M270.496 562.96C269.146 561.495 267.442 560.404 265.547 559.79C263.653 559.176 261.632 559.061 259.68 559.456C257.968 566.368 256.864 576.464 263.152 581.168C273.232 588.72 260.752 596.48 260.752 604.08C260.87 606.717 261.523 609.303 262.672 611.68H316.464L270.496 562.96Z" fill="#E0E0E0"/>
<path d="M638.848 611.68L684.8 562.96C685.882 561.781 687.198 560.839 688.663 560.195C690.128 559.551 691.712 559.218 693.312 559.218C694.913 559.218 696.496 559.551 697.961 560.195C699.427 560.839 700.742 561.781 701.824 562.96L747.84 611.68H638.848Z" fill="#F0F0F0"/>
<path d="M701.856 562.96C700.511 561.494 698.809 560.401 696.917 559.787C695.024 559.173 693.005 559.059 691.056 559.456C689.344 566.368 688.24 576.464 694.528 581.168C704.592 588.72 692.128 596.48 692.128 604.08C692.246 606.717 692.899 609.303 694.048 611.68H747.84L701.856 562.96Z" fill="#E0E0E0"/>
<path d="M295.664 611.68L341.632 509.872C346.336 499.456 353.968 499.456 358.672 509.872L404.64 611.68H295.664Z" fill="#FAFAFA"/>
<path d="M358.672 509.872C355.728 503.376 351.664 500.928 347.872 502.544C346.144 516.944 345.04 538.08 351.328 547.936C361.408 563.712 348.928 579.936 348.928 595.792C349.031 601.14 349.679 606.464 350.864 611.68H404.64L358.672 509.872Z" fill="#F0F0F0"/>
<path d="M562.128 611.68L608.112 509.872C612.816 499.456 620.432 499.456 625.136 509.872L671.12 611.68H562.128Z" fill="#FAFAFA"/>
<path d="M625.136 509.872C622.208 503.376 618.128 500.928 614.336 502.544C612.624 516.944 611.52 538.08 617.808 547.936C627.872 563.712 615.408 579.936 615.408 595.792C615.505 601.14 616.149 606.463 617.328 611.68H671.12L625.136 509.872Z" fill="#E0E0E0"/>
<path d="M51.104 611.68L87.152 531.856C90.848 523.696 96.752 523.696 100.512 531.856L136.56 611.68H51.104Z" fill="#FAFAFA"/>
<path d="M100.512 531.856C98.2082 526.768 95.0082 524.848 92.0322 526.112C90.6882 537.44 89.8242 553.968 94.7522 561.696C102.656 574.064 92.8802 586.784 92.8802 599.232C92.9625 603.422 93.4718 607.593 94.4002 611.68H136.56L100.512 531.856Z" fill="#F0F0F0"/>
<path d="M405.408 400.272C396.912 403.616 403.936 374.192 379.216 374.832C354.496 375.472 352.288 395.824 352.288 395.824C352.288 395.824 334.688 381.184 321.424 390.736C308.16 400.288 316.032 404.096 305.04 404.096C294.048 404.096 280.752 404.096 278.816 410.496C276.88 416.896 441.664 418.736 441.664 410.496C441.664 402.256 433.392 404.096 428.304 404.096C423.216 404.096 426.4 392 405.408 400.272Z" fill="#F5F5F5"/>
<path d="M261.648 148.8C275.888 154.416 264.096 105.072 305.536 106.128C346.976 107.184 350.704 141.328 350.704 141.328C350.704 141.328 380.064 116.8 402.448 132.8C424.832 148.8 411.488 155.2 429.904 155.2C448.32 155.2 470.624 155.2 473.872 165.824C477.12 176.448 200.848 179.648 200.848 165.824C200.848 152 214.72 155.2 223.248 155.2C231.776 155.2 226.448 134.928 261.648 148.8Z" fill="#F0F0F0"/>
<path d="M127.616 325.376C136.112 328.72 129.088 299.28 153.792 299.92C178.496 300.56 180.8 320.912 180.8 320.912C180.8 320.912 198.304 306.288 211.664 315.824C225.024 325.36 217.056 329.184 228.032 329.184C239.008 329.184 252.336 329.184 254.256 335.584C256.176 341.984 91.4238 343.824 91.4238 335.584C91.4238 327.344 99.6958 329.184 104.784 329.184C109.872 329.184 106.624 317.104 127.616 325.376Z" fill="#F0F0F0"/>
<path d="M687.232 289.6C678.736 292.944 685.76 263.52 661.056 264.16C636.352 264.8 634.112 285.152 634.112 285.152C634.112 285.152 616.608 270.48 603.2 280C589.792 289.52 597.808 293.36 586.832 293.36C575.856 293.36 562.528 293.36 560.608 299.76C558.688 306.16 723.44 308 723.44 299.76C723.44 291.52 715.168 293.36 710.08 293.36C704.992 293.36 708.224 281.296 687.232 289.6Z" fill="#F5F5F5"/>
<path d="M540.8 595.904L503.216 536.464C502.368 535.136 502.992 532.768 504.176 532.768H538.464C526.731 514.187 514.997 495.605 503.264 477.024C502.416 475.696 503.04 473.328 504.224 473.328H538.512C526.779 454.757 515.045 436.176 503.312 417.584C502.464 416.256 503.088 413.888 504.272 413.888H538.56C526.827 395.307 515.093 376.725 503.36 358.144C502.512 356.816 503.136 354.448 504.32 354.448H538.608C526.875 335.867 515.141 317.285 503.408 298.704C502.56 297.392 503.184 295.024 504.368 295.024H538.656L503.456 239.264C502.608 237.952 503.232 235.584 504.416 235.584H538.704L503.504 179.84C502.256 177.856 504.192 174.8 505.44 176.768L543.008 236.208C543.209 236.553 543.334 236.937 543.376 237.334C543.417 237.731 543.374 238.133 543.248 238.512C543.072 239.232 542.688 239.792 542.08 239.824H507.408L542.608 295.568C542.809 295.913 542.934 296.297 542.976 296.694C543.017 297.091 542.974 297.493 542.848 297.872C542.672 298.592 542.288 299.152 541.68 299.184H507.408L542.608 354.928C542.809 355.273 542.934 355.657 542.976 356.054C543.017 356.451 542.974 356.853 542.848 357.232C542.672 357.952 542.288 358.512 541.68 358.544H507.408L542.608 414.288C542.81 414.633 542.936 415.017 542.977 415.414C543.019 415.811 542.975 416.213 542.848 416.592C542.672 417.312 542.288 417.872 541.68 417.904H507.408L542.608 473.648C542.81 473.993 542.936 474.377 542.977 474.774C543.019 475.171 542.975 475.573 542.848 475.952C542.672 476.656 542.288 477.232 541.68 477.264H507.408L542.608 533.008C542.81 533.353 542.936 533.737 542.977 534.134C543.019 534.531 542.975 534.933 542.848 535.312C542.672 536.016 542.288 536.592 541.68 536.624H507.408L542.608 592.368C543.888 594.816 541.968 597.872 540.8 595.904Z" fill="#E0E0E0"/>
<path d="M541.68 597.616C541.97 597.609 542.253 597.524 542.498 597.369C542.743 597.214 542.941 596.995 543.072 596.736C543.075 596.699 543.075 596.661 543.072 596.624C543.463 595.962 543.652 595.2 543.616 594.432V178.432C543.616 176.672 542.672 175.232 541.568 175.232H504.096C502.992 175.232 502.048 176.72 502.048 178.432V594.432C502.048 596.192 502.992 597.632 504.096 597.632L541.68 597.616ZM539.632 591.12H506.144V181.52H539.632V591.12Z" fill="#E0E0E0"/>
<path d="M505.072 595.904L542.64 536.464C543.488 535.136 542.864 532.768 541.68 532.768H507.408L542.608 477.024C543.456 475.696 542.832 473.328 541.648 473.328H507.408L542.608 417.584C543.456 416.256 542.832 413.888 541.648 413.888H507.408L542.608 358.144C543.456 356.816 542.832 354.448 541.648 354.448H507.408L542.608 298.704C543.456 297.392 542.832 295.024 541.648 295.024H507.408L542.608 239.264C543.456 237.952 542.832 235.584 541.648 235.584H507.408L542.608 179.84C543.856 177.856 541.936 174.8 540.688 176.768L503.104 236.208C502.908 236.555 502.787 236.94 502.749 237.336C502.71 237.733 502.755 238.134 502.88 238.512C503.04 239.232 503.424 239.792 504.032 239.824H538.384C526.651 258.405 514.917 276.987 503.184 295.568C502.988 295.915 502.867 296.3 502.829 296.696C502.79 297.093 502.835 297.493 502.96 297.872C503.12 298.592 503.504 299.152 504.112 299.184H538.464C526.731 317.755 514.997 336.336 503.264 354.928C503.068 355.275 502.947 355.66 502.909 356.056C502.87 356.453 502.915 356.854 503.04 357.232C503.2 357.952 503.584 358.512 504.192 358.544H538.544C526.811 377.115 515.077 395.696 503.344 414.288C503.149 414.635 503.028 415.019 502.986 415.415C502.945 415.811 502.985 416.212 503.104 416.592C503.28 417.312 503.664 417.872 504.272 417.904H538.624C526.891 436.485 515.157 455.067 503.424 473.648C503.229 473.996 503.108 474.379 503.066 474.775C503.025 475.171 503.065 475.572 503.184 475.952C503.36 476.656 503.744 477.232 504.352 477.264H538.704C526.971 495.835 515.237 514.416 503.504 533.008C503.308 533.355 503.187 533.74 503.149 534.136C503.11 534.533 503.155 534.934 503.28 535.312C503.44 536.016 503.824 536.592 504.432 536.624H538.784C527.051 555.205 515.317 573.787 503.584 592.368C501.888 594.816 503.824 597.872 505.072 595.904Z" fill="#F0F0F0"/>
<path d="M541.68 597.616C542.784 597.616 543.728 596.128 543.728 594.416V178.416C543.728 176.656 542.8 175.216 541.68 175.216H504.096C502.992 175.216 502.048 176.704 502.048 178.416V594.416C502.019 595.183 502.208 595.943 502.592 596.608C502.589 596.645 502.589 596.683 502.592 596.72C502.722 596.979 502.921 597.198 503.166 597.353C503.411 597.508 503.694 597.593 503.984 597.6L541.68 597.616ZM506.144 453.696V181.552H539.632V591.152H506.144V453.696Z" fill="#F0F0F0"/>
<path d="M554.304 599.28H336.752V611.84H554.304V599.28Z" fill="#E0E0E0"/>
<path d="M554.288 593.344H327.616V600.752H554.288V593.344Z" fill="#E6E6E6"/>
<path d="M400 677.936C571.332 677.936 710.224 669.827 710.224 659.824C710.224 649.821 571.332 641.712 400 641.712C228.668 641.712 89.7759 649.821 89.7759 659.824C89.7759 669.827 228.668 677.936 400 677.936Z" fill="#F5F5F5"/>
<path d="M413.6 544.72L422.592 585.984L413.6 565.36L417.024 615.392L406.192 569.6V640.816L397.824 576.384L389.504 634.032L389.36 568.464L381.728 612V566.208L367.888 595.6L381.728 544.72H413.6Z" fill="#1B44DD"/>
<path opacity="0.5" d="M388.144 544.72L381.728 581.296V566.208V544.72H388.144Z" fill="white"/>
<path opacity="0.8" d="M389.504 603.344L389.376 544.72H406.192V569.6V610.112L397.824 545.68L389.504 603.344Z" fill="white"/>
<path opacity="0.3" d="M407.568 544.72H413.6L414.608 549.344L416.096 571.088L413.6 565.36L414.064 572.128L407.568 544.72Z" fill="white"/>
<path d="M447.12 536.976L442.272 559.168L447.12 548.08L445.264 574.976L451.104 550.352V588.656L455.6 554L460.064 585.008L460.144 549.744L464.256 573.152V548.528L471.696 564.336L464.256 536.976H447.12Z" fill="#1B44DD"/>
<path opacity="0.5" d="M460.8 536.976L464.256 556.64V548.528V536.976H460.8Z" fill="white"/>
<path opacity="0.2" d="M460.064 568.496L460.128 536.976H451.104V550.352V572.144L455.6 537.488L460.064 568.496Z" fill="white"/>
<path opacity="0.3" d="M450.352 536.976H447.12L446.576 539.472L445.776 551.168L447.12 548.08L446.864 551.712L450.352 536.976Z" fill="white"/>
<path d="M328.464 536.976L323.632 559.168L328.464 548.08L326.624 574.976L332.448 550.352V588.656L336.944 554L341.408 585.008L341.488 549.744L345.6 573.152V548.528L353.04 564.336L345.6 536.976H328.464Z" fill="#1B44DD"/>
<path opacity="0.5" d="M342.144 536.976L345.6 556.64V548.528V536.976H342.144Z" fill="white"/>
<path opacity="0.2" d="M341.408 568.496L341.488 536.976H332.448V550.352V572.144L336.944 537.488L341.408 568.496Z" fill="white"/>
<path opacity="0.3" d="M331.696 536.976H328.464L327.92 539.472L327.12 551.168L328.464 548.08L328.208 551.712L331.696 536.976Z" fill="white"/>
<path d="M499.2 504.736L399.472 327.424C399.12 326.805 398.61 326.291 397.995 325.933C397.379 325.575 396.68 325.387 395.968 325.387C395.256 325.387 394.557 325.575 393.942 325.933C393.326 326.291 392.816 326.805 392.464 327.424L292.688 504.736C292.346 505.348 292.169 506.04 292.175 506.742C292.182 507.443 292.372 508.131 292.726 508.737C293.079 509.343 293.585 509.847 294.193 510.197C294.801 510.548 295.49 510.733 296.192 510.736H495.728C496.427 510.728 497.112 510.538 497.716 510.185C498.319 509.832 498.821 509.329 499.171 508.724C499.521 508.119 499.708 507.433 499.713 506.734C499.718 506.035 499.542 505.346 499.2 504.736Z" fill="#1B44DD"/>
<path opacity="0.3" d="M499.2 504.736L399.472 327.424C399.12 326.805 398.61 326.291 397.995 325.933C397.379 325.575 396.68 325.387 395.968 325.387C395.256 325.387 394.557 325.575 393.942 325.933C393.326 326.291 392.816 326.805 392.464 327.424L292.688 504.736C292.346 505.348 292.169 506.04 292.175 506.742C292.182 507.443 292.372 508.131 292.726 508.737C293.079 509.343 293.585 509.847 294.193 510.197C294.801 510.548 295.49 510.733 296.192 510.736H495.728C496.427 510.728 497.112 510.538 497.716 510.185C498.319 509.832 498.821 509.329 499.171 508.724C499.521 508.119 499.708 507.433 499.713 506.734C499.718 506.035 499.542 505.346 499.2 504.736Z" fill="black"/>
<path d="M443.408 537.232L448.208 517.344H465.664L470.464 537.232C461.801 540.815 452.071 540.815 443.408 537.232Z" fill="#263238"/>
<path opacity="0.2" d="M465.728 517.344C465.728 517.344 466.448 520.32 466.848 522C460.405 523.872 453.563 523.872 447.12 522L448.256 517.344H465.728Z" fill="white"/>
<path opacity="0.4" d="M468.064 526.992C468.384 528.256 468.688 529.52 468.976 530.72C461.162 533.156 452.791 533.156 444.976 530.72L445.888 526.992C453.209 528.442 460.743 528.442 468.064 526.992Z" fill="white"/>
<path d="M438.544 515.936C444.388 518.368 450.655 519.619 456.984 519.619C463.313 519.619 469.58 518.368 475.424 515.936V368.224C475.437 359.954 473.815 351.762 470.652 344.121C467.489 336.479 462.846 329.538 456.992 323.696C451.133 329.535 446.486 336.475 443.32 344.117C440.154 351.759 438.531 359.952 438.544 368.224V515.936Z" fill="#1B44DD"/>
<path d="M475.424 368.224V507.424C463.48 511.569 450.488 511.569 438.544 507.424V368.224C438.531 359.952 440.154 351.759 443.32 344.117C446.486 336.475 451.133 329.535 456.992 323.696C462.846 329.538 467.489 336.479 470.652 344.121C473.815 351.762 475.437 359.954 475.424 368.224Z" fill="#1B44DD"/>
<path opacity="0.4" d="M475.424 368.224V507.424C463.48 511.569 450.488 511.569 438.544 507.424V368.224C438.531 359.952 440.154 351.759 443.32 344.117C446.486 336.475 451.133 329.535 456.992 323.696C462.846 329.538 467.489 336.479 470.652 344.121C473.815 351.762 475.437 359.954 475.424 368.224Z" fill="white"/>
<path d="M475.424 368.224V472.8C463.371 476.239 450.597 476.239 438.544 472.8V368.224C438.531 359.952 440.154 351.759 443.32 344.117C446.486 336.475 451.133 329.535 456.992 323.696C462.846 329.538 467.489 336.479 470.652 344.121C473.815 351.762 475.437 359.954 475.424 368.224Z" fill="#1B44DD"/>
<path opacity="0.6" d="M475.424 368.224V472.8C463.371 476.239 450.597 476.239 438.544 472.8V368.224C438.531 359.952 440.154 351.759 443.32 344.117C446.486 336.475 451.133 329.535 456.992 323.696C462.846 329.538 467.489 336.479 470.652 344.121C473.815 351.762 475.437 359.954 475.424 368.224Z" fill="white"/>
<path d="M475.424 368.224V422.976C463.373 426.425 450.595 426.425 438.544 422.976V368.224C438.531 359.952 440.154 351.759 443.32 344.117C446.486 336.475 451.133 329.535 456.992 323.696C462.846 329.538 467.489 336.479 470.652 344.121C473.815 351.762 475.437 359.954 475.424 368.224Z" fill="#1B44DD"/>
<path opacity="0.8" d="M475.424 368.224V422.976C463.373 426.425 450.595 426.425 438.544 422.976V368.224C438.531 359.952 440.154 351.759 443.32 344.117C446.486 336.475 451.133 329.535 456.992 323.696C462.846 329.538 467.489 336.479 470.652 344.121C473.815 351.762 475.437 359.954 475.424 368.224Z" fill="white"/>
<path d="M475.424 368.224V374.624C463.374 378.08 450.594 378.08 438.544 374.624V368.224C438.531 359.952 440.154 351.759 443.32 344.117C446.486 336.475 451.133 329.535 456.992 323.696C462.846 329.538 467.489 336.479 470.652 344.121C473.815 351.762 475.437 359.954 475.424 368.224Z" fill="#1B44DD"/>
<path opacity="0.4" d="M475.424 368.224V374.624C463.374 378.08 450.594 378.08 438.544 374.624V368.224C438.531 359.952 440.154 351.759 443.32 344.117C446.486 336.475 451.133 329.535 456.992 323.696C462.846 329.538 467.489 336.479 470.652 344.121C473.815 351.762 475.437 359.954 475.424 368.224Z" fill="white"/>
<path d="M324.8 537.232L329.6 517.344H347.072L351.872 537.232C343.203 540.814 333.468 540.814 324.8 537.232Z" fill="#263238"/>
<path opacity="0.2" d="M347.072 517.344C347.072 517.344 347.792 520.32 348.208 522C341.76 523.872 334.912 523.872 328.464 522L329.6 517.344H347.072Z" fill="white"/>
<path opacity="0.4" d="M349.424 526.992C349.728 528.256 350.032 529.52 350.336 530.72C342.521 533.152 334.151 533.152 326.336 530.72L327.248 526.992C334.569 528.44 342.103 528.44 349.424 526.992Z" fill="white"/>
<path d="M319.888 515.936C325.735 518.365 332.005 519.615 338.336 519.615C344.668 519.615 350.937 518.365 356.784 515.936V368.224C356.794 359.953 355.169 351.761 352.003 344.119C348.837 336.478 344.193 329.537 338.336 323.696C332.48 329.537 327.835 336.478 324.669 344.119C321.503 351.761 319.878 359.953 319.888 368.224V515.936Z" fill="#1B44DD"/>
<path d="M356.8 368.224V507.424C344.85 511.569 331.853 511.569 319.904 507.424V368.224C319.894 359.953 321.519 351.761 324.685 344.119C327.851 336.478 332.495 329.537 338.352 323.696C344.208 329.537 348.853 336.478 352.019 344.119C355.185 351.761 356.81 359.953 356.8 368.224Z" fill="#1B44DD"/>
<path opacity="0.4" d="M356.8 368.224V507.424C344.85 511.569 331.853 511.569 319.904 507.424V368.224C319.894 359.953 321.519 351.761 324.685 344.119C327.851 336.478 332.495 329.537 338.352 323.696C344.208 329.537 348.853 336.478 352.019 344.119C355.185 351.761 356.81 359.953 356.8 368.224Z" fill="white"/>
<path d="M356.8 368.224V472.8C344.742 476.242 331.962 476.242 319.904 472.8V368.224C319.894 359.953 321.519 351.761 324.685 344.119C327.851 336.478 332.495 329.537 338.352 323.696C344.208 329.537 348.853 336.478 352.019 344.119C355.185 351.761 356.81 359.953 356.8 368.224Z" fill="#1B44DD"/>
<path opacity="0.6" d="M356.8 368.224V472.8C344.742 476.242 331.962 476.242 319.904 472.8V368.224C319.894 359.953 321.519 351.761 324.685 344.119C327.851 336.478 332.495 329.537 338.352 323.696C344.208 329.537 348.853 336.478 352.019 344.119C355.185 351.761 356.81 359.953 356.8 368.224Z" fill="white"/>
<path d="M356.8 368.224V422.976C344.743 426.424 331.961 426.424 319.904 422.976V368.224C319.894 359.953 321.519 351.761 324.685 344.119C327.851 336.478 332.495 329.537 338.352 323.696C344.208 329.537 348.853 336.478 352.019 344.119C355.185 351.761 356.81 359.953 356.8 368.224Z" fill="#1B44DD"/>
<path opacity="0.8" d="M356.8 368.224V422.976C344.743 426.424 331.961 426.424 319.904 422.976V368.224C319.894 359.953 321.519 351.761 324.685 344.119C327.851 336.478 332.495 329.537 338.352 323.696C344.208 329.537 348.853 336.478 352.019 344.119C355.185 351.761 356.81 359.953 356.8 368.224Z" fill="white"/>
<path d="M356.8 368.224V374.624C344.744 378.08 331.96 378.08 319.904 374.624V368.224C319.894 359.953 321.519 351.761 324.685 344.119C327.851 336.478 332.495 329.537 338.352 323.696C344.208 329.537 348.853 336.478 352.019 344.119C355.185 351.761 356.81 359.953 356.8 368.224Z" fill="#1B44DD"/>
<path opacity="0.4" d="M356.8 368.224V374.624C344.744 378.08 331.96 378.08 319.904 374.624V368.224C319.894 359.953 321.519 351.761 324.685 344.119C327.851 336.478 332.495 329.537 338.352 323.696C344.208 329.537 348.853 336.478 352.019 344.119C355.185 351.761 356.81 359.953 356.8 368.224Z" fill="white"/>
<path d="M375.744 548.64L383.568 516.544H411.76L419.584 548.64C412.638 551.532 405.188 553.021 397.664 553.021C390.14 553.021 382.69 551.532 375.744 548.64Z" fill="#263238"/>
<path opacity="0.2" d="M411.76 516.544L413.584 524.064C403.181 527.088 392.131 527.088 381.728 524.064L383.568 516.544H411.76Z" fill="white"/>
<path opacity="0.4" d="M415.552 532.128L417.024 538.16C404.415 542.081 390.913 542.081 378.304 538.16L379.76 532.144C391.578 534.467 403.736 534.462 415.552 532.128Z" fill="white"/>
<path d="M367.888 514.272C377.325 518.194 387.444 520.213 397.664 520.213C407.884 520.213 418.003 518.194 427.44 514.272V275.872C427.457 262.519 424.835 249.294 419.725 236.957C414.615 224.62 407.118 213.415 397.664 203.984C388.21 213.415 380.713 224.62 375.603 236.957C370.493 249.294 367.871 262.519 367.888 275.872V514.272Z" fill="#1B44DD"/>
<path d="M427.44 275.808V500.608C408.152 507.289 387.177 507.289 367.888 500.608V275.808C367.871 262.455 370.493 249.23 375.603 236.893C380.713 224.556 388.21 213.351 397.664 203.92C407.118 213.351 414.615 224.556 419.725 236.893C424.835 249.23 427.457 262.455 427.44 275.808Z" fill="#1B44DD"/>
<path opacity="0.4" d="M427.44 275.808V500.608C408.152 507.289 387.177 507.289 367.888 500.608V275.808C367.871 262.455 370.493 249.23 375.603 236.893C380.713 224.556 388.21 213.351 397.664 203.92C407.118 213.351 414.615 224.556 419.725 236.893C424.835 249.23 427.457 262.455 427.44 275.808Z" fill="white"/>
<path d="M427.44 275.808V444.624C407.98 450.193 387.348 450.193 367.888 444.624V275.808C367.871 262.455 370.493 249.23 375.603 236.893C380.713 224.556 388.21 213.351 397.664 203.92C407.118 213.351 414.615 224.556 419.725 236.893C424.835 249.23 427.457 262.455 427.44 275.808Z" fill="#1B44DD"/>
<path opacity="0.6" d="M427.44 275.808V444.624C407.98 450.193 387.348 450.193 367.888 444.624V275.808C367.871 262.455 370.493 249.23 375.603 236.893C380.713 224.556 388.21 213.351 397.664 203.92C407.118 213.351 414.615 224.556 419.725 236.893C424.835 249.23 427.457 262.455 427.44 275.808Z" fill="white"/>
<path d="M427.44 275.808V364.208C407.98 369.777 387.348 369.777 367.888 364.208V275.808C367.871 262.455 370.493 249.23 375.603 236.893C380.713 224.556 388.21 213.351 397.664 203.92C407.118 213.351 414.615 224.556 419.725 236.893C424.835 249.23 427.457 262.455 427.44 275.808Z" fill="#1B44DD"/>
<path opacity="0.8" d="M427.44 275.808V364.208C407.98 369.777 387.348 369.777 367.888 364.208V275.808C367.871 262.455 370.493 249.23 375.603 236.893C380.713 224.556 388.21 213.351 397.664 203.92C407.118 213.351 414.615 224.556 419.725 236.893C424.835 249.23 427.457 262.455 427.44 275.808Z" fill="white"/>
<path d="M427.44 275.808V286.128C407.979 291.688 387.35 291.688 367.888 286.128V275.808C367.871 262.455 370.493 249.23 375.603 236.893C380.713 224.556 388.21 213.351 397.664 203.92C407.118 213.351 414.615 224.556 419.725 236.893C424.835 249.23 427.457 262.455 427.44 275.808Z" fill="#1B44DD"/>
<path opacity="0.1" d="M427.44 275.808V286.128C407.979 291.688 387.35 291.688 367.888 286.128V275.808C367.871 262.455 370.493 249.23 375.603 236.893C380.713 224.556 388.21 213.351 397.664 203.92C407.118 213.351 414.615 224.556 419.725 236.893C424.835 249.23 427.457 262.455 427.44 275.808Z" fill="white"/>
<path d="M397.664 340.864C407.243 340.864 415.008 333.099 415.008 323.52C415.008 313.941 407.243 306.176 397.664 306.176C388.085 306.176 380.32 313.941 380.32 323.52C380.32 333.099 388.085 340.864 397.664 340.864Z" fill="#1B44DD"/>
<path d="M397.664 340.8C402.03 340.801 406.236 339.153 409.44 336.187C412.643 333.22 414.609 329.153 414.944 324.8C414.944 325.232 414.944 325.68 414.944 326.112C414.944 330.712 413.117 335.123 409.864 338.376C406.611 341.629 402.2 343.456 397.6 343.456C393 343.456 388.588 341.629 385.336 338.376C382.083 335.123 380.256 330.712 380.256 326.112C380.256 325.68 380.256 325.232 380.256 324.8C380.592 329.176 382.576 333.261 385.807 336.23C389.038 339.2 393.275 340.833 397.664 340.8Z" fill="#1B44DD"/>
<path opacity="0.3" d="M397.664 340.8C402.03 340.801 406.236 339.153 409.44 336.187C412.643 333.22 414.609 329.153 414.944 324.8C414.944 325.232 414.944 325.68 414.944 326.112C414.944 330.712 413.117 335.123 409.864 338.376C406.611 341.629 402.2 343.456 397.6 343.456C393 343.456 388.588 341.629 385.336 338.376C382.083 335.123 380.256 330.712 380.256 326.112C380.256 325.68 380.256 325.232 380.256 324.8C380.592 329.176 382.576 333.261 385.807 336.23C389.038 339.2 393.275 340.833 397.664 340.8Z" fill="black"/>
<path d="M397.664 335.776C404.433 335.776 409.92 330.289 409.92 323.52C409.92 316.751 404.433 311.264 397.664 311.264C390.895 311.264 385.408 316.751 385.408 323.52C385.408 330.289 390.895 335.776 397.664 335.776Z" fill="white"/>
<path d="M398.304 335.712L393.28 312.096C394.582 311.588 395.963 311.311 397.36 311.28L402.368 334.832C401.073 335.354 399.699 335.651 398.304 335.712Z" fill="#1B44DD"/>
<path d="M393.728 335.072L389.36 314.528C389.929 314.015 390.539 313.55 391.184 313.136L395.984 335.536C395.218 335.456 394.463 335.3 393.728 335.072Z" fill="#1B44DD"/>
<g opacity="0.7">
<path d="M398.304 335.712L393.28 312.096C394.582 311.588 395.963 311.311 397.36 311.28L402.368 334.832C401.073 335.354 399.699 335.651 398.304 335.712Z" fill="white"/>
<path d="M393.728 335.072L389.36 314.528C389.929 314.015 390.539 313.55 391.184 313.136L395.984 335.536C395.218 335.456 394.463 335.3 393.728 335.072Z" fill="white"/>
</g>
<path d="M376.832 619.824C376.832 619.824 386.432 588.288 369.2 590.096C369.2 590.096 366.8 559.44 347.728 582.192C347.728 582.192 335.136 562.032 330.416 579.696C330.416 579.696 294.672 557.024 296.192 577.104C296.192 577.104 270.752 564.384 268.016 574.656C265.28 584.928 298.704 595.632 298.704 595.632C298.704 595.632 270.256 586.128 269.36 589.856C268.464 593.584 375.248 626.432 376.832 619.824Z" fill="#1B44DD"/>
<path opacity="0.8" d="M376.832 619.824C376.832 619.824 386.432 588.288 369.2 590.096C369.2 590.096 366.8 559.44 347.728 582.192C347.728 582.192 335.136 562.032 330.416 579.696C330.416 579.696 294.672 557.024 296.192 577.104C296.192 577.104 270.752 564.384 268.016 574.656C265.28 584.928 298.704 595.632 298.704 595.632C298.704 595.632 270.256 586.128 269.36 589.856C268.464 593.584 375.248 626.432 376.832 619.824Z" fill="white"/>
<path d="M415.008 620.624C415.008 620.624 403.808 583.984 423.888 586.08C423.888 586.08 426.672 550.464 448.816 576.896C448.816 576.896 463.456 553.472 468.944 574C468.944 574 510.544 547.664 508.72 570.976C508.72 570.976 538.288 556.208 541.456 568.144C544.624 580.08 505.792 592.528 505.792 592.528C505.792 592.528 538.864 581.472 539.904 585.792C540.944 590.112 416.848 628.304 415.008 620.624Z" fill="#1B44DD"/>
<path opacity="0.8" d="M415.008 620.624C415.008 620.624 403.808 583.984 423.888 586.08C423.888 586.08 426.672 550.464 448.816 576.896C448.816 576.896 463.456 553.472 468.944 574C468.944 574 510.544 547.664 508.72 570.976C508.72 570.976 538.288 556.208 541.456 568.144C544.624 580.08 505.792 592.528 505.792 592.528C505.792 592.528 538.864 581.472 539.904 585.792C540.944 590.112 416.848 628.304 415.008 620.624Z" fill="white"/>
<path d="M384.736 648.96C384.736 648.96 375.808 572.592 417.68 597.024C417.68 597.024 426.432 564.048 448.56 583.184C448.56 583.184 483.456 569.424 470.304 609.488C470.304 609.488 503.792 585.568 502.592 622.64C502.592 622.64 543.264 603.44 539.264 630.224C539.264 630.224 564.784 626.24 563.584 637.792C562.384 649.344 495.808 645.376 495.808 645.376C495.808 645.376 524.128 648.176 523.328 651.952C522.912 653.936 485.312 651.392 449.392 649.904C416.56 648.544 385.12 655.808 384.736 648.96Z" fill="#1B44DD"/>
<path opacity="0.7" d="M384.736 648.96C384.736 648.96 375.808 572.592 417.68 597.024C417.68 597.024 426.432 564.048 448.56 583.184C448.56 583.184 483.456 569.424 470.304 609.488C470.304 609.488 503.792 585.568 502.592 622.64C502.592 622.64 543.264 603.44 539.264 630.224C539.264 630.224 564.784 626.24 563.584 637.792C562.384 649.344 495.808 645.376 495.808 645.376C495.808 645.376 524.128 648.176 523.328 651.952C522.912 653.936 485.312 651.392 449.392 649.904C416.56 648.544 385.12 655.808 384.736 648.96Z" fill="white"/>
<path d="M408.832 646.4C408.832 646.4 411.456 601.6 389.216 609.504C389.216 609.504 376.224 569.712 358.288 605.904C358.288 605.904 335.184 583.264 334.592 608.16C334.592 608.16 280.032 589.6 288.464 615.68C288.464 615.68 250.72 606.992 250.4 621.456C250.08 635.92 297.728 639.392 297.728 639.392C297.728 639.392 257.04 635.92 257.04 641.136C257.04 646.352 408.864 655.664 408.832 646.4Z" fill="#1B44DD"/>
<path opacity="0.7" d="M408.832 646.4C408.832 646.4 411.456 601.6 389.216 609.504C389.216 609.504 376.224 569.712 358.288 605.904C358.288 605.904 335.184 583.264 334.592 608.16C334.592 608.16 280.032 589.6 288.464 615.68C288.464 615.68 250.72 606.992 250.4 621.456C250.08 635.92 297.728 639.392 297.728 639.392C297.728 639.392 257.04 635.92 257.04 641.136C257.04 646.352 408.864 655.664 408.832 646.4Z" fill="white"/>
<path d="M437.008 653.648C437.008 653.648 478.928 657.008 477.584 650.96C476.24 644.912 445.312 643.568 445.312 643.568C445.312 643.568 486.24 626.08 472.272 617.12C458.304 608.16 431.904 626.08 431.904 626.08C431.904 626.08 464 601.328 444.416 595.2C424.832 589.072 407.776 613.568 407.776 613.568C407.776 613.568 413.952 594.128 402.304 594.208C390.656 594.288 390.72 613.12 390.72 613.12C390.72 613.12 368.816 589.376 358 601.472C347.184 613.568 368.912 627.92 368.912 627.92C368.912 627.92 336.912 610.16 330.864 624.416C324.816 638.672 360 645.36 360 645.36C360 645.36 324.8 643.008 323.664 648.432C322.528 653.856 409.904 650.112 437.008 653.648Z" fill="#1B44DD"/>
<path opacity="0.9" d="M437.008 653.648C437.008 653.648 478.928 657.008 477.584 650.96C476.24 644.912 445.312 643.568 445.312 643.568C445.312 643.568 486.24 626.08 472.272 617.12C458.304 608.16 431.904 626.08 431.904 626.08C431.904 626.08 464 601.328 444.416 595.2C424.832 589.072 407.776 613.568 407.776 613.568C407.776 613.568 413.952 594.128 402.304 594.208C390.656 594.288 390.72 613.12 390.72 613.12C390.72 613.12 368.816 589.376 358 601.472C347.184 613.568 368.912 627.92 368.912 627.92C368.912 627.92 336.912 610.16 330.864 624.416C324.816 638.672 360 645.36 360 645.36C360 645.36 324.8 643.008 323.664 648.432C322.528 653.856 409.904 650.112 437.008 653.648Z" fill="white"/>
<path d="M659.76 260.384L654.112 260.144L653.712 261.728L655.552 262.512L656.736 265.216L659.76 260.384Z" fill="#1B44DD"/>
<path opacity="0.3" d="M659.76 260.384L654.112 260.144L653.712 261.728L655.552 262.512L656.736 265.216L659.76 260.384Z" fill="black"/>
<path d="M658.496 261.968C658.688 261.04 658.368 260.192 657.76 260.064C657.152 259.936 656.512 260.576 656.32 261.504C656.128 262.432 656.448 263.28 657.056 263.408C657.664 263.536 658.304 262.88 658.496 261.968Z" fill="#263238"/>
<path d="M668.32 250.704C668.32 250.704 661.504 244.032 655.728 248.048C649.952 252.064 663.296 257.296 663.296 257.296L668.32 250.704Z" fill="#263238"/>
<path d="M657.408 263.424L650.8 268.336C651.378 269.11 652.129 269.737 652.993 270.168C653.857 270.598 654.81 270.82 655.776 270.816L657.408 263.424Z" fill="#A02724"/>
<path d="M681.408 302.864C681.408 302.864 674.288 299.968 678.32 286.496C678.32 286.496 672.448 281.44 666.896 284.16C661.344 286.88 666.992 298.56 660.4 300.96C660.4 300.96 664.256 305.6 681.408 302.864Z" fill="#B55B52"/>
<path opacity="0.2" d="M669.36 290.8C667.726 292.214 665.926 293.422 664 294.4C664.128 292.528 664 290.56 664.304 288.8L669.36 290.8Z" fill="black"/>
<path d="M690.16 269.616C686.288 280.896 684.896 285.76 677.488 290.048C666.976 293.6 653.296 289.296 653.728 277.072C654.096 266.08 660.352 249.536 672.928 248C675.682 247.66 678.478 248.031 681.049 249.077C683.619 250.123 685.879 251.81 687.613 253.977C689.347 256.144 690.497 258.719 690.954 261.457C691.411 264.194 691.16 267.003 690.224 269.616H690.16Z" fill="#B55B52"/>
<path d="M665.872 272.72L662.784 269.712C663.735 268.421 664.375 266.927 664.652 265.348C664.93 263.768 664.838 262.146 664.384 260.608C662.896 255.056 657.424 244.464 666.72 239.248C676.016 234.032 681.472 242.944 681.472 242.944C681.472 242.944 690.272 238.72 693.504 246.048C696.736 253.376 694.384 255.904 694.384 255.904C694.384 255.904 701.968 256.72 699.184 266.336C696.4 275.952 693.2 271.136 688.976 279.28C686.504 284.065 682.474 287.863 677.552 290.048C676.828 289.519 675.976 289.194 675.083 289.107C674.191 289.019 673.292 289.173 672.48 289.552C672.48 289.552 674.112 278.608 665.872 272.72Z" fill="#263238"/>
<path d="M660.576 260.128C660.488 260.106 660.406 260.065 660.337 260.007C660.267 259.948 660.212 259.875 660.176 259.792C659.949 259.136 659.568 258.545 659.063 258.069C658.559 257.592 657.947 257.245 657.28 257.056C657.141 257.018 657.021 256.93 656.945 256.809C656.868 256.687 656.839 256.542 656.864 256.4C656.882 256.323 656.916 256.25 656.964 256.187C657.012 256.125 657.072 256.072 657.142 256.035C657.211 255.997 657.288 255.974 657.367 255.968C657.446 255.962 657.525 255.973 657.6 256C658.446 256.232 659.223 256.664 659.867 257.26C660.51 257.856 661 258.598 661.296 259.424C661.325 259.488 661.341 259.557 661.343 259.627C661.345 259.698 661.333 259.768 661.308 259.833C661.282 259.899 661.244 259.959 661.196 260.009C661.147 260.06 661.088 260.1 661.024 260.128C660.954 260.161 660.877 260.178 660.8 260.178C660.722 260.178 660.646 260.161 660.576 260.128Z" fill="#263238"/>
<path d="M670.912 268.352L654.112 260.144C654.112 260.144 651.904 267.392 653.2 267.728C654.496 268.064 656.256 263.088 656.256 263.088L668.8 268.8L670.912 268.352Z" fill="#1B44DD"/>
<path d="M670.912 268.352C670.912 268.352 682.336 275.744 691.104 276L689.792 277.776C689.792 277.776 682.032 277.168 670.272 269.568L670.912 268.352Z" fill="#1B44DD"/>
<path d="M668.704 267.6C667.619 268.127 666.649 268.864 665.85 269.767C665.051 270.671 664.439 271.723 664.048 272.864C663.024 275.936 665.728 277.664 668.704 276.96C671.392 276.336 675.104 273.984 674.88 270.816C674.815 270.126 674.579 269.464 674.192 268.889C673.806 268.315 673.282 267.846 672.667 267.526C672.053 267.206 671.369 267.045 670.676 267.058C669.984 267.071 669.305 267.257 668.704 267.6Z" fill="#B55B52"/>
<path d="M672.624 459.872L668.592 504.736L671.28 613.76H645.712L639.872 502.496V456.736L672.624 459.872Z" fill="#263238"/>
<path d="M666.336 613.072L666.736 635.312L655.04 634.608L653.6 614.464L666.336 613.072Z" fill="#B55B52"/>
<path d="M652.927 633.2L667.695 632.928C667.965 632.924 668.227 633.013 668.44 633.179C668.652 633.344 668.802 633.578 668.864 633.84L671.759 645.808C671.881 646.317 671.798 646.853 671.529 647.302C671.26 647.751 670.826 648.076 670.32 648.208H669.903C664.575 648.208 659.839 648.016 653.199 648.208C645.375 648.352 647.391 649.248 638.191 649.536C632.655 649.712 631.52 643.44 633.872 643.136C644.592 641.536 645.647 638.336 649.727 634.4C650.606 633.613 651.748 633.185 652.927 633.2Z" fill="#263238"/>
<path opacity="0.2" d="M666.4 616.576L666.544 624.912L654.368 625.296L653.888 618.608L666.4 616.576Z" fill="black"/>
<path d="M673.216 611.872L672.464 621.536L646.192 622.56L644.4 612.592L673.216 611.872Z" fill="#1B44DD"/>
<path d="M701.792 467.952L703.136 500.704L720.176 611.056L697.296 613.76L675.312 502.496L672.624 453.584L698.64 456.736L701.792 467.952Z" fill="#263238"/>
<path d="M715.792 608.224L718.96 630.224L707.264 630.992L703.312 611.2L715.792 608.224Z" fill="#B55B52"/>
<path d="M704.992 629.872L719.616 627.76C719.883 627.721 720.155 627.774 720.388 627.91C720.621 628.047 720.8 628.26 720.896 628.512L725.248 640.016C725.343 640.258 725.39 640.516 725.386 640.775C725.381 641.035 725.325 641.291 725.221 641.529C725.117 641.767 724.967 641.982 724.779 642.162C724.591 642.342 724.37 642.482 724.128 642.576C723.994 642.628 723.854 642.666 723.712 642.688C718.432 643.36 713.712 643.744 707.152 644.704C699.408 645.824 701.504 646.464 692.416 647.904C686.944 648.768 685.04 642.672 687.312 642.032C697.776 639.168 698.416 635.792 701.968 631.392C702.751 630.526 703.83 629.984 704.992 629.872Z" fill="#263238"/>
<path opacity="0.2" d="M716.288 611.696L717.472 619.936L705.44 621.84L704.128 615.264L716.288 611.696Z" fill="black"/>
<path d="M722.464 606.16L722.912 615.856L696.992 620.144L693.952 610.496L722.464 606.16Z" fill="#1B44DD"/>
<path opacity="0.5" d="M641.28 529.392L639.872 502.496V472.656H656.24L670.032 488.56L668.592 504.736L669.136 526.816L641.28 529.392Z" fill="black"/>
<path opacity="0.5" d="M703.136 500.704L707.376 528.16L680.032 526.4L675.312 502.496L672.624 453.584L698.64 456.736L702.016 473.76L703.136 500.704Z" fill="black"/>
<path d="M623.376 341.12L613.776 337.744C613.776 337.744 613.552 332.592 606.832 331.024C606.832 331.024 602.56 329.424 599.648 330.8C596.736 332.176 596.448 340.4 600.992 343.808C605.536 347.216 607.504 344.256 613.792 346.048L623.392 350.08L623.376 341.12Z" fill="#B55B52"/>
<path d="M650.096 347.04L620.352 338.96C620.352 338.96 615.424 344.128 616.096 349.952L644.8 363.632L650.096 347.04Z" fill="#1B44DD"/>
<path opacity="0.5" d="M650.096 347.04L620.352 338.96C620.352 338.96 615.424 344.128 616.096 349.952L644.8 363.632L650.096 347.04Z" fill="white"/>
<path d="M609.104 332.512C609.104 332.512 604.208 325.024 602.704 325.984C601.2 326.944 604.304 332.384 604.304 332.384L609.104 332.512Z" fill="#B55B52"/>
<path d="M685.936 303.584L681.808 296.832C681.808 296.832 664.208 294.672 655.888 299.44L650.096 305.504C650.096 305.504 664.368 305.12 685.936 303.584Z" fill="#1B44DD"/>
<path opacity="0.5" d="M685.936 303.584L681.808 296.832C681.808 296.832 664.208 294.672 655.888 299.44L650.096 305.504C650.096 305.504 664.368 305.12 685.936 303.584Z" fill="white"/>
<path d="M711.2 523.808C711.2 523.808 707.792 471.808 703.344 434.32C701.856 421.888 700.56 411.056 699.728 404.24C698.172 388.732 698.172 373.108 699.728 357.6C702.08 333.44 705.744 309.984 693.232 305.056C671.696 296.56 641.632 304.192 637.6 312.72C633.568 321.248 634.016 523.584 634.016 523.584L680.224 521.328L678.624 451.792L687.424 521.328L711.2 523.808Z" fill="#1B44DD"/>
<path opacity="0.8" d="M711.2 523.808C711.2 523.808 707.792 471.808 703.344 434.32C701.856 421.888 700.56 411.056 699.728 404.24C698.172 388.732 698.172 373.108 699.728 357.6C702.08 333.44 705.744 309.984 693.232 305.056C671.696 296.56 641.632 304.192 637.6 312.72C633.568 321.248 634.016 523.584 634.016 523.584L680.224 521.328L678.624 451.792L687.424 521.328L711.2 523.808Z" fill="white"/>
<path d="M633.072 432.96L641.584 435.648L650.096 434.304V427.12L633.072 425.776V432.96Z" fill="#1B44DD"/>
<path opacity="0.7" d="M633.072 432.96L641.584 435.648L650.096 434.304V427.12L633.072 425.776V432.96Z" fill="white"/>
<path opacity="0.1" d="M635.2 353.984L650.752 317.536L656.208 312.272C656.208 312.272 657.104 347.712 634.72 379.76C634.896 370.608 635.056 361.92 635.2 353.984Z" fill="black"/>
<path d="M578.096 350.4H603.024C603.254 350.402 603.482 350.355 603.693 350.261C603.903 350.167 604.091 350.028 604.243 349.855C604.394 349.682 604.507 349.478 604.573 349.257C604.639 349.037 604.656 348.804 604.624 348.576L600.96 313.744C600.928 313.342 600.745 312.967 600.448 312.695C600.152 312.422 599.763 312.271 599.36 312.272H574.4C574.17 312.27 573.941 312.317 573.731 312.411C573.521 312.505 573.333 312.644 573.181 312.817C573.029 312.99 572.917 313.194 572.851 313.415C572.785 313.636 572.768 313.868 572.8 314.096L576.464 348.928C576.497 349.335 576.684 349.715 576.987 349.989C577.291 350.262 577.687 350.41 578.096 350.4Z" fill="#1B44DD"/>
<path opacity="0.5" d="M578.096 350.4H603.024C603.254 350.402 603.482 350.355 603.693 350.261C603.903 350.167 604.091 350.028 604.243 349.855C604.394 349.682 604.507 349.478 604.573 349.257C604.639 349.037 604.656 348.804 604.624 348.576L600.96 313.744C600.928 313.342 600.745 312.967 600.448 312.695C600.152 312.422 599.763 312.271 599.36 312.272H574.4C574.17 312.27 573.941 312.317 573.731 312.411C573.521 312.505 573.333 312.644 573.181 312.817C573.029 312.99 572.917 313.194 572.851 313.415C572.785 313.636 572.768 313.868 572.8 314.096L576.464 348.928C576.497 349.335 576.684 349.715 576.987 349.989C577.291 350.262 577.687 350.41 578.096 350.4Z" fill="white"/>
<path d="M579.312 348.224H601.392C601.596 348.225 601.798 348.183 601.984 348.101C602.171 348.019 602.339 347.899 602.476 347.748C602.613 347.597 602.717 347.419 602.781 347.226C602.845 347.032 602.868 346.827 602.848 346.624L599.648 315.776C599.608 315.417 599.438 315.084 599.17 314.842C598.901 314.601 598.553 314.466 598.192 314.464H576C575.796 314.463 575.594 314.505 575.407 314.587C575.22 314.669 575.053 314.789 574.916 314.94C574.779 315.091 574.674 315.269 574.61 315.463C574.546 315.656 574.524 315.861 574.544 316.064L577.744 346.912C577.784 347.291 577.97 347.64 578.263 347.885C578.555 348.129 578.931 348.251 579.312 348.224Z" fill="#1B44DD"/>
<path opacity="0.9" d="M579.312 348.224H601.392C601.596 348.225 601.798 348.183 601.984 348.101C602.171 348.019 602.339 347.899 602.476 347.748C602.613 347.597 602.717 347.419 602.781 347.226C602.845 347.032 602.868 346.827 602.848 346.624L599.648 315.776C599.608 315.417 599.438 315.084 599.17 314.842C598.901 314.601 598.553 314.466 598.192 314.464H576C575.796 314.463 575.594 314.505 575.407 314.587C575.22 314.669 575.053 314.789 574.916 314.94C574.779 315.091 574.674 315.269 574.61 315.463C574.546 315.656 574.524 315.861 574.544 316.064L577.744 346.912C577.784 347.291 577.97 347.64 578.263 347.885C578.555 348.129 578.931 348.251 579.312 348.224Z" fill="white"/>
<path d="M573.088 312.272H574.4C574.169 312.27 573.941 312.317 573.731 312.411C573.521 312.505 573.333 312.644 573.181 312.817C573.029 312.99 572.917 313.194 572.851 313.415C572.785 313.636 572.768 313.868 572.8 314.096L576.464 348.928C576.496 349.33 576.679 349.705 576.975 349.978C577.272 350.25 577.661 350.401 578.064 350.4H576.704C576.301 350.401 575.912 350.25 575.615 349.978C575.319 349.705 575.136 349.33 575.104 348.928L571.44 314.096C571.407 313.864 571.425 313.627 571.494 313.403C571.562 313.179 571.679 312.972 571.837 312.798C571.994 312.624 572.187 312.487 572.404 312.396C572.62 312.305 572.853 312.263 573.088 312.272Z" fill="#1B44DD"/>
<path opacity="0.3" d="M573.088 312.272H574.4C574.169 312.27 573.941 312.317 573.731 312.411C573.521 312.505 573.333 312.644 573.181 312.817C573.029 312.99 572.917 313.194 572.851 313.415C572.785 313.636 572.768 313.868 572.8 314.096L576.464 348.928C576.496 349.33 576.679 349.705 576.975 349.978C577.272 350.25 577.661 350.401 578.064 350.4H576.704C576.301 350.401 575.912 350.25 575.615 349.978C575.319 349.705 575.136 349.33 575.104 348.928L571.44 314.096C571.407 313.864 571.425 313.627 571.494 313.403C571.562 313.179 571.679 312.972 571.837 312.798C571.994 312.624 572.187 312.487 572.404 312.396C572.62 312.305 572.853 312.263 573.088 312.272Z" fill="white"/>
<path d="M582.224 329.2C582.443 330.999 583.302 332.658 584.645 333.875C585.988 335.092 587.724 335.783 589.536 335.824C590.379 335.841 591.216 335.675 591.99 335.338C592.763 335.001 593.455 334.501 594.017 333.871C594.579 333.242 594.999 332.499 595.247 331.693C595.495 330.887 595.567 330.036 595.456 329.2C595.237 327.403 594.376 325.745 593.033 324.531C591.69 323.317 589.954 322.629 588.144 322.592C587.301 322.573 586.464 322.737 585.691 323.072C584.917 323.407 584.226 323.906 583.663 324.534C583.101 325.162 582.681 325.904 582.432 326.709C582.184 327.515 582.113 328.364 582.224 329.2Z" fill="#1B44DD"/>
<path d="M578.64 329.264C578.466 327.966 578.576 326.647 578.96 325.396C579.345 324.144 579.996 322.991 580.869 322.015C581.741 321.039 582.814 320.264 584.015 319.742C585.216 319.22 586.515 318.964 587.824 318.992C590.6 319.056 593.26 320.119 595.317 321.985C597.374 323.851 598.69 326.395 599.024 329.152C599.183 330.456 599.065 331.779 598.676 333.034C598.287 334.289 597.637 335.447 596.768 336.432C595.889 337.389 594.817 338.149 593.622 338.662C592.428 339.175 591.139 339.429 589.84 339.408C587.066 339.344 584.407 338.284 582.351 336.421C580.294 334.559 578.977 332.018 578.64 329.264ZM581.648 322.656C580.871 323.535 580.29 324.568 579.942 325.688C579.595 326.807 579.489 327.988 579.632 329.152C579.945 331.663 581.15 333.977 583.026 335.675C584.903 337.372 587.326 338.339 589.856 338.4C591.015 338.421 592.165 338.196 593.23 337.738C594.295 337.28 595.25 336.6 596.032 335.744C596.807 334.868 597.387 333.837 597.735 332.72C598.082 331.603 598.189 330.425 598.048 329.264C597.737 326.75 596.534 324.432 594.658 322.732C592.781 321.031 590.355 320.062 587.824 320C586.665 319.982 585.516 320.209 584.451 320.667C583.387 321.124 582.431 321.802 581.648 322.656Z" fill="#1B44DD"/>
<path opacity="0.3" d="M600.048 348.224H594.432L587.264 314.448H592.864L600.048 348.224Z" fill="white"/>
<path opacity="0.3" d="M592.416 348.224H589.616L582.432 314.448H585.232L592.416 348.224Z" fill="white"/>
<path d="M606.592 351.44L601.072 347.888C601.072 347.888 601.536 341.488 600.096 338.976C598.656 336.464 590.896 329.152 588.896 330.384C586.896 331.616 592.096 336.144 592.096 336.144C592.096 336.144 587.296 343.568 588.896 346.944C590.496 350.32 595.632 351.632 595.632 351.632L603.12 358.72L606.592 351.44Z" fill="#B55B52"/>
<path d="M655.872 306.208C655.872 306.208 639.648 303.296 634.72 318.096C629.792 332.896 624.176 355.2 624.176 355.2C624.176 355.2 606.752 347.2 603.696 348.928C603.696 348.928 599.504 353.856 601.296 358.8C601.296 358.8 622.608 372.24 630 371.344C637.392 370.448 651.408 334.784 651.408 334.784C651.408 334.784 663.776 306.656 655.872 306.208Z" fill="#1B44DD"/>
<path opacity="0.7" d="M655.872 306.208C655.872 306.208 639.648 303.296 634.72 318.096C629.792 332.896 624.176 355.2 624.176 355.2C624.176 355.2 606.752 347.2 603.696 348.928C603.696 348.928 599.504 353.856 601.296 358.8C601.296 358.8 622.608 372.24 630 371.344C637.392 370.448 651.408 334.784 651.408 334.784C651.408 334.784 663.776 306.656 655.872 306.208Z" fill="white"/>
</svg>
