<svg viewBox="0 0 800 800" fill="none" xmlns="http://www.w3.org/2000/svg">
<path d="M719.84 637.584H666.848V637.984H719.84V637.584Z" fill="#EBEBEB"/>
<path d="M529.952 641.936H516.048V642.336H529.952V641.936Z" fill="#EBEBEB"/>
<path d="M665.248 622.736H634.544V623.136H665.248V622.736Z" fill="#EBEBEB"/>
<path d="M153.04 625.424H83.936V625.824H153.04V625.424Z" fill="#EBEBEB"/>
<path d="M177.424 625.424H167.296V625.824H177.424V625.424Z" fill="#EBEBEB"/>
<path d="M360.24 632.176H210.352V632.576H360.24V632.176Z" fill="#EBEBEB"/>
<path d="M379.2 540.48H70.272C67.849 540.48 65.5252 539.517 63.8119 537.804C62.0985 536.091 61.136 533.767 61.136 531.344V97.056C61.1571 94.6469 62.1289 92.3436 63.84 90.6475C65.551 88.9515 67.8628 87.9999 70.272 88H379.2C381.623 88 383.947 88.9625 385.66 90.6759C387.373 92.3892 388.336 94.713 388.336 97.136V531.344C388.336 533.767 387.373 536.091 385.66 537.804C383.947 539.517 381.623 540.48 379.2 540.48ZM70.272 88.32C67.9564 88.3242 65.7368 89.246 64.0994 90.8834C62.462 92.5208 61.5402 94.7404 61.536 97.056V531.344C61.5402 533.66 62.462 535.879 64.0994 537.517C65.7368 539.154 67.9564 540.076 70.272 540.08H379.2C381.516 540.076 383.735 539.154 385.373 537.517C387.01 535.879 387.932 533.66 387.936 531.344V97.056C387.932 94.7404 387.01 92.5208 385.373 90.8834C383.735 89.246 381.516 88.3242 379.2 88.32H70.272Z" fill="#EBEBEB"/>
<path d="M725.296 540.48H416.336C413.914 540.476 411.593 539.512 409.881 537.799C408.168 536.087 407.204 533.766 407.2 531.344V97.056C407.225 94.6482 408.199 92.3473 409.909 90.6521C411.619 88.957 413.928 88.0041 416.336 88H725.296C727.7 88.0083 730.003 88.9636 731.708 90.6588C733.412 92.3539 734.379 94.6524 734.4 97.056V531.344C734.4 533.761 733.442 536.08 731.736 537.793C730.029 539.505 727.714 540.472 725.296 540.48ZM416.336 88.32C414.021 88.3242 411.801 89.246 410.164 90.8834C408.526 92.5208 407.604 94.7404 407.6 97.056V531.344C407.604 533.66 408.526 535.879 410.164 537.517C411.801 539.154 414.021 540.076 416.336 540.08H725.296C727.612 540.076 729.831 539.154 731.469 537.517C733.106 535.879 734.028 533.66 734.032 531.344V97.056C734.028 94.7404 733.106 92.5208 731.469 90.8834C729.831 89.246 727.612 88.3242 725.296 88.32H416.336Z" fill="#EBEBEB"/>
<path d="M800 611.84H0V612.24H800V611.84Z" fill="#EBEBEB"/>
<path d="M285.984 229.616L239.36 226.896C237.711 226.799 236.07 227.188 234.64 228.016C219.232 241.36 202.64 232.448 195.296 227.184C192.522 225.169 189.23 223.987 185.808 223.776L133.856 220.8C114.368 219.664 111.264 192.096 130.032 186.768L130.768 186.576C111.392 168.416 158.144 135.248 203.792 187.6C200.96 170.88 243.792 179.344 255.632 202.656C261.184 188.08 300.8 216.176 285.984 229.616Z" fill="#FAFAFA"/>
<path d="M322.4 169.328C328.384 152.288 341.04 130.128 385.952 134.96C430.864 139.792 408.352 166.96 433.952 170.16C459.552 173.36 455.888 160.08 476.72 181.36C497.552 202.64 495.136 184.128 512.864 194.688C530.592 205.248 308.384 209.28 322.4 169.328Z" fill="#F5F5F5"/>
<path d="M582.928 221.328L615.792 220.688L618.528 221.856C625.96 225.014 634.005 226.464 642.072 226.099C650.139 225.733 658.02 223.561 665.136 219.744L692.624 219.216C692.624 219.216 718.224 209.04 714.336 183.44C710.448 157.84 672.096 179.968 672.096 179.968C672.096 179.968 683.2 144 645.76 154.832C608.32 165.664 605.376 201.232 605.376 201.232C605.376 201.232 555.808 193.6 582.928 221.328Z" fill="#F5F5F5"/>
<path d="M343.152 273.504H142.512V614.48H343.152V273.504Z" fill="#E6E6E6"/>
<path d="M181.056 225.856V273.504H196.864H288.816H304.624V225.856H181.056Z" fill="#E6E6E6"/>
<path d="M138.384 273.76H347.312V268.608H138.384V273.76Z" fill="#E0E0E0"/>
<path d="M175.792 225.856L309.872 225.856V220.704L175.792 220.704V225.856Z" fill="#E0E0E0"/>
<path d="M301.328 273.504H100.688V614.48H301.328V273.504Z" fill="#F0F0F0"/>
<path d="M139.216 225.856V273.504H155.04H246.976H262.8V225.856H139.216Z" fill="#F0F0F0"/>
<path d="M139.216 286.128H113.52V311.376H139.216V286.128Z" fill="white"/>
<path d="M188.976 286.128H163.28V311.376H188.976V286.128Z" fill="white"/>
<path d="M238.736 286.128H213.04V311.376H238.736V286.128Z" fill="white"/>
<path d="M288.496 286.128H262.8V311.376H288.496V286.128Z" fill="white"/>
<path d="M139.216 332H113.52V357.248H139.216V332Z" fill="white"/>
<path d="M188.976 332H163.28V357.248H188.976V332Z" fill="white"/>
<path d="M238.736 332H213.04V357.248H238.736V332Z" fill="white"/>
<path d="M288.496 332H262.8V357.248H288.496V332Z" fill="white"/>
<path d="M139.216 377.872H113.52V403.12H139.216V377.872Z" fill="white"/>
<path d="M188.976 377.872H163.28V403.12H188.976V377.872Z" fill="white"/>
<path d="M238.736 377.872H213.04V403.12H238.736V377.872Z" fill="white"/>
<path d="M188.976 246.48H163.28V271.728H188.976V246.48Z" fill="white"/>
<path d="M238.736 246.48H213.04V271.728H238.736V246.48Z" fill="white"/>
<path d="M288.496 377.872H262.8V403.12H288.496V377.872Z" fill="white"/>
<path d="M139.216 423.744H113.52V448.992H139.216V423.744Z" fill="white"/>
<path d="M188.976 423.744H163.28V448.992H188.976V423.744Z" fill="white"/>
<path d="M238.736 423.744H213.04V448.992H238.736V423.744Z" fill="white"/>
<path d="M288.496 423.744H262.8V448.992H288.496V423.744Z" fill="white"/>
<path d="M139.216 469.616H113.52V494.864H139.216V469.616Z" fill="white"/>
<path d="M188.976 469.616H163.28V494.864H188.976V469.616Z" fill="white"/>
<path d="M238.736 469.616H213.04V494.864H238.736V469.616Z" fill="white"/>
<path d="M288.496 469.616H262.8V494.864H288.496V469.616Z" fill="white"/>
<path d="M139.216 515.488H113.52V540.736H139.216V515.488Z" fill="white"/>
<path d="M188.976 515.488H163.28V540.736H188.976V515.488Z" fill="white"/>
<path d="M238.736 515.488H213.04V540.736H238.736V515.488Z" fill="white"/>
<path d="M288.496 515.488H262.8V540.736H288.496V515.488Z" fill="white"/>
<path d="M139.216 561.36H113.52V586.608H139.216V561.36Z" fill="white"/>
<path d="M188.976 561.36H163.28V586.608H188.976V561.36Z" fill="white"/>
<path d="M238.736 561.36H213.04V586.608H238.736V561.36Z" fill="white"/>
<path d="M288.496 561.36H262.8V586.608H288.496V561.36Z" fill="white"/>
<path d="M96.5442 273.76H305.472V268.608H96.5442V273.76Z" fill="#EBEBEB"/>
<path d="M133.968 225.856L268.048 225.856V220.704L133.968 220.704V225.856Z" fill="#EBEBEB"/>
<path d="M438.704 439.648H326.4V613.024H505.632V439.648V362.768L438.704 439.648Z" fill="#F5F5F5"/>
<path d="M539.088 362.768H505.632V613.024H539.088V362.768Z" fill="#E6E6E6"/>
<path d="M361.424 474.784H334.752V501.008H361.424V474.784Z" fill="#E0E0E0"/>
<path opacity="0.3" d="M361.44 474.784H337.728V501.008H361.44V474.784Z" fill="white"/>
<path d="M361.424 518.896H334.752V545.12H361.424V518.896Z" fill="#E0E0E0"/>
<path opacity="0.3" d="M361.44 518.896H337.728V545.12H361.44V518.896Z" fill="white"/>
<path d="M361.424 563.008H334.752V589.232H361.424V563.008Z" fill="#E0E0E0"/>
<path opacity="0.3" d="M361.44 563.008H337.728V589.232H361.44V563.008Z" fill="white"/>
<path opacity="0.2" d="M364.4 563.008H337.728V589.216H364.4V563.008Z" fill="white"/>
<path d="M406.4 474.784H379.728V501.008H406.4V474.784Z" fill="#E0E0E0"/>
<path opacity="0.3" d="M406.4 474.784H382.688V501.008H406.4V474.784Z" fill="white"/>
<path d="M406.4 518.896H379.728V545.12H406.4V518.896Z" fill="#E0E0E0"/>
<path opacity="0.3" d="M406.4 518.896H382.688V545.12H406.4V518.896Z" fill="white"/>
<path d="M406.4 563.008H379.728V589.232H406.4V563.008Z" fill="#E0E0E0"/>
<path opacity="0.3" d="M406.4 563.008H382.688V589.232H406.4V563.008Z" fill="white"/>
<path opacity="0.2" d="M409.36 563.008H382.688V589.216H409.36V563.008Z" fill="white"/>
<path d="M451.36 474.784H424.688V501.008H451.36V474.784Z" fill="#E0E0E0"/>
<path opacity="0.3" d="M451.376 474.784H427.664V501.008H451.376V474.784Z" fill="white"/>
<path d="M451.36 518.896H424.688V545.12H451.36V518.896Z" fill="#E0E0E0"/>
<path opacity="0.3" d="M451.376 518.896H427.664V545.12H451.376V518.896Z" fill="white"/>
<path d="M451.36 563.008H424.688V589.232H451.36V563.008Z" fill="#E0E0E0"/>
<path opacity="0.3" d="M451.376 563.008H427.664V589.232H451.376V563.008Z" fill="white"/>
<path opacity="0.2" d="M454.336 563.008H427.664V589.216H454.336V563.008Z" fill="white"/>
<path d="M496.336 474.784H469.664V501.008H496.336V474.784Z" fill="#E0E0E0"/>
<path opacity="0.3" d="M496.336 474.784H472.624V501.008H496.336V474.784Z" fill="white"/>
<path d="M496.336 518.896H469.664V545.12H496.336V518.896Z" fill="#E0E0E0"/>
<path opacity="0.3" d="M496.336 518.896H472.624V545.12H496.336V518.896Z" fill="white"/>
<path d="M496.336 563.008H469.664V589.232H496.336V563.008Z" fill="#E0E0E0"/>
<path opacity="0.3" d="M496.336 563.008H472.624V589.232H496.336V563.008Z" fill="white"/>
<path opacity="0.2" d="M499.296 563.008H472.624V589.216H499.296V563.008Z" fill="white"/>
<path d="M697.184 327.648H528.4V614.48H697.184V327.648Z" fill="#F0F0F0"/>
<path d="M560.816 287.552V327.648H574.128H651.456H664.768V287.552H560.816Z" fill="#EBEBEB"/>
<path d="M560.816 338.272H539.2V359.504H560.816V338.272Z" fill="#FAFAFA"/>
<path d="M602.672 338.272H581.056V359.504H602.672V338.272Z" fill="#FAFAFA"/>
<path d="M644.528 338.272H622.912V359.504H644.528V338.272Z" fill="#FAFAFA"/>
<path d="M686.384 338.272H664.768V359.504H686.384V338.272Z" fill="#FAFAFA"/>
<path d="M560.816 376.848H539.2V398.08H560.816V376.848Z" fill="#FAFAFA"/>
<path d="M602.672 376.848H581.056V398.08H602.672V376.848Z" fill="#FAFAFA"/>
<path d="M644.528 376.848H622.912V398.08H644.528V376.848Z" fill="#FAFAFA"/>
<path d="M686.384 376.848H664.768V398.08H686.384V376.848Z" fill="#FAFAFA"/>
<path d="M560.816 415.44H539.2V436.672H560.816V415.44Z" fill="#FAFAFA"/>
<path d="M602.672 415.44H581.056V436.672H602.672V415.44Z" fill="#FAFAFA"/>
<path d="M644.528 415.44H622.912V436.672H644.528V415.44Z" fill="#FAFAFA"/>
<path d="M602.672 304.912H581.056V326.144H602.672V304.912Z" fill="#FAFAFA"/>
<path d="M644.528 304.912H622.912V326.144H644.528V304.912Z" fill="#FAFAFA"/>
<path d="M686.384 415.44H664.768V436.672H686.384V415.44Z" fill="#FAFAFA"/>
<path d="M560.816 454.032H539.2V475.264H560.816V454.032Z" fill="#FAFAFA"/>
<path d="M602.672 454.032H581.056V475.264H602.672V454.032Z" fill="#FAFAFA"/>
<path d="M644.528 454.032H622.912V475.264H644.528V454.032Z" fill="#FAFAFA"/>
<path d="M686.384 454.032H664.768V475.264H686.384V454.032Z" fill="#FAFAFA"/>
<path d="M560.816 492.624H539.2V513.856H560.816V492.624Z" fill="#FAFAFA"/>
<path d="M602.672 492.624H581.056V513.856H602.672V492.624Z" fill="#FAFAFA"/>
<path d="M644.528 492.624H622.912V513.856H644.528V492.624Z" fill="#FAFAFA"/>
<path d="M686.384 492.624H664.768V513.856H686.384V492.624Z" fill="#FAFAFA"/>
<path d="M560.816 531.2H539.2V552.432H560.816V531.2Z" fill="#FAFAFA"/>
<path d="M602.672 531.2H581.056V552.432H602.672V531.2Z" fill="#FAFAFA"/>
<path d="M644.528 531.2H622.912V552.432H644.528V531.2Z" fill="#FAFAFA"/>
<path d="M686.384 531.2H664.768V552.432H686.384V531.2Z" fill="#FAFAFA"/>
<path d="M560.816 569.792H539.2V591.024H560.816V569.792Z" fill="#FAFAFA"/>
<path d="M602.672 569.792H581.056V591.024H602.672V569.792Z" fill="#FAFAFA"/>
<path d="M644.528 569.792H622.912V591.024H644.528V569.792Z" fill="#FAFAFA"/>
<path d="M686.384 569.792H664.768V591.024H686.384V569.792Z" fill="#FAFAFA"/>
<path d="M524.912 327.856H700.672V323.52H524.912V327.856Z" fill="#F5F5F5"/>
<path d="M392.288 677.936C563.62 677.936 702.512 669.827 702.512 659.824C702.512 649.821 563.62 641.712 392.288 641.712C220.956 641.712 82.064 649.821 82.064 659.824C82.064 669.827 220.956 677.936 392.288 677.936Z" fill="#F5F5F5"/>
<path d="M562.72 195.2H543.84C545.722 193.956 547.144 192.129 547.888 190C549.007 186.582 549.811 183.069 550.288 179.504C550.682 176.721 550.891 173.915 550.912 171.104C550.884 167.316 550.346 163.549 549.312 159.904H557.12C556.653 161.586 556.295 163.296 556.048 165.024C555.734 167.051 555.579 169.1 555.584 171.152C555.649 177.571 556.668 183.945 558.608 190.064C559.388 192.175 560.831 193.977 562.72 195.2Z" fill="#1B44DD"/>
<path opacity="0.2" d="M557.184 159.792C556.864 161.632 556.496 163.328 556.112 164.912C554.963 170.041 552.997 174.952 550.288 179.456C550.682 176.673 550.89 173.867 550.912 171.056C550.884 167.268 550.346 163.501 549.312 159.856L557.184 159.792Z" fill="black"/>
<path d="M540 137.824L537.6 140.8L536.336 139.328C534.625 137.622 532.348 136.603 529.936 136.464C529.755 136.448 529.573 136.448 529.392 136.464C528.866 136.542 528.36 136.724 527.904 136.999C527.448 137.273 527.051 137.635 526.736 138.064C526.225 138.735 525.855 139.503 525.648 140.32C525.585 140.535 525.537 140.754 525.504 140.976C525.247 142.696 525.434 144.453 526.048 146.08C527.232 149.28 529.648 151.392 532.176 151.392H533.936V155.584H532.176C528.24 155.584 524.576 152.512 522.816 147.76C522.704 147.456 522.592 147.136 522.496 146.816C521.835 144.895 521.635 142.846 521.913 140.833C522.191 138.821 522.939 136.902 524.096 135.232C524.755 134.332 525.611 133.593 526.597 133.072C527.584 132.551 528.677 132.261 529.792 132.224C531.324 132.21 532.841 132.527 534.24 133.152C535.953 133.897 537.494 134.986 538.768 136.352L540 137.824Z" fill="#1B44DD"/>
<path opacity="0.2" d="M534.208 133.232C534.114 133.446 533.99 133.645 533.84 133.824C533.31 134.292 532.697 134.655 532.032 134.896C531.06 135.31 530.146 135.847 529.312 136.496C528.786 136.574 528.28 136.756 527.824 137.031C527.368 137.305 526.971 137.667 526.656 138.096C526.012 138.951 525.589 139.951 525.424 141.008C524.827 142.02 524.339 143.093 523.968 144.208C523.739 145.253 523.177 146.196 522.368 146.896C521.32 143.673 521.514 140.175 522.912 137.088C523.211 136.456 523.582 135.86 524.016 135.312C524.675 134.412 525.531 133.673 526.518 133.152C527.504 132.631 528.597 132.341 529.712 132.304H530.304C531.652 132.365 532.977 132.68 534.208 133.232Z" fill="white"/>
<path opacity="0.3" d="M530.352 132.304C530.352 132.304 530.352 132.4 530.352 132.448C530.017 133.663 529.219 134.697 528.128 135.328C526.816 136.188 525.339 136.765 523.792 137.024C523.52 137.041 523.248 137.041 522.976 137.024C523.275 136.392 523.646 135.796 524.08 135.248C524.739 134.348 525.595 133.609 526.582 133.088C527.568 132.567 528.661 132.277 529.776 132.24L530.352 132.304Z" fill="white"/>
<path opacity="0.2" d="M532.448 151.472C532.147 151.873 531.718 152.16 531.233 152.285C530.747 152.41 530.233 152.366 529.776 152.16C528.637 151.732 527.616 151.04 526.796 150.142C525.976 149.244 525.379 148.165 525.056 146.992C524.489 144.799 524.669 142.479 525.568 140.4C525.505 140.615 525.457 140.834 525.424 141.056C525.167 142.776 525.354 144.533 525.968 146.16C527.152 149.36 529.568 151.472 532.096 151.472H532.448Z" fill="black"/>
<path d="M567.008 137.824L569.472 140.8L570.736 139.328C572.447 137.622 574.724 136.603 577.136 136.464C577.312 136.448 577.489 136.448 577.664 136.464C578.191 136.541 578.698 136.722 579.154 136.996C579.61 137.271 580.006 137.634 580.32 138.064C580.831 138.735 581.201 139.503 581.408 140.32C581.408 140.544 581.52 140.752 581.568 140.976C581.82 142.697 581.627 144.454 581.008 146.08C579.824 149.28 577.408 151.392 574.88 151.392H573.12V155.584H574.88C578.816 155.584 582.496 152.512 584.24 147.76C584.364 147.451 584.471 147.136 584.56 146.816C585.223 144.895 585.423 142.845 585.145 140.833C584.867 138.82 584.119 136.901 582.96 135.232C582.299 134.334 581.443 133.597 580.456 133.077C579.47 132.556 578.379 132.264 577.264 132.224C575.727 132.208 574.204 132.525 572.8 133.152C571.088 133.897 569.546 134.986 568.272 136.352L567.008 137.824Z" fill="#1B44DD"/>
<path opacity="0.2" d="M572.8 133.232C572.894 133.45 573.024 133.65 573.184 133.824C573.706 134.294 574.315 134.659 574.976 134.896C575.948 135.31 576.863 135.847 577.696 136.496C578.223 136.573 578.73 136.753 579.186 137.028C579.642 137.303 580.038 137.666 580.352 138.096C581.001 138.95 581.429 139.95 581.6 141.008C582.186 142.024 582.668 143.096 583.04 144.208C583.282 145.248 583.841 146.188 584.64 146.896C585.689 143.673 585.495 140.175 584.096 137.088C583.797 136.46 583.432 135.864 583.008 135.312C582.347 134.414 581.491 133.677 580.504 133.157C579.518 132.636 578.427 132.344 577.312 132.304H576.704C575.356 132.365 574.032 132.68 572.8 133.232Z" fill="white"/>
<path opacity="0.3" d="M576.656 132.304C576.656 132.304 576.656 132.4 576.656 132.448C576.991 133.663 577.79 134.697 578.88 135.328C580.192 136.188 581.669 136.765 583.216 137.024C583.488 137.04 583.76 137.04 584.032 137.024C583.733 136.396 583.368 135.8 582.944 135.248C582.282 134.35 581.427 133.613 580.44 133.092C579.454 132.572 578.363 132.28 577.248 132.24L576.656 132.304Z" fill="white"/>
<path opacity="0.2" d="M574.56 151.472C574.861 151.873 575.29 152.16 575.775 152.285C576.261 152.41 576.775 152.366 577.232 152.16C578.383 151.739 579.419 151.051 580.253 150.153C581.087 149.255 581.697 148.171 582.032 146.992C582.585 144.796 582.4 142.48 581.504 140.4C581.504 140.624 581.616 140.832 581.664 141.056C581.916 142.777 581.723 144.534 581.104 146.16C579.92 149.36 577.504 151.472 574.976 151.472H574.56Z" fill="black"/>
<path d="M575.392 150.8C575.333 151.386 575.242 151.968 575.12 152.544C574.538 155.835 572.71 158.774 570.016 160.752C563.392 165.2 552.848 166.48 544.24 163.952L543.472 163.728C541.315 163.053 539.275 162.049 537.424 160.752C536.28 159.909 535.29 158.875 534.496 157.696C533.115 155.639 532.273 153.268 532.048 150.8C531.829 148.491 532.13 146.162 532.928 143.984C533.008 143.744 533.104 143.504 533.2 143.264C533.671 142.171 534.255 141.131 534.944 140.16C535.808 138.944 536.816 137.888 537.632 136.688C538.467 135.574 538.891 134.206 538.832 132.816L553.712 134.128L568.576 132.816C568.515 134.209 568.946 135.58 569.792 136.688C570.592 137.888 571.6 138.944 572.464 140.16C573.344 141.388 574.045 142.735 574.544 144.16C575.304 146.286 575.594 148.551 575.392 150.8Z" fill="#1B44DD"/>
<path opacity="0.1" d="M556.624 145.216C548.048 148.88 538.64 146.256 534.752 144.784C534.133 144.545 533.529 144.267 532.944 143.952C532.98 143.838 533.023 143.725 533.072 143.616C533.552 142.378 534.186 141.206 534.96 140.128C535.824 138.912 536.832 137.856 537.648 136.656C538.483 135.542 538.907 134.175 538.848 132.784L553.728 134.096L565.136 133.344C565.44 134.832 565.68 141.36 556.624 145.216Z" fill="white"/>
<path opacity="0.1" d="M575.392 150.8C575.268 152.749 574.723 154.647 573.795 156.365C572.867 158.083 571.578 159.58 570.016 160.752C561.28 166.624 546.016 166.944 537.424 160.752C535.885 159.558 534.612 158.057 533.687 156.343C532.761 154.63 532.203 152.742 532.048 150.8C532.048 150.224 532.048 149.648 532.048 149.088C537.792 155.808 548.928 157.968 557.792 153.504C562.552 151.124 566.171 146.951 567.856 141.904C568.854 138.975 568.993 135.821 568.256 132.816H568.656C568.596 134.209 569.026 135.58 569.872 136.688C570.672 137.888 571.68 138.944 572.544 140.16C574.739 143.251 575.749 147.027 575.392 150.8Z" fill="black"/>
<path opacity="0.1" d="M575.12 152.544C574.538 155.835 572.71 158.774 570.016 160.752C563.184 165.344 552.208 166.56 543.472 163.728C542.368 163.296 541.28 162.8 540.272 162.272C538.069 161.157 536.119 159.599 534.544 157.696C533.163 155.639 532.321 153.268 532.096 150.8C531.881 148.479 532.187 146.139 532.992 143.952C535.548 145.332 538.284 146.35 541.12 146.976C543.266 147.574 545.462 147.975 547.68 148.176C553.6 148.72 565.28 148.896 574.608 144.128C575.358 146.868 575.532 149.733 575.12 152.544Z" fill="black"/>
<path opacity="0.2" d="M575.392 150.8C575.268 152.749 574.723 154.647 573.795 156.365C572.867 158.083 571.578 159.58 570.016 160.752C561.28 166.624 546.016 166.944 537.424 160.752C535.885 159.558 534.612 158.057 533.687 156.343C532.761 154.629 532.203 152.742 532.048 150.8C532.048 150.224 534.864 156.576 534.864 155.936C541.264 163.616 553.376 164.032 562.816 159.712C574.224 154.496 572.256 142.416 569.824 136.704C570.624 137.888 571.632 138.928 572.48 140.128C574.705 143.219 575.739 147.008 575.392 150.8Z" fill="black"/>
<path opacity="0.3" d="M569.072 135.36C550.048 140.768 537.872 133.152 537.76 132.16L553.76 134.032L568.624 132.72C568.52 133.625 568.676 134.54 569.072 135.36Z" fill="black"/>
<path d="M570.24 130.624C570.264 131.52 570.043 132.405 569.6 133.184C561.6 136.08 545.424 135.904 537.84 133.184C537.397 132.405 537.176 131.52 537.2 130.624C539.776 132.352 548.176 132.768 553.728 132.912C559.264 132.8 567.664 132.352 570.24 130.624Z" fill="#1B44DD"/>
<path opacity="0.1" d="M565.2 134.4H565.056C557.311 135.668 549.407 135.614 541.68 134.24C540.377 133.994 539.093 133.651 537.84 133.216C537.397 132.437 537.176 131.552 537.2 130.656C538.8 131.744 542.8 132.256 546.928 132.624C549.296 132.8 551.728 132.88 553.728 132.944C557.386 132.877 561.039 132.626 564.672 132.192H564.8C565.008 132.8 565.152 134.4 565.2 134.4Z" fill="#1B44DD"/>
<path d="M570.24 130.624C570.368 131.888 562.976 132.944 553.728 132.944C544.48 132.944 537.072 131.888 537.2 130.624C537.328 129.36 544.72 128.368 553.728 128.368C562.736 128.368 570.112 129.376 570.24 130.624Z" fill="#1B44DD"/>
<path opacity="0.2" d="M568.608 130.4C568.608 131.344 562.096 132 553.92 132C545.744 132 539.168 131.264 539.232 130.4C539.296 129.536 545.856 128.704 553.92 128.704C561.984 128.704 568.544 129.456 568.608 130.4Z" fill="black"/>
<path opacity="0.3" d="M545.488 139.888C545.307 140.373 544.978 140.789 544.547 141.076C544.116 141.363 543.606 141.507 543.088 141.488C542.702 141.52 542.313 141.468 541.948 141.335C541.584 141.203 541.252 140.993 540.976 140.72C540.736 140.48 540.016 139.296 540.704 138.64L540.784 138.56C541.362 138.25 542.011 138.094 542.667 138.108C543.323 138.122 543.964 138.305 544.528 138.64C545.6 139.2 545.6 139.52 545.488 139.888Z" fill="white"/>
<path opacity="0.3" d="M543.28 138.192C544.48 138.368 544.192 139.952 542.928 139.968C542.768 139.982 542.608 139.982 542.448 139.968C541.2 139.776 541.536 138.208 542.816 138.176C542.971 138.159 543.127 138.164 543.28 138.192Z" fill="white"/>
<path opacity="0.2" d="M546.752 132.8C545.908 133.41 544.942 133.831 543.92 134.032C543.184 134.193 542.433 134.278 541.68 134.288C540.376 134.042 539.093 133.699 537.84 133.264C537.516 132.692 537.31 132.061 537.232 131.408C537.617 131.547 538.023 131.617 538.432 131.616H539.04C539.04 131.712 539.136 131.792 539.328 131.856C539.516 131.915 539.709 131.958 539.904 131.984L541.776 132.32L543.376 132.512L544.752 132.656C545.392 132.624 546.064 132.688 546.752 132.8Z" fill="white"/>
<path opacity="0.2" d="M556 132.944C554.672 134.318 552.869 135.131 550.96 135.216C550 135.307 549.033 135.28 548.08 135.136L547.248 134.992C546.099 134.786 544.981 134.437 543.92 133.952C543.046 133.616 542.297 133.018 541.776 132.24C543.2 132.432 544.88 132.608 546.752 132.72C548.624 132.832 551.232 132.944 553.728 132.944H555.968H556Z" fill="white"/>
<path opacity="0.3" d="M544.768 132.576C544.738 132.721 544.657 132.851 544.54 132.942C544.422 133.033 544.276 133.079 544.128 133.072C544.128 133.072 543.216 133.072 543.392 132.432L544.768 132.576Z" fill="white"/>
<path d="M575.536 197.184H531.456C535.63 194.841 540.334 193.607 545.12 193.6H561.888C566.668 193.6 571.368 194.829 575.536 197.168V197.184Z" fill="#1B44DD"/>
<path opacity="0.3" d="M575.536 197.184H531.456C535.63 194.841 540.334 193.607 545.12 193.6H561.888C566.668 193.6 571.368 194.829 575.536 197.168V197.184Z" fill="white"/>
<g opacity="0.8">
<path d="M554.768 141.168V154.592H552.272V143.248H549.44V141.168H554.768Z" fill="white"/>
</g>
<path d="M584.848 151.392C584.848 151.392 584.096 156.784 582.912 162.88C582.224 166.448 577.008 168.464 573.52 169.456C578.32 169.616 581.712 173.248 583.616 177.04C585.52 180.832 586.112 189.456 586.112 189.456C586.112 189.456 587.024 178.944 589.952 174.72C591.76 172.112 595.904 170.064 598.8 168.816C589.312 168.448 585.936 159.472 584.848 151.392Z" fill="#1B44DD"/>
<path opacity="0.7" d="M584.848 151.392C584.848 151.392 584.096 156.784 582.912 162.88C582.224 166.448 577.008 168.464 573.52 169.456C578.32 169.616 581.712 173.248 583.616 177.04C585.52 180.832 586.112 189.456 586.112 189.456C586.112 189.456 587.024 178.944 589.952 174.72C591.76 172.112 595.904 170.064 598.8 168.816C589.312 168.448 585.936 159.472 584.848 151.392Z" fill="white"/>
<path d="M592.32 115.888C592.32 115.888 591.76 119.936 590.864 124.496C590.352 127.168 586.432 128.688 583.824 129.44C587.424 129.552 589.968 132.272 591.392 135.12C592.816 137.968 593.264 144.432 593.264 144.432C593.264 144.432 593.952 136.544 596.144 133.376C597.504 131.424 600.608 129.888 602.784 128.96C595.664 128.672 593.136 121.952 592.32 115.888Z" fill="#1B44DD"/>
<path opacity="0.7" d="M592.32 115.888C592.32 115.888 591.76 119.936 590.864 124.496C590.352 127.168 586.432 128.688 583.824 129.44C587.424 129.552 589.968 132.272 591.392 135.12C592.816 137.968 593.264 144.432 593.264 144.432C593.264 144.432 593.952 136.544 596.144 133.376C597.504 131.424 600.608 129.888 602.784 128.96C595.664 128.672 593.136 121.952 592.32 115.888Z" fill="white"/>
<path d="M510.976 137.072C510.976 137.072 510.304 141.872 509.264 147.136C508.656 150.336 504.096 152.016 501.04 152.896C505.248 153.04 508.208 156.224 509.888 159.552C511.568 162.88 512.08 170.432 512.08 170.432C512.08 170.432 512.88 161.2 515.44 157.52C517.04 155.232 520.672 153.44 523.2 152.336C514.88 152 512 144.144 510.976 137.072Z" fill="#1B44DD"/>
<path opacity="0.7" d="M510.976 137.072C510.976 137.072 510.304 141.872 509.264 147.136C508.656 150.336 504.096 152.016 501.04 152.896C505.248 153.04 508.208 156.224 509.888 159.552C511.568 162.88 512.08 170.432 512.08 170.432C512.08 170.432 512.88 161.2 515.44 157.52C517.04 155.232 520.672 153.44 523.2 152.336C514.88 152 512 144.144 510.976 137.072Z" fill="white"/>
<path d="M488 124.096C487.871 124.095 487.744 124.062 487.632 124L469.632 114.4C469.531 114.355 469.442 114.29 469.368 114.209C469.294 114.128 469.238 114.033 469.202 113.929C469.167 113.825 469.153 113.715 469.162 113.606C469.171 113.496 469.202 113.39 469.254 113.293C469.305 113.196 469.376 113.111 469.462 113.043C469.548 112.975 469.647 112.925 469.753 112.897C469.859 112.869 469.97 112.863 470.078 112.879C470.187 112.895 470.291 112.934 470.384 112.992L488.384 122.592C488.541 122.677 488.665 122.811 488.736 122.975C488.808 123.138 488.823 123.321 488.779 123.494C488.735 123.667 488.634 123.82 488.493 123.929C488.352 124.038 488.178 124.097 488 124.096Z" fill="#1B44DD"/>
<path d="M500.208 130.544C500.079 130.545 499.952 130.512 499.84 130.448L493.776 127.248C493.67 127.208 493.574 127.146 493.494 127.066C493.414 126.986 493.352 126.89 493.312 126.784C493.272 126.678 493.254 126.565 493.261 126.453C493.268 126.34 493.298 126.23 493.351 126.129C493.403 126.029 493.476 125.941 493.565 125.871C493.654 125.802 493.756 125.751 493.866 125.724C493.976 125.696 494.09 125.693 494.201 125.713C494.313 125.733 494.418 125.776 494.512 125.84L500.592 129.04C500.749 129.125 500.873 129.259 500.944 129.423C501.016 129.586 501.031 129.769 500.987 129.942C500.943 130.115 500.842 130.268 500.701 130.377C500.56 130.486 500.386 130.545 500.208 130.544Z" fill="#1B44DD"/>
<path d="M488 147.872H460.352C460.14 147.872 459.936 147.788 459.786 147.638C459.636 147.488 459.552 147.284 459.552 147.072C459.552 146.86 459.636 146.656 459.786 146.506C459.936 146.356 460.14 146.272 460.352 146.272H488C488.212 146.272 488.415 146.356 488.565 146.506C488.715 146.656 488.8 146.86 488.8 147.072C488.8 147.284 488.715 147.488 488.565 147.638C488.415 147.788 488.212 147.872 488 147.872Z" fill="#1B44DD"/>
<path d="M470.08 181.216C469.932 181.216 469.787 181.176 469.66 181.1C469.533 181.024 469.43 180.914 469.36 180.784C469.264 180.597 469.245 180.38 469.308 180.179C469.371 179.978 469.51 179.811 469.696 179.712L499.312 163.984C499.405 163.926 499.509 163.887 499.617 163.871C499.726 163.855 499.836 163.861 499.942 163.889C500.048 163.917 500.147 163.967 500.233 164.035C500.319 164.103 500.39 164.188 500.442 164.285C500.494 164.382 500.525 164.488 500.534 164.598C500.543 164.707 500.529 164.817 500.493 164.921C500.458 165.024 500.401 165.12 500.328 165.201C500.254 165.282 500.164 165.347 500.064 165.392L470.4 181.12C470.301 181.173 470.192 181.205 470.08 181.216Z" fill="#1B44DD"/>
<path d="M609.712 130.544C609.568 130.544 609.427 130.506 609.303 130.433C609.179 130.359 609.077 130.254 609.008 130.128C608.911 129.939 608.892 129.719 608.955 129.516C609.018 129.312 609.157 129.142 609.344 129.04L639.488 113.04C639.581 112.982 639.685 112.943 639.793 112.927C639.902 112.911 640.012 112.917 640.118 112.945C640.224 112.973 640.323 113.023 640.409 113.091C640.495 113.159 640.566 113.244 640.618 113.341C640.67 113.438 640.701 113.544 640.71 113.654C640.719 113.763 640.705 113.873 640.669 113.977C640.634 114.08 640.578 114.176 640.504 114.257C640.43 114.338 640.34 114.403 640.24 114.448L610.096 130.448C609.977 130.51 609.846 130.543 609.712 130.544Z" fill="#1B44DD"/>
<path d="M649.6 147.872H621.856C621.643 147.872 621.44 147.788 621.29 147.638C621.14 147.488 621.056 147.284 621.056 147.072C621.056 146.86 621.14 146.656 621.29 146.506C621.44 146.356 621.643 146.272 621.856 146.272H649.6C649.812 146.272 650.015 146.356 650.165 146.506C650.315 146.656 650.4 146.86 650.4 147.072C650.4 147.284 650.315 147.488 650.165 147.638C650.015 147.788 649.812 147.872 649.6 147.872Z" fill="#1B44DD"/>
<path d="M627.504 174.64C627.371 174.644 627.24 174.617 627.12 174.56L609.872 165.392C609.772 165.347 609.682 165.282 609.608 165.201C609.534 165.12 609.478 165.024 609.442 164.921C609.407 164.817 609.393 164.707 609.402 164.598C609.411 164.488 609.442 164.382 609.494 164.285C609.545 164.188 609.616 164.103 609.702 164.035C609.788 163.967 609.887 163.917 609.993 163.889C610.099 163.861 610.21 163.855 610.318 163.871C610.427 163.887 610.531 163.926 610.624 163.984L627.872 173.136C627.966 173.185 628.049 173.252 628.117 173.333C628.185 173.414 628.236 173.508 628.267 173.61C628.298 173.711 628.309 173.817 628.299 173.923C628.289 174.028 628.258 174.131 628.208 174.224C628.14 174.351 628.039 174.458 627.914 174.531C627.79 174.604 627.648 174.642 627.504 174.64Z" fill="#1B44DD"/>
<path d="M639.856 181.216C639.727 181.217 639.6 181.184 639.488 181.12L633.936 178.176C633.843 178.126 633.761 178.058 633.695 177.976C633.629 177.894 633.579 177.799 633.55 177.698C633.52 177.597 633.51 177.491 633.522 177.387C633.533 177.282 633.565 177.18 633.616 177.088C633.714 176.902 633.882 176.763 634.083 176.7C634.283 176.637 634.501 176.656 634.688 176.752L640.24 179.712C640.425 179.811 640.565 179.978 640.628 180.179C640.69 180.38 640.672 180.597 640.576 180.784C640.506 180.914 640.402 181.024 640.276 181.1C640.149 181.176 640.004 181.216 639.856 181.216Z" fill="#1B44DD"/>
<path d="M148.336 554.496C149.475 565.286 152.17 575.854 156.336 585.872C171.008 620.416 174.912 625.872 174.912 625.872L169.6 630.016C169.6 630.016 142.08 568.448 145.232 554.064C148.384 539.68 148.336 554.496 148.336 554.496Z" fill="#1B44DD"/>
<path opacity="0.4" d="M148.336 554.496C149.475 565.286 152.17 575.854 156.336 585.872C171.008 620.416 174.912 625.872 174.912 625.872L169.6 630.016C169.6 630.016 142.08 568.448 145.232 554.064C148.384 539.68 148.336 554.496 148.336 554.496Z" fill="black"/>
<path d="M147.776 551.824C144.8 552.832 144.832 553.328 142.784 555.104C142.608 552.448 141.6 549.232 143.632 544.912C144.589 543.192 146.077 541.827 147.874 541.023C149.67 540.218 151.679 540.017 153.6 540.448C153.748 540.477 153.9 540.473 154.047 540.437C154.193 540.401 154.33 540.334 154.448 540.24C154.581 540.138 154.688 540.008 154.762 539.858C154.836 539.708 154.875 539.543 154.875 539.376C154.875 539.209 154.836 539.044 154.762 538.894C154.688 538.744 154.581 538.614 154.448 538.512C153.181 537.678 151.717 537.193 150.203 537.106C148.688 537.019 147.178 537.333 145.824 538.016C147.152 534.624 149.2 530.72 152.224 528.64C155.424 526.352 162.512 527.136 165.248 529.84C165.373 529.947 165.532 530.006 165.696 530.006C165.86 530.006 166.019 529.947 166.144 529.84C166.316 529.723 166.434 529.543 166.473 529.339C166.512 529.135 166.468 528.924 166.352 528.752C165.469 527.427 164.285 526.33 162.896 525.552C162.106 525.074 161.206 524.809 160.283 524.784C159.36 524.759 158.447 524.974 157.632 525.408C158.656 521.088 167.728 517.408 167.6 517.904C170.64 518.528 173.2 521.456 174.32 522.912C174.52 523.167 174.808 523.339 175.128 523.392C175.448 523.445 175.776 523.377 176.048 523.2C176.411 522.986 176.675 522.638 176.783 522.23C176.891 521.823 176.834 521.389 176.624 521.024C175.481 519.143 173.893 517.572 172 516.448C173.088 515.008 175.408 515.072 177.088 515.104C182.432 515.2 185.952 519.424 189.584 522.752C190.697 527.17 190.603 531.806 189.312 536.176C188.299 539.397 186.194 542.164 183.36 544C182.992 540.96 182.464 537.6 182.064 534.4C182.048 534.263 182.005 534.13 181.938 534.01C181.87 533.89 181.78 533.784 181.671 533.699C181.562 533.615 181.438 533.552 181.305 533.516C181.172 533.48 181.033 533.47 180.896 533.488C180.59 533.544 180.313 533.707 180.114 533.946C179.915 534.186 179.807 534.488 179.808 534.8C179.92 538.896 180.528 542.064 180.56 546.272C178.432 548.544 170.96 552.16 171.264 551.504C171.376 547.888 172.32 541.792 171.264 538.384C171.222 538.266 171.154 538.159 171.066 538.07C170.979 537.98 170.872 537.911 170.755 537.867C170.638 537.823 170.513 537.805 170.388 537.814C170.263 537.823 170.141 537.859 170.032 537.92C169.85 538.018 169.7 538.167 169.6 538.349C169.501 538.531 169.456 538.737 169.472 538.944C169.93 543.615 169.611 548.329 168.528 552.896C164.72 555.616 161.808 557.584 159.12 557.888C159.12 554.944 159.12 550.464 159.12 547.04C159.12 546.807 159.027 546.583 158.862 546.418C158.697 546.253 158.473 546.16 158.24 546.16C158.007 546.16 157.783 546.253 157.618 546.418C157.453 546.583 157.36 546.807 157.36 547.04C156.464 551.456 157.52 556.64 154.784 560.192C154.784 560.192 149.984 564.88 147.616 563.28C149.76 559.616 149.104 551.376 147.776 551.824Z" fill="#1B44DD"/>
<path opacity="0.1" d="M147.776 551.824C144.8 552.832 144.832 553.328 142.784 555.104C142.608 552.448 141.6 549.232 143.632 544.912C144.589 543.192 146.077 541.827 147.874 541.023C149.67 540.218 151.679 540.017 153.6 540.448C153.748 540.477 153.9 540.473 154.047 540.437C154.193 540.401 154.33 540.334 154.448 540.24C154.581 540.138 154.688 540.008 154.762 539.858C154.836 539.708 154.875 539.543 154.875 539.376C154.875 539.209 154.836 539.044 154.762 538.894C154.688 538.744 154.581 538.614 154.448 538.512C153.181 537.678 151.717 537.193 150.203 537.106C148.688 537.019 147.178 537.333 145.824 538.016C147.152 534.624 149.2 530.72 152.224 528.64C155.424 526.352 162.512 527.136 165.248 529.84C165.373 529.947 165.532 530.006 165.696 530.006C165.86 530.006 166.019 529.947 166.144 529.84C166.316 529.723 166.434 529.543 166.473 529.339C166.512 529.135 166.468 528.924 166.352 528.752C165.469 527.427 164.285 526.33 162.896 525.552C162.106 525.074 161.206 524.809 160.283 524.784C159.36 524.759 158.447 524.974 157.632 525.408C158.656 521.088 167.728 517.408 167.6 517.904C170.64 518.528 173.2 521.456 174.32 522.912C174.52 523.167 174.808 523.339 175.128 523.392C175.448 523.445 175.776 523.377 176.048 523.2C176.411 522.986 176.675 522.638 176.783 522.23C176.891 521.823 176.834 521.389 176.624 521.024C175.481 519.143 173.893 517.572 172 516.448C173.088 515.008 175.408 515.072 177.088 515.104C182.432 515.2 185.952 519.424 189.584 522.752C190.697 527.17 190.603 531.806 189.312 536.176C188.299 539.397 186.194 542.164 183.36 544C182.992 540.96 182.464 537.6 182.064 534.4C182.048 534.263 182.005 534.13 181.938 534.01C181.87 533.89 181.78 533.784 181.671 533.699C181.562 533.615 181.438 533.552 181.305 533.516C181.172 533.48 181.033 533.47 180.896 533.488C180.59 533.544 180.313 533.707 180.114 533.946C179.915 534.186 179.807 534.488 179.808 534.8C179.92 538.896 180.528 542.064 180.56 546.272C178.432 548.544 170.96 552.16 171.264 551.504C171.376 547.888 172.32 541.792 171.264 538.384C171.222 538.266 171.154 538.159 171.066 538.07C170.979 537.98 170.872 537.911 170.755 537.867C170.638 537.823 170.513 537.805 170.388 537.814C170.263 537.823 170.141 537.859 170.032 537.92C169.85 538.018 169.7 538.167 169.6 538.349C169.501 538.531 169.456 538.737 169.472 538.944C169.93 543.615 169.611 548.329 168.528 552.896C164.72 555.616 161.808 557.584 159.12 557.888C159.12 554.944 159.12 550.464 159.12 547.04C159.12 546.807 159.027 546.583 158.862 546.418C158.697 546.253 158.473 546.16 158.24 546.16C158.007 546.16 157.783 546.253 157.618 546.418C157.453 546.583 157.36 546.807 157.36 547.04C156.464 551.456 157.52 556.64 154.784 560.192C154.784 560.192 149.984 564.88 147.616 563.28C149.76 559.616 149.104 551.376 147.776 551.824Z" fill="white"/>
<path d="M139.392 548.8C145.203 557.962 149.659 567.916 152.624 578.352C162.64 614.512 162.992 621.232 162.992 621.232L169.808 621.104C169.808 621.104 152.96 555.824 141.536 546.544C130.112 537.264 139.392 548.8 139.392 548.8Z" fill="#1B44DD"/>
<path opacity="0.2" d="M139.392 548.8C145.203 557.962 149.659 567.916 152.624 578.352C162.64 614.512 162.992 621.232 162.992 621.232L169.808 621.104C169.808 621.104 152.96 555.824 141.536 546.544C130.112 537.264 139.392 548.8 139.392 548.8Z" fill="black"/>
<path d="M138.16 546.368C141.104 545.312 141.36 545.712 144.096 545.824C142.592 543.648 141.376 540.496 137.088 538.384C135.251 537.609 133.21 537.459 131.279 537.956C129.348 538.453 127.634 539.57 126.4 541.136C126.302 541.249 126.182 541.339 126.047 541.403C125.912 541.466 125.765 541.501 125.616 541.504C125.449 541.513 125.283 541.483 125.13 541.417C124.977 541.351 124.841 541.251 124.733 541.124C124.624 540.997 124.547 540.847 124.506 540.686C124.465 540.524 124.461 540.355 124.496 540.192C124.96 538.753 125.797 537.462 126.921 536.451C128.045 535.439 129.416 534.743 130.896 534.432C127.696 532.608 123.712 530.816 120.096 531.024C116.16 531.248 111.136 536.256 110.656 540.064C110.64 540.229 110.561 540.383 110.437 540.493C110.312 540.602 110.15 540.661 109.984 540.656C109.881 540.663 109.778 540.649 109.68 540.615C109.582 540.582 109.492 540.529 109.415 540.461C109.338 540.392 109.275 540.309 109.229 540.217C109.184 540.124 109.158 540.023 109.152 539.92C109 538.326 109.231 536.719 109.824 535.232C110.145 534.364 110.685 533.594 111.391 532.997C112.098 532.4 112.947 531.996 113.856 531.824C110.368 529.088 101.056 531.824 101.392 532.16C99.3918 534.544 99.1998 538.432 99.2478 540.272C99.2419 540.595 99.1184 540.905 98.9005 541.144C98.6825 541.382 98.3851 541.533 98.0638 541.568C97.6463 541.623 97.2239 541.511 96.8885 541.256C96.553 541.002 96.3314 540.625 96.2718 540.208C96.001 538.044 96.2647 535.847 97.0398 533.808C95.2958 533.36 93.5198 534.848 92.2398 535.92C88.1118 539.328 87.9998 544.816 87.2158 549.696C89.1076 553.837 92.0745 557.395 95.8078 560C98.6246 561.908 102.023 562.764 105.408 562.416C103.808 559.792 102.112 556.832 100.48 554.144C100.405 554.027 100.355 553.897 100.332 553.76C100.309 553.623 100.315 553.483 100.347 553.349C100.38 553.214 100.44 553.087 100.524 552.977C100.607 552.866 100.712 552.773 100.832 552.704C101.097 552.571 101.4 552.531 101.691 552.592C101.981 552.653 102.243 552.811 102.432 553.04C104.896 556.32 106.4 559.184 108.992 562.496C112.08 562.944 120.192 561.168 119.52 560.8C117.184 558.048 112.656 553.872 111.424 550.496C111.379 550.38 111.362 550.255 111.372 550.131C111.382 550.006 111.42 549.886 111.483 549.779C111.546 549.671 111.632 549.579 111.736 549.509C111.839 549.44 111.957 549.394 112.08 549.376C112.281 549.336 112.49 549.356 112.68 549.432C112.871 549.509 113.034 549.64 113.152 549.808C115.7 553.751 118.884 557.244 122.576 560.144C127.248 559.92 130.768 559.632 133.056 558.208L126.32 549.696C125.648 548.848 126.8 547.856 127.648 548.544C131.104 551.456 133.504 556.176 137.84 557.248C137.84 557.248 144.496 557.936 145.376 555.2C141.456 553.712 136.848 546.848 138.16 546.368Z" fill="#1B44DD"/>
<path opacity="0.2" d="M138.16 546.368C141.104 545.312 141.36 545.712 144.096 545.824C142.592 543.648 141.376 540.496 137.088 538.384C135.251 537.609 133.21 537.459 131.279 537.956C129.348 538.453 127.634 539.57 126.4 541.136C126.302 541.249 126.182 541.339 126.047 541.403C125.912 541.466 125.765 541.501 125.616 541.504C125.449 541.513 125.283 541.483 125.13 541.417C124.977 541.351 124.841 541.251 124.733 541.124C124.624 540.997 124.547 540.847 124.506 540.686C124.465 540.524 124.461 540.355 124.496 540.192C124.96 538.753 125.797 537.462 126.921 536.451C128.045 535.439 129.416 534.743 130.896 534.432C127.696 532.608 123.712 530.816 120.096 531.024C116.16 531.248 111.136 536.256 110.656 540.064C110.64 540.229 110.561 540.383 110.437 540.493C110.312 540.602 110.15 540.661 109.984 540.656C109.881 540.663 109.778 540.649 109.68 540.615C109.582 540.582 109.492 540.529 109.415 540.461C109.338 540.392 109.275 540.309 109.229 540.217C109.184 540.124 109.158 540.023 109.152 539.92C109 538.326 109.231 536.719 109.824 535.232C110.145 534.364 110.685 533.594 111.391 532.997C112.098 532.4 112.947 531.996 113.856 531.824C110.368 529.088 101.056 531.824 101.392 532.16C99.3918 534.544 99.1998 538.432 99.2478 540.272C99.2419 540.595 99.1184 540.905 98.9005 541.144C98.6825 541.382 98.3851 541.533 98.0638 541.568C97.6463 541.623 97.2239 541.511 96.8885 541.256C96.553 541.002 96.3314 540.625 96.2718 540.208C96.001 538.044 96.2647 535.847 97.0398 533.808C95.2958 533.36 93.5198 534.848 92.2398 535.92C88.1118 539.328 87.9998 544.816 87.2158 549.696C89.1076 553.837 92.0745 557.395 95.8078 560C98.6246 561.908 102.023 562.764 105.408 562.416C103.808 559.792 102.112 556.832 100.48 554.144C100.405 554.027 100.355 553.897 100.332 553.76C100.309 553.623 100.315 553.483 100.347 553.349C100.38 553.214 100.44 553.087 100.524 552.977C100.607 552.866 100.712 552.773 100.832 552.704C101.097 552.571 101.4 552.531 101.691 552.592C101.981 552.653 102.243 552.811 102.432 553.04C104.896 556.32 106.4 559.184 108.992 562.496C112.08 562.944 120.192 561.168 119.52 560.8C117.184 558.048 112.656 553.872 111.424 550.496C111.379 550.38 111.362 550.255 111.372 550.131C111.382 550.006 111.42 549.886 111.483 549.779C111.546 549.671 111.632 549.579 111.736 549.509C111.839 549.44 111.957 549.394 112.08 549.376C112.281 549.336 112.49 549.356 112.68 549.432C112.871 549.509 113.034 549.64 113.152 549.808C115.7 553.751 118.884 557.244 122.576 560.144C127.248 559.92 130.768 559.632 133.056 558.208L126.32 549.696C125.648 548.848 126.8 547.856 127.648 548.544C131.104 551.456 133.504 556.176 137.84 557.248C137.84 557.248 144.496 557.936 145.376 555.2C141.456 553.712 136.848 546.848 138.16 546.368Z" fill="white"/>
<path d="M140.944 561.248C142.64 557.312 143.296 557.472 145.904 555.008C142.4 554.128 138.208 551.968 132.208 553.824C126.896 555.824 124.512 561.248 125.072 566.864C125.09 567.067 125.065 567.272 124.999 567.465C124.933 567.658 124.827 567.835 124.688 567.984C124.533 568.148 124.342 568.272 124.129 568.347C123.917 568.423 123.69 568.446 123.466 568.417C123.243 568.387 123.03 568.305 122.844 568.177C122.659 568.049 122.507 567.878 122.4 567.68C121.425 565.774 120.948 563.653 121.012 561.513C121.076 559.373 121.68 557.284 122.768 555.44C118.08 556.528 112.608 558.48 109.488 562.128C106.064 566.128 106.288 576.208 109.488 580.688C109.636 580.868 109.717 581.095 109.717 581.328C109.717 581.561 109.636 581.788 109.488 581.968C109.392 582.069 109.277 582.15 109.149 582.205C109.021 582.26 108.883 582.288 108.744 582.288C108.605 582.288 108.467 582.26 108.339 582.205C108.211 582.15 108.096 582.069 108 581.968C106.288 580.417 104.943 578.504 104.064 576.368C103.513 575.193 103.263 573.899 103.336 572.604C103.408 571.308 103.802 570.05 104.48 568.944C98.608 569.36 92.672 581.248 93.28 581.168C93.744 585.584 97.344 589.872 99.168 591.776C99.4795 592.109 99.667 592.538 99.6991 592.993C99.7311 593.447 99.6057 593.899 99.344 594.272C99.1792 594.502 98.967 594.695 98.7216 594.836C98.4762 594.978 98.2034 595.065 97.9215 595.092C97.6395 595.12 97.355 595.086 97.087 594.995C96.8191 594.903 96.5739 594.755 96.368 594.56C94.432 592.688 91.488 589.536 90.816 586.992C88.768 588.192 88.576 591.456 88.416 593.824C87.92 601.36 93.216 607.28 97.152 613.152C102.738 615.75 108.939 616.736 115.056 616C119.506 615.324 123.52 612.95 126.256 609.376V609.296C122.24 608.048 117.792 606.528 113.696 605.248C113.316 605.129 112.995 604.873 112.793 604.53C112.592 604.187 112.526 603.781 112.608 603.392C112.7 602.989 112.945 602.637 113.291 602.41C113.637 602.183 114.057 602.099 114.464 602.176C119.92 603.28 124.064 604.864 129.696 605.904C132.976 603.44 138.688 593.888 137.776 594.08C132.976 593.392 124.704 593.296 120.288 590.88C120.135 590.794 120 590.678 119.892 590.539C119.785 590.399 119.706 590.24 119.661 590.07C119.617 589.9 119.606 589.722 119.632 589.548C119.657 589.374 119.717 589.207 119.808 589.056C119.955 588.824 120.173 588.644 120.429 588.543C120.685 588.443 120.966 588.426 121.232 588.496C127.355 590.228 133.734 590.873 140.08 590.4C144.16 585.696 147.136 582.064 147.872 578.368L133.472 575.792C133.167 575.746 132.889 575.589 132.693 575.351C132.497 575.112 132.397 574.81 132.411 574.502C132.425 574.193 132.552 573.901 132.769 573.681C132.986 573.462 133.276 573.33 133.584 573.312C139.6 573.104 146.384 575.808 151.44 572.8C151.44 572.8 158.256 567.2 156.432 563.456C151.12 565.872 140.192 563.008 140.944 561.248Z" fill="#1B44DD"/>
<path d="M143.904 566.608C143.904 566.608 157.184 585.952 160.752 604.24C164.32 622.528 164.8 626.048 164.8 626.048L172.8 626.128C172.8 626.128 158.4 574.928 146.064 563.936C133.728 552.944 143.904 566.608 143.904 566.608Z" fill="#1B44DD"/>
<path opacity="0.1" d="M143.904 566.608C143.904 566.608 157.184 585.952 160.752 604.24C164.32 622.528 164.8 626.048 164.8 626.048L172.8 626.128C172.8 626.128 158.4 574.928 146.064 563.936C133.728 552.944 143.904 566.608 143.904 566.608Z" fill="black"/>
<path opacity="0.3" d="M140.944 561.248C142.64 557.312 143.296 557.472 145.904 555.008C142.4 554.128 138.208 551.968 132.208 553.824C126.896 555.824 124.512 561.248 125.072 566.864C125.09 567.067 125.065 567.272 124.999 567.465C124.933 567.658 124.827 567.835 124.688 567.984C124.533 568.148 124.342 568.272 124.129 568.347C123.917 568.423 123.69 568.446 123.466 568.417C123.243 568.387 123.03 568.305 122.844 568.177C122.659 568.049 122.507 567.878 122.4 567.68C121.425 565.774 120.948 563.653 121.012 561.513C121.076 559.373 121.68 557.284 122.768 555.44C118.08 556.528 112.608 558.48 109.488 562.128C106.064 566.128 106.288 576.208 109.488 580.688C109.636 580.868 109.717 581.095 109.717 581.328C109.717 581.561 109.636 581.788 109.488 581.968C109.392 582.069 109.277 582.15 109.149 582.205C109.021 582.26 108.883 582.288 108.744 582.288C108.605 582.288 108.467 582.26 108.339 582.205C108.211 582.15 108.096 582.069 108 581.968C106.288 580.417 104.943 578.504 104.064 576.368C103.513 575.193 103.263 573.899 103.336 572.604C103.408 571.308 103.802 570.05 104.48 568.944C98.608 569.36 92.672 581.248 93.28 581.168C93.744 585.584 97.344 589.872 99.168 591.776C99.4795 592.109 99.667 592.538 99.6991 592.993C99.7311 593.447 99.6057 593.899 99.344 594.272C99.1792 594.502 98.967 594.695 98.7216 594.836C98.4762 594.978 98.2034 595.065 97.9215 595.092C97.6395 595.12 97.355 595.086 97.087 594.995C96.8191 594.903 96.5739 594.755 96.368 594.56C94.432 592.688 91.488 589.536 90.816 586.992C88.768 588.192 88.576 591.456 88.416 593.824C87.92 601.36 93.216 607.28 97.152 613.152C102.738 615.75 108.939 616.736 115.056 616C119.506 615.324 123.52 612.95 126.256 609.376V609.296C122.24 608.048 117.792 606.528 113.696 605.248C113.316 605.129 112.995 604.873 112.793 604.53C112.592 604.187 112.526 603.781 112.608 603.392C112.7 602.989 112.945 602.637 113.291 602.41C113.637 602.183 114.057 602.099 114.464 602.176C119.92 603.28 124.064 604.864 129.696 605.904C132.976 603.44 138.688 593.888 137.776 594.08C132.976 593.392 124.704 593.296 120.288 590.88C120.135 590.794 120 590.678 119.892 590.539C119.785 590.399 119.706 590.24 119.661 590.07C119.617 589.9 119.606 589.722 119.632 589.548C119.657 589.374 119.717 589.207 119.808 589.056C119.955 588.824 120.173 588.644 120.429 588.543C120.685 588.443 120.966 588.426 121.232 588.496C127.355 590.228 133.734 590.873 140.08 590.4C144.16 585.696 147.136 582.064 147.872 578.368L133.472 575.792C133.167 575.746 132.889 575.589 132.693 575.351C132.497 575.112 132.397 574.81 132.411 574.502C132.425 574.193 132.552 573.901 132.769 573.681C132.986 573.462 133.276 573.33 133.584 573.312C139.6 573.104 146.384 575.808 151.44 572.8C151.44 572.8 158.256 567.2 156.432 563.456C151.12 565.872 140.192 563.008 140.944 561.248Z" fill="white"/>
<path d="M89.3599 659.856C87.2891 659.788 85.3104 658.984 83.7794 657.588C82.2485 656.192 81.2658 654.296 81.0079 652.24C80.7852 650.168 81.2823 648.083 82.4158 646.335C83.5492 644.587 85.2498 643.282 87.2319 642.64C83.8409 641.537 80.8817 639.398 78.7718 636.524C76.6619 633.649 75.5079 630.185 75.4725 626.619C75.4372 623.053 76.5223 619.567 78.5747 616.651C80.6272 613.735 83.5434 611.538 86.9119 610.368C88.1852 609.867 89.5658 609.701 90.9216 609.886C92.2774 610.071 93.5631 610.6 94.6559 611.424C96.7199 613.248 97.0079 617.296 94.6559 618.768C93.7065 615.509 93.8423 612.03 95.0429 608.856C96.2435 605.681 98.4438 602.983 101.312 601.168C104.216 599.61 107.578 599.133 110.801 599.821C114.024 600.51 116.898 602.319 118.912 604.928C117.96 603.49 117.453 601.804 117.453 600.08C117.453 598.356 117.96 596.67 118.912 595.232C119.856 593.861 121.219 592.832 122.797 592.302C124.375 591.771 126.083 591.766 127.664 592.288C128.052 590.115 129.243 588.168 131.001 586.834C132.759 585.5 134.955 584.877 137.152 585.088C139.326 585.57 141.25 586.829 142.561 588.629C143.872 590.43 144.481 592.647 144.272 594.864C144.768 591.088 150.672 590.064 152.272 593.344C154.64 592.672 151.552 593.904 151.552 593.904C152.83 591.386 154.884 589.345 157.411 588.083C159.937 586.821 162.803 586.405 165.584 586.896C168.363 587.595 170.858 589.135 172.728 591.306C174.599 593.477 175.752 596.172 176.032 599.024C177.954 597.617 180.26 596.829 182.641 596.766C185.022 596.704 187.366 597.368 189.36 598.672C191.348 600.103 192.901 602.056 193.847 604.315C194.793 606.574 195.095 609.052 194.72 611.472C195.822 610.664 197.082 610.096 198.417 609.804C199.752 609.511 201.133 609.501 202.473 609.774C203.812 610.046 205.079 610.596 206.194 611.387C207.308 612.178 208.245 613.194 208.944 614.368C211.744 619.328 209.584 626.624 204.608 628.992C206.355 629.197 207.963 630.048 209.115 631.377C210.268 632.706 210.882 634.418 210.838 636.177C210.794 637.935 210.095 639.614 208.877 640.884C207.659 642.153 206.011 642.922 204.256 643.04C206.017 643.176 207.677 643.918 208.952 645.141C210.227 646.363 211.038 647.99 211.248 649.744C211.664 653.328 209.296 658.992 205.984 659.936L89.3599 659.856Z" fill="#1B44DD"/>
<g opacity="0.1">
<path d="M89.3599 659.856C87.2891 659.788 85.3104 658.984 83.7794 657.588C82.2485 656.192 81.2658 654.296 81.0079 652.24C80.7852 650.168 81.2823 648.083 82.4158 646.335C83.5492 644.587 85.2498 643.282 87.2319 642.64C83.8409 641.537 80.8817 639.398 78.7718 636.524C76.6619 633.649 75.5079 630.185 75.4725 626.619C75.4372 623.053 76.5223 619.567 78.5747 616.651C80.6272 613.735 83.5434 611.538 86.9119 610.368C88.1852 609.867 89.5658 609.701 90.9216 609.886C92.2774 610.071 93.5631 610.6 94.6559 611.424C96.7199 613.248 97.0079 617.296 94.6559 618.768C93.7065 615.509 93.8423 612.03 95.0429 608.856C96.2435 605.681 98.4438 602.983 101.312 601.168C104.216 599.61 107.578 599.133 110.801 599.821C114.024 600.51 116.898 602.319 118.912 604.928C117.96 603.49 117.453 601.804 117.453 600.08C117.453 598.356 117.96 596.67 118.912 595.232C119.856 593.861 121.219 592.832 122.797 592.302C124.375 591.771 126.083 591.766 127.664 592.288C128.052 590.115 129.243 588.168 131.001 586.834C132.759 585.5 134.955 584.877 137.152 585.088C139.326 585.57 141.25 586.829 142.561 588.629C143.872 590.43 144.481 592.647 144.272 594.864C144.768 591.088 150.672 590.064 152.272 593.344C154.64 592.672 151.552 593.904 151.552 593.904C152.83 591.386 154.884 589.345 157.411 588.083C159.937 586.821 162.803 586.405 165.584 586.896C168.363 587.595 170.858 589.135 172.728 591.306C174.599 593.477 175.752 596.172 176.032 599.024C177.954 597.617 180.26 596.829 182.641 596.766C185.022 596.704 187.366 597.368 189.36 598.672C191.348 600.103 192.901 602.056 193.847 604.315C194.793 606.574 195.095 609.052 194.72 611.472C195.822 610.664 197.082 610.096 198.417 609.804C199.752 609.511 201.133 609.501 202.473 609.774C203.812 610.046 205.079 610.596 206.194 611.387C207.308 612.178 208.245 613.194 208.944 614.368C211.744 619.328 209.584 626.624 204.608 628.992C206.355 629.197 207.963 630.048 209.115 631.377C210.268 632.706 210.882 634.418 210.838 636.177C210.794 637.935 210.095 639.614 208.877 640.884C207.659 642.153 206.011 642.922 204.256 643.04C206.017 643.176 207.677 643.918 208.952 645.141C210.227 646.363 211.038 647.99 211.248 649.744C211.664 653.328 209.296 658.992 205.984 659.936L89.3599 659.856Z" fill="black"/>
</g>
<path d="M150.752 648.64C151.553 648.044 152.466 647.616 153.437 647.382C154.407 647.148 155.415 647.113 156.4 647.28C157.387 647.455 158.303 647.912 159.035 648.596C159.768 649.281 160.286 650.163 160.528 651.136C160.724 652.115 160.552 653.132 160.044 653.991C159.536 654.85 158.728 655.492 157.776 655.792C155.424 656.352 152.976 654.416 150.656 654.752C149.815 654.954 148.987 655.205 148.176 655.504C144.72 656.432 141.296 654.176 138.432 652.032C137.382 651.344 136.466 650.471 135.728 649.456C135.364 648.939 135.145 648.334 135.094 647.703C135.044 647.073 135.163 646.441 135.44 645.872C136.32 644.368 138.4 644.144 140.144 644.272C143.658 644.681 146.986 646.073 149.744 648.288C149.648 647.744 149.568 647.184 149.472 646.688L150.752 648.64Z" fill="#1B44DD"/>
<path d="M95.904 631.344C96.4872 631.259 97.0827 631.336 97.6247 631.567C98.1668 631.799 98.6344 632.176 98.976 632.656C99.314 633.393 99.36 634.23 99.1046 634.999C98.8492 635.768 98.3115 636.412 97.6 636.8C96.1435 637.51 94.5296 637.835 92.912 637.744C91.312 637.744 89.2 637.568 88.592 636.032C88.4077 635.444 88.4222 634.812 88.6334 634.234C88.8445 633.655 89.2405 633.163 89.76 632.832C90.7922 632.201 91.9498 631.802 93.152 631.664C93.152 631.664 94.736 631.472 95.904 631.344Z" fill="#1B44DD"/>
<path d="M173.856 620.048C175.15 620.606 176.294 621.459 177.197 622.54C178.101 623.621 178.737 624.9 179.056 626.272C179.199 626.672 179.221 627.106 179.118 627.519C179.016 627.932 178.794 628.305 178.48 628.592C177.913 628.809 177.287 628.809 176.72 628.592L169.28 626.816C170.492 627.204 171.624 627.805 172.624 628.592C173.124 628.993 173.506 629.521 173.731 630.12C173.956 630.72 174.016 631.369 173.904 632C173.66 632.711 173.191 633.323 172.567 633.742C171.943 634.161 171.198 634.364 170.448 634.32C168.951 634.218 167.522 633.659 166.352 632.72C165.655 632.324 165.059 631.774 164.609 631.111C164.16 630.447 163.869 629.69 163.76 628.896C163.76 627.296 165.744 625.824 166.96 626.848C164.111 626.08 161.408 624.848 158.96 623.2C158.038 622.658 157.246 621.921 156.64 621.04C156.34 620.597 156.161 620.085 156.118 619.552C156.076 619.019 156.173 618.484 156.4 618C158.96 613.376 162.176 620.16 163.744 620.768C166.72 621.936 170.08 618.48 173.856 620.048Z" fill="#1B44DD"/>
<path d="M169.488 643.92C169.293 644.473 169.265 645.071 169.407 645.64C169.549 646.209 169.856 646.724 170.288 647.12C170.511 647.299 170.77 647.427 171.048 647.494C171.326 647.561 171.616 647.566 171.896 647.507C172.175 647.449 172.439 647.33 172.667 647.158C172.896 646.986 173.083 646.765 173.216 646.512C171.096 646.944 169.166 648.029 167.696 649.616C166.432 651.344 166.736 654.416 168.784 655.04C169.444 655.158 170.121 655.143 170.776 654.994C171.43 654.846 172.047 654.568 172.592 654.176C175.923 652.365 179.097 650.277 182.08 647.936C181.168 650.032 183.36 652.416 185.648 652.608C187.962 652.559 190.202 651.781 192.048 650.384C194.448 648.928 197.2 646.688 196.576 643.984C196.016 641.6 192.976 640.544 190.624 641.248C188.343 642.169 186.353 643.69 184.864 645.648C186.16 643.776 184.336 640.992 182.08 640.688C180.979 640.629 179.879 640.84 178.878 641.303C177.877 641.766 177.004 642.467 176.336 643.344C178.88 641.936 179.536 638.288 176.032 637.856C173.792 637.536 170.016 642.064 169.488 643.92Z" fill="#1B44DD"/>
<path d="M151.536 634.896C152.668 635.428 153.646 636.238 154.379 637.251C155.112 638.264 155.576 639.447 155.728 640.688C156.368 643.984 155.504 647.936 151.936 649.12C150.938 649.425 149.876 649.458 148.861 649.216C147.846 648.974 146.914 648.466 146.16 647.744C142.496 644.288 143.808 638.672 147.168 635.68C147.779 635.207 148.495 634.889 149.256 634.753C150.016 634.616 150.799 634.665 151.536 634.896Z" fill="#1B44DD"/>
<path d="M115.2 645.056C115.919 645.005 116.639 645.136 117.294 645.438C117.949 645.741 118.516 646.203 118.944 646.784C119.656 647.457 120.097 648.368 120.183 649.344C120.268 650.32 119.993 651.294 119.408 652.08C118.994 652.519 118.469 652.838 117.889 653.004C117.309 653.17 116.695 653.177 116.112 653.024C115.487 652.814 114.913 652.477 114.424 652.035C113.935 651.593 113.543 651.055 113.271 650.454C113 649.854 112.855 649.204 112.845 648.545C112.835 647.886 112.962 647.232 113.216 646.624C113.399 646.225 113.675 645.874 114.02 645.602C114.364 645.329 114.769 645.142 115.2 645.056Z" fill="#1B44DD"/>
<path d="M112.336 617.376C113.054 616.83 113.899 616.475 114.791 616.343C115.684 616.212 116.595 616.308 117.44 616.624C119.76 617.312 122.016 619.168 121.584 621.856C121.44 622.591 121.104 623.275 120.609 623.837C120.114 624.4 119.479 624.82 118.768 625.056C115.328 626.256 112.176 623.536 111.376 620.384C111.289 619.842 111.331 619.288 111.498 618.766C111.665 618.243 111.952 617.767 112.336 617.376Z" fill="#1B44DD"/>
<path d="M124.8 604.928C125.634 605.274 126.366 605.827 126.926 606.536C127.486 607.244 127.856 608.084 128 608.976C128.56 611.328 128 614.208 125.52 615.168C124.811 615.422 124.047 615.482 123.307 615.341C122.567 615.2 121.878 614.864 121.312 614.368C118.56 611.984 119.328 607.888 121.664 605.616C122.093 605.259 122.602 605.009 123.148 604.89C123.694 604.77 124.26 604.783 124.8 604.928Z" fill="#1B44DD"/>
<path d="M92.5118 641.28C92.4435 640.378 92.6025 639.473 92.9742 638.649C93.346 637.824 93.9187 637.106 94.6398 636.56C96.4638 634.96 99.2478 634.096 101.28 635.904C101.835 636.415 102.242 637.068 102.456 637.792C102.67 638.516 102.684 639.285 102.496 640.016C101.648 643.552 97.6958 644.816 94.4958 643.728C93.9969 643.503 93.5576 643.165 93.2131 642.74C92.8686 642.315 92.6284 641.815 92.5118 641.28Z" fill="#1B44DD"/>
<path d="M128.608 627.712L127.76 628.448C128.295 627.774 129.026 627.284 129.852 627.044C130.678 626.804 131.558 626.828 132.37 627.111C133.182 627.394 133.886 627.923 134.384 628.624C134.882 629.325 135.15 630.164 135.15 631.024C135.15 631.884 134.882 632.723 134.384 633.424C133.886 634.125 133.182 634.654 132.37 634.937C131.558 635.22 130.678 635.244 129.852 635.004C129.026 634.764 128.295 634.274 127.76 633.6C126.567 634.18 125.219 634.362 123.915 634.12C122.61 633.878 121.418 633.225 120.512 632.256C120.107 631.745 119.811 631.156 119.642 630.527C119.472 629.897 119.433 629.24 119.525 628.595C119.618 627.949 119.842 627.33 120.182 626.774C120.522 626.218 120.972 625.737 121.504 625.36C123.808 624.064 127.296 626.016 127.056 628.656L128.048 627.536L128.608 627.712Z" fill="#1B44DD"/>
<path d="M102.4 628.8C103.056 631.008 102.112 633.856 99.9038 634.48C97.6958 635.104 95.5518 633.296 94.2398 631.424C92.9278 629.552 91.8238 627.472 92.7998 625.6C96.1598 619.2 101.776 626.608 102.4 628.8Z" fill="#1B44DD"/>
<path d="M192.752 632.4C190.608 633.216 187.68 632.512 186.896 630.352C186.112 628.192 187.728 625.92 189.504 624.48C191.28 623.04 193.264 621.728 195.168 622.544C201.792 625.408 194.912 631.584 192.752 632.4Z" fill="#1B44DD"/>
<path d="M162.432 608.624C161.104 610.496 158.288 611.52 156.432 610.224C154.576 608.928 154.672 606.08 155.344 603.824C156.016 601.568 156.944 599.456 158.992 599.024C166.096 597.792 163.776 606.752 162.432 608.624Z" fill="#1B44DD"/>
<path d="M155.648 607.504C155.792 608.377 155.598 609.272 155.104 610.007C154.61 610.742 153.855 611.26 152.992 611.456C151.248 611.632 149.792 610 149.136 608.4C148.48 606.8 147.808 605.072 148.784 603.824C152.176 599.456 155.44 605.744 155.648 607.504Z" fill="#1B44DD"/>
<path d="M171.584 614.512C170.768 614.85 169.854 614.865 169.027 614.553C168.201 614.241 167.524 613.625 167.136 612.832C166.576 611.232 167.856 609.456 169.248 608.368C170.64 607.28 172.176 606.336 173.616 607.008C178.656 609.328 173.248 613.936 171.584 614.512Z" fill="#1B44DD"/>
<path d="M142.4 620.608C142.643 620.164 142.972 619.773 143.369 619.459C143.766 619.145 144.223 618.914 144.711 618.779C145.199 618.645 145.709 618.61 146.211 618.677C146.713 618.744 147.196 618.911 147.632 619.168C148.468 619.762 149.08 620.62 149.37 621.603C149.66 622.587 149.611 623.639 149.232 624.592C148.807 625.534 148.138 626.346 147.294 626.942C146.45 627.539 145.462 627.898 144.432 627.984C141.904 628.272 138.944 626.24 139.504 623.76C138.92 624.441 138.175 624.966 137.336 625.284C136.498 625.603 135.593 625.706 134.704 625.584C132.921 625.319 131.215 624.682 129.696 623.712C127.584 622.496 125.344 620.608 125.568 618.192C125.733 617.224 126.222 616.341 126.954 615.687C127.687 615.033 128.619 614.647 129.6 614.592C130.571 614.553 131.541 614.707 132.453 615.045C133.364 615.382 134.2 615.897 134.912 616.56C136.08 617.552 137.04 618.784 138.288 619.648C138.886 620.124 139.6 620.431 140.357 620.538C141.114 620.645 141.885 620.547 142.592 620.256L142.4 620.608Z" fill="#1B44DD"/>
<path d="M701.92 316.544H392.24L433.424 195.184H701.92V316.544Z" fill="#1B44DD"/>
<path opacity="0.3" d="M701.92 316.544H392.24L433.424 195.184H701.92V316.544Z" fill="white"/>
<path opacity="0.2" d="M669.392 193.504H453.104V220.72H669.392V193.504Z" fill="white"/>
<path opacity="0.2" d="M656.416 225.248H440.128V252.464H656.416V225.248Z" fill="white"/>
<path opacity="0.2" d="M643.44 256.992H427.152V284.208H643.44V256.992Z" fill="white"/>
<path opacity="0.2" d="M630.448 288.752H414.16V315.968H630.448V288.752Z" fill="white"/>
<path d="M701.968 502.304H250.992L335.36 315.6H701.968V502.304Z" fill="#1B44DD"/>
<g opacity="0.1">
<path d="M701.968 502.304H250.992L335.36 315.6H701.968V502.304Z" fill="white"/>
</g>
<path opacity="0.2" d="M620.112 319.504H363.888V346.72H620.112V319.504Z" fill="white"/>
<path opacity="0.2" d="M605.296 350.752H349.072V377.968H605.296V350.752Z" fill="white"/>
<path opacity="0.2" d="M590.496 382H334.272V409.216H590.496V382Z" fill="white"/>
<path opacity="0.2" d="M575.68 413.248H319.456V440.464H575.68V413.248Z" fill="white"/>
<path opacity="0.2" d="M560.88 444.496H304.656V471.712H560.88V444.496Z" fill="white"/>
<path opacity="0.2" d="M546.08 475.744H289.856V502.96H546.08V475.744Z" fill="white"/>
<path d="M701.664 659.744H100.08L198.96 476.944L701.664 473.04V659.744Z" fill="#1B44DD"/>
<path opacity="0.2" d="M541.776 475.984H226.208V503.2H541.776V475.984Z" fill="white"/>
<path opacity="0.2" d="M523.536 507.232H207.968V534.448H523.536V507.232Z" fill="white"/>
<path opacity="0.2" d="M505.296 538.48H189.728V565.696H505.296V538.48Z" fill="white"/>
<path opacity="0.2" d="M487.072 569.728H171.504V596.944H487.072V569.728Z" fill="white"/>
<path opacity="0.2" d="M468.832 600.96H153.264V628.176H468.832V600.96Z" fill="white"/>
<path opacity="0.2" d="M450.592 632.208H135.024V659.424H450.592V632.208Z" fill="white"/>
<path d="M591.376 642.848C591.296 642.944 591.488 643.296 591.264 643.584C591.04 643.872 590.768 643.968 590 643.984C589.422 643.979 588.845 643.936 588.272 643.856C578.56 642.576 561.6 638.96 556.72 629.056C549.76 614.944 570.656 619.776 569.808 612.512C568.96 605.248 545.312 606.928 542.608 596.304C540.48 587.92 550.048 589.12 554.272 587.472C554.693 587.353 555.079 587.134 555.397 586.833C555.715 586.532 555.955 586.158 556.096 585.744C556.114 585.584 556.114 585.424 556.096 585.264C556.208 580.048 537.776 583.664 533.888 572.16C531.264 564.4 536.896 565.68 540.288 565.76C541.888 565.76 542.912 565.664 542.528 564.304C542.528 564.304 542.528 564.176 542.528 564.112C540.832 559.312 524.8 537.968 533.264 535.312C540.72 532.96 553.024 549.712 559.68 555.824C560.216 556.318 560.783 556.777 561.376 557.2C561.577 557.357 561.791 557.497 562.016 557.616C567.616 560.672 572.208 542.432 578.944 549.984C584.912 556.672 577.744 578.656 581.968 587.056C582.283 587.703 582.705 588.293 583.216 588.8C583.506 589.094 583.834 589.347 584.192 589.552C590.592 593.312 588.576 582.688 596.88 584.528C608.224 587.2 605.152 626.88 591.376 642.848Z" fill="#1B44DD"/>
<g opacity="0.1">
<path d="M591.376 642.848C591.296 642.944 591.488 643.296 591.264 643.584C591.04 643.872 590.768 643.968 590 643.984C589.422 643.979 588.845 643.936 588.272 643.856C578.56 642.576 561.6 638.96 556.72 629.056C549.76 614.944 570.656 619.776 569.808 612.512C568.96 605.248 545.312 606.928 542.608 596.304C540.48 587.92 550.048 589.12 554.272 587.472C554.693 587.353 555.079 587.134 555.397 586.833C555.715 586.532 555.955 586.158 556.096 585.744C556.114 585.584 556.114 585.424 556.096 585.264C556.208 580.048 537.776 583.664 533.888 572.16C531.264 564.4 536.896 565.68 540.288 565.76C541.888 565.76 542.912 565.664 542.528 564.304C542.528 564.304 542.528 564.176 542.528 564.112C540.832 559.312 524.8 537.968 533.264 535.312C540.72 532.96 553.024 549.712 559.68 555.824C560.216 556.318 560.783 556.777 561.376 557.2C561.577 557.357 561.791 557.497 562.016 557.616C567.616 560.672 572.208 542.432 578.944 549.984C584.912 556.672 577.744 578.656 581.968 587.056C582.283 587.703 582.705 588.293 583.216 588.8C583.506 589.094 583.834 589.347 584.192 589.552C590.592 593.312 588.576 582.688 596.88 584.528C608.224 587.2 605.152 626.88 591.376 642.848Z" fill="white"/>
</g>
<path d="M591.664 652.8C591.748 652.792 591.83 652.767 591.905 652.728C591.979 652.688 592.045 652.634 592.099 652.568C592.152 652.503 592.192 652.427 592.217 652.346C592.241 652.265 592.249 652.18 592.24 652.096C585.52 585.008 547.568 556.992 547.184 556.704C547.116 556.653 547.037 556.617 546.954 556.597C546.871 556.577 546.785 556.575 546.701 556.59C546.617 556.605 546.537 556.637 546.466 556.684C546.395 556.731 546.334 556.793 546.288 556.864C546.238 556.932 546.203 557.01 546.183 557.092C546.163 557.174 546.16 557.259 546.174 557.342C546.187 557.425 546.217 557.505 546.261 557.577C546.305 557.648 546.363 557.711 546.432 557.76C546.816 558.032 584.288 585.76 590.944 652.16C590.948 652.25 590.97 652.338 591.009 652.419C591.047 652.5 591.102 652.572 591.169 652.632C591.236 652.692 591.314 652.737 591.399 652.766C591.484 652.795 591.574 652.807 591.664 652.8Z" fill="#1B44DD"/>
<path d="M542.592 564.368C546.301 563.765 550.083 563.765 553.792 564.368C554.556 564.496 555.31 564.677 556.048 564.912C556.122 564.942 556.189 564.987 556.245 565.045C556.3 565.103 556.342 565.172 556.368 565.248C556.424 565.387 556.424 565.541 556.368 565.68C556.324 565.803 556.244 565.909 556.138 565.986C556.033 566.063 555.907 566.107 555.776 566.112H555.536H555.296C550.563 565.013 545.644 564.98 540.896 566.016C540.803 566.034 540.707 566.03 540.616 566.005C540.524 565.98 540.439 565.935 540.368 565.872L542.592 564.368Z" fill="#1B44DD"/>
<path d="M561.424 557.312C562.864 562.661 563.527 568.19 563.392 573.728V573.824C563.388 573.99 563.322 574.148 563.206 574.267C563.09 574.386 562.934 574.456 562.768 574.464C562.596 574.456 562.433 574.381 562.314 574.256C562.194 574.131 562.128 573.965 562.128 573.792C562.128 573.216 562.128 572.64 562.128 572.064C562.088 566.583 561.263 561.136 559.68 555.888L561.424 557.312Z" fill="#1B44DD"/>
<path d="M574.512 591.184C574.508 591.352 574.439 591.513 574.32 591.632C574.201 591.751 574.04 591.82 573.872 591.824C573.786 591.831 573.7 591.819 573.62 591.789C573.54 591.758 573.467 591.71 573.408 591.648L573.184 591.44C571.824 590.24 564.4 584.24 554.704 587.488C554.565 587.544 554.411 587.544 554.272 587.488C554.693 587.369 555.079 587.15 555.397 586.849C555.715 586.548 555.954 586.174 556.096 585.76C558.764 585.185 561.521 585.159 564.2 585.681C566.879 586.204 569.423 587.265 571.68 588.8C572.585 589.367 573.436 590.015 574.224 590.736H574.304C574.426 590.854 574.5 591.014 574.512 591.184Z" fill="#1B44DD"/>
<path d="M583.264 588.912C583.074 593.845 582.063 598.712 580.272 603.312L580.192 603.488C580.143 603.601 580.063 603.697 579.961 603.765C579.859 603.833 579.739 603.87 579.616 603.872H579.328C579.175 603.796 579.056 603.664 578.997 603.503C578.937 603.343 578.942 603.166 579.008 603.008C579.208 602.559 579.385 602.1 579.536 601.632C581.093 596.987 581.929 592.13 582.016 587.232C582.337 587.857 582.759 588.424 583.264 588.912Z" fill="#1B44DD"/>
<path d="M601.024 582.176C598.424 590.012 597.211 598.243 597.44 606.496L622.4 635.2C632.432 627.2 644.544 614.592 650.192 598.08C651.988 592.782 653.101 587.276 653.504 581.696C655.616 556.608 644.768 534.256 644.768 534.256C644.768 534.256 611.584 551.328 601.024 582.176Z" fill="#1B44DD"/>
<g opacity="0.5">
<path opacity="0.2" d="M601.024 582.176C598.424 590.012 597.211 598.243 597.44 606.496L622.4 635.2C632.432 627.2 644.544 614.592 650.192 598.08C651.988 592.782 653.101 587.276 653.504 581.696C655.616 556.608 644.768 534.256 644.768 534.256C644.768 534.256 611.584 551.328 601.024 582.176Z" fill="white"/>
</g>
<path d="M625.6 629.136L645.584 652.224C657.6 650.8 671.664 647.168 683.872 638.688C712.096 619.104 719.712 581.248 719.712 581.248C719.712 581.248 692.352 576.832 666.912 587.36C662.172 589.31 657.651 591.756 653.424 594.656C639.84 604 631.056 617.6 625.6 629.136Z" fill="#1B44DD"/>
<path opacity="0.3" d="M625.6 629.136L645.584 652.224C657.6 650.8 671.664 647.168 683.872 638.688C712.096 619.104 719.712 581.248 719.712 581.248C719.712 581.248 692.352 576.832 666.912 587.36C662.172 589.31 657.651 591.756 653.424 594.656C639.84 604 631.056 617.6 625.6 629.136Z" fill="black"/>
<path d="M626.224 631.168L625.136 630C637.936 618.192 642.368 598.288 636.16 580.496C633.392 572.496 628.16 566.72 622.656 560.56C618.016 555.376 613.216 550.016 610.08 543.312C606.64 536 605.776 528.912 607.568 522.656C608.063 520.703 608.97 518.879 610.228 517.306C611.487 515.733 613.067 514.447 614.864 513.536C616.043 513.055 617.317 512.855 618.586 512.952C619.856 513.049 621.085 513.441 622.176 514.096C623.479 514.759 624.541 515.812 625.216 517.109C625.89 518.406 626.142 519.881 625.936 521.328C625.727 522.88 625.066 524.337 624.037 525.517C623.007 526.698 621.654 527.55 620.144 527.968C619.083 528.095 618.009 527.88 617.079 527.353C616.149 526.826 615.412 526.016 614.976 525.04C614.557 524.122 614.419 523.101 614.578 522.105C614.737 521.108 615.188 520.181 615.872 519.44L617.024 520.544C616.564 521.051 616.263 521.683 616.158 522.359C616.052 523.036 616.148 523.729 616.432 524.352C616.716 524.994 617.187 525.534 617.784 525.903C618.381 526.271 619.075 526.45 619.776 526.416C620.97 526.069 622.037 525.382 622.847 524.439C623.657 523.495 624.174 522.337 624.336 521.104C624.508 519.978 624.315 518.827 623.785 517.82C623.255 516.812 622.417 516 621.392 515.504C620.514 514.96 619.519 514.633 618.49 514.55C617.461 514.466 616.426 514.629 615.472 515.024C613.888 515.832 612.496 516.972 611.391 518.366C610.287 519.761 609.496 521.377 609.072 523.104C606.944 530.464 609.216 537.776 611.488 542.624C614.544 549.12 619.264 554.384 623.824 559.488C629.2 565.488 634.752 571.712 637.632 579.968C644.176 598.64 639.68 618.752 626.224 631.168Z" fill="#1B44DD"/>
<path d="M635.76 579.536C631.648 574.976 625.088 571.44 621.152 571.648L621.056 570.048C625.504 569.824 632.48 573.52 636.944 578.448L635.76 579.536Z" fill="#1B44DD"/>
<path d="M638.688 583.84L637.088 584.32C636.558 582.533 636.413 580.653 636.661 578.806C636.909 576.958 637.546 575.184 638.528 573.6L639.888 574.464C639.035 575.853 638.487 577.407 638.281 579.023C638.074 580.639 638.213 582.281 638.688 583.84Z" fill="#1B44DD"/>
<path d="M615.216 551.792C611.101 548.371 606.719 545.284 602.112 542.56L602.944 541.2C607.616 543.979 612.066 547.114 616.256 550.576L615.216 551.792Z" fill="#1B44DD"/>
<path d="M617.627 547.833L616.854 553.186L618.437 553.415L619.21 548.062L617.627 547.833Z" fill="#1B44DD"/>
<path d="M630.112 526C627.729 526.379 625.289 526.165 623.008 525.376L623.536 523.856C625.59 524.574 627.79 524.766 629.936 524.416L630.112 526Z" fill="#1B44DD"/>
<path d="M620.63 508.813L620.314 514.949L621.912 515.031L622.227 508.895L620.63 508.813Z" fill="#1B44DD"/>
<path d="M621.488 534.192C621.984 533.731 622.614 533.439 623.287 533.358C623.96 533.277 624.641 533.413 625.232 533.744C626.544 534.64 626.608 536.512 626.432 538.08C625.984 542 624.096 553.232 618.16 550.368C612.544 547.68 618.272 536.832 621.488 534.192Z" fill="#1B44DD"/>
<path d="M605.68 539.968C606.211 540.392 606.594 540.974 606.772 541.63C606.951 542.286 606.916 542.981 606.672 543.616C605.984 545.04 604.128 545.392 602.544 545.44C598.608 545.568 587.216 545.328 589.184 539.04C591.04 533.088 602.592 537.168 605.68 539.968Z" fill="#1B44DD"/>
<path d="M624.32 564.896C618.176 559.616 607.44 558.336 599.104 561.872C595.184 563.472 596.304 569.792 598.416 572.752C600.528 575.712 604.544 577.472 608.752 578.08C613.172 578.849 617.722 577.984 621.552 575.648C625.024 573.232 627.296 567.456 624.32 564.896Z" fill="#1B44DD"/>
<path d="M652.48 556.896C647.68 557.536 642.72 558.576 639.008 561.696C635.296 564.816 633.344 570.48 635.808 574.592C636.727 576.06 638.133 577.158 639.78 577.693C641.427 578.228 643.21 578.167 644.816 577.52C648.16 576.224 650.496 573.2 652.352 570.128C653.708 568.173 654.52 565.892 654.704 563.52C654.784 561.104 654.832 556.592 652.48 556.896Z" fill="#1B44DD"/>
<path d="M621.424 512.416C620.107 510.975 619.23 509.187 618.896 507.264C618.737 506.307 618.838 505.325 619.19 504.421C619.542 503.517 620.132 502.725 620.896 502.128C621.693 501.574 622.675 501.354 623.632 501.516C624.589 501.677 625.445 502.207 626.016 502.992C626.551 503.969 626.843 505.061 626.868 506.174C626.893 507.288 626.65 508.392 626.16 509.392C625.74 510.294 625.071 511.058 624.233 511.594C623.394 512.129 622.419 512.415 621.424 512.416Z" fill="#1B44DD"/>
<path d="M644.416 526.544C643.412 528.085 642.005 529.32 640.347 530.116C638.689 530.912 636.845 531.238 635.015 531.058C633.185 530.878 631.439 530.2 629.968 529.096C628.497 527.993 627.357 526.507 626.672 524.8C627.719 523.38 629.109 522.25 630.714 521.517C632.318 520.783 634.082 520.471 635.84 520.608C637.649 520.813 639.378 521.462 640.875 522.498C642.371 523.533 643.588 524.924 644.416 526.544Z" fill="#1B44DD"/>
<g opacity="0.3">
<path d="M626.224 631.168L625.136 630C637.936 618.192 642.368 598.288 636.16 580.496C633.392 572.496 628.16 566.72 622.656 560.56C618.016 555.376 613.216 550.016 610.08 543.312C606.64 536 605.776 528.912 607.568 522.656C608.063 520.703 608.97 518.879 610.228 517.306C611.487 515.733 613.067 514.447 614.864 513.536C616.043 513.055 617.317 512.855 618.586 512.952C619.856 513.049 621.085 513.441 622.176 514.096C623.479 514.759 624.541 515.812 625.216 517.109C625.89 518.406 626.142 519.881 625.936 521.328C625.727 522.88 625.066 524.337 624.037 525.517C623.007 526.698 621.654 527.55 620.144 527.968C619.083 528.095 618.009 527.88 617.079 527.353C616.149 526.826 615.412 526.016 614.976 525.04C614.557 524.122 614.419 523.101 614.578 522.105C614.737 521.108 615.188 520.181 615.872 519.44L617.024 520.544C616.564 521.051 616.263 521.683 616.158 522.359C616.052 523.036 616.148 523.729 616.432 524.352C616.716 524.994 617.187 525.534 617.784 525.903C618.381 526.271 619.075 526.45 619.776 526.416C620.97 526.069 622.037 525.382 622.847 524.439C623.657 523.495 624.174 522.337 624.336 521.104C624.508 519.978 624.315 518.827 623.785 517.82C623.255 516.812 622.417 516 621.392 515.504C620.514 514.96 619.519 514.633 618.49 514.55C617.461 514.466 616.426 514.629 615.472 515.024C613.888 515.832 612.496 516.972 611.391 518.366C610.287 519.761 609.496 521.377 609.072 523.104C606.944 530.464 609.216 537.776 611.488 542.624C614.544 549.12 619.264 554.384 623.824 559.488C629.2 565.488 634.752 571.712 637.632 579.968C644.176 598.64 639.68 618.752 626.224 631.168Z" fill="white"/>
<path d="M635.76 579.536C631.648 574.976 625.088 571.44 621.152 571.648L621.056 570.048C625.504 569.824 632.48 573.52 636.944 578.448L635.76 579.536Z" fill="white"/>
<path d="M638.688 583.84L637.088 584.32C636.558 582.533 636.413 580.653 636.661 578.806C636.909 576.958 637.546 575.184 638.528 573.6L639.888 574.464C639.035 575.853 638.487 577.407 638.281 579.023C638.074 580.639 638.213 582.281 638.688 583.84Z" fill="white"/>
<path d="M615.216 551.792C611.101 548.371 606.719 545.284 602.112 542.56L602.944 541.2C607.616 543.979 612.066 547.114 616.256 550.576L615.216 551.792Z" fill="white"/>
<path d="M617.627 547.833L616.854 553.186L618.437 553.415L619.21 548.062L617.627 547.833Z" fill="white"/>
<path d="M630.112 526C627.729 526.379 625.289 526.165 623.008 525.376L623.536 523.856C625.59 524.574 627.79 524.766 629.936 524.416L630.112 526Z" fill="white"/>
<path d="M620.63 508.813L620.314 514.949L621.912 515.031L622.227 508.895L620.63 508.813Z" fill="white"/>
<path d="M621.488 534.192C621.984 533.73 622.614 533.438 623.287 533.358C623.96 533.277 624.641 533.413 625.232 533.744C626.544 534.64 626.608 536.512 626.432 538.08C625.984 542 624.096 553.232 618.16 550.368C612.544 547.68 618.272 536.832 621.488 534.192Z" fill="white"/>
<path d="M605.68 539.968C606.211 540.392 606.594 540.974 606.772 541.63C606.951 542.286 606.916 542.981 606.672 543.616C605.984 545.04 604.128 545.392 602.544 545.44C598.608 545.568 587.216 545.328 589.184 539.04C591.04 533.088 602.592 537.168 605.68 539.968Z" fill="white"/>
<path d="M624.32 564.896C618.176 559.616 607.44 558.336 599.104 561.872C595.184 563.472 596.304 569.792 598.416 572.752C600.528 575.712 604.544 577.472 608.752 578.08C613.172 578.849 617.722 577.984 621.552 575.648C625.024 573.232 627.296 567.456 624.32 564.896Z" fill="white"/>
<path d="M652.48 556.896C647.68 557.536 642.72 558.576 639.008 561.696C635.296 564.816 633.344 570.48 635.808 574.592C636.727 576.06 638.133 577.158 639.78 577.693C641.427 578.228 643.21 578.167 644.816 577.52C648.16 576.224 650.496 573.2 652.352 570.128C653.708 568.173 654.52 565.892 654.704 563.52C654.784 561.104 654.832 556.592 652.48 556.896Z" fill="white"/>
<path d="M621.424 512.416C620.107 510.975 619.23 509.187 618.896 507.264C618.737 506.307 618.838 505.325 619.19 504.421C619.542 503.517 620.132 502.725 620.896 502.128C621.693 501.574 622.675 501.354 623.632 501.516C624.589 501.677 625.445 502.207 626.016 502.992C626.551 503.969 626.843 505.061 626.868 506.174C626.893 507.288 626.65 508.392 626.16 509.392C625.74 510.294 625.071 511.058 624.233 511.594C623.394 512.129 622.419 512.415 621.424 512.416Z" fill="white"/>
<path d="M644.416 526.544C643.412 528.085 642.004 529.32 640.347 530.116C638.689 530.912 636.845 531.238 635.014 531.058C633.184 530.878 631.439 530.2 629.968 529.096C628.497 527.993 627.357 526.507 626.672 524.8C627.718 523.38 629.109 522.25 630.713 521.517C632.317 520.783 634.081 520.471 635.84 520.608C637.648 520.813 639.378 521.462 640.874 522.498C642.371 523.533 643.587 524.924 644.416 526.544Z" fill="white"/>
</g>
<path d="M702.544 659.664H523.952V659.504C525.04 655.392 525.216 650.976 527.152 647.152C529.088 643.328 533.456 640.208 537.424 641.76C542.064 635.552 542.224 626.48 546.288 620.24C547.185 618.794 548.334 617.521 549.68 616.48C554.816 612.576 561.952 613.136 568.352 613.872C568 609.479 569.083 605.09 571.438 601.365C573.794 597.64 577.296 594.781 581.416 593.216C585.537 591.652 590.054 591.468 594.288 592.691C598.522 593.915 602.245 596.479 604.896 600C608.096 587.808 621.472 579.312 633.872 581.472C646.272 583.632 655.968 596.016 655.264 608.592C663.856 605.04 674.944 602.736 681.504 609.312C685.296 613.104 686.304 618.912 686.112 624.224C685.92 629.536 684.512 634.832 684.32 640.224C690.064 639.952 696.672 640 700.48 644.304C704 648.16 703.6 656.48 702.544 659.664Z" fill="#1B44DD"/>
<g opacity="0.2">
<path d="M702.544 659.664H523.952V659.504C525.04 655.392 525.216 650.976 527.152 647.152C529.088 643.328 533.456 640.208 537.424 641.76C542.064 635.552 542.224 626.48 546.288 620.24C547.185 618.794 548.334 617.521 549.68 616.48C554.816 612.576 561.952 613.136 568.352 613.872C568 609.479 569.083 605.09 571.438 601.365C573.794 597.64 577.296 594.781 581.416 593.216C585.537 591.652 590.054 591.468 594.288 592.691C598.522 593.915 602.245 596.479 604.896 600C608.096 587.808 621.472 579.312 633.872 581.472C646.272 583.632 655.968 596.016 655.264 608.592C663.856 605.04 674.944 602.736 681.504 609.312C685.296 613.104 686.304 618.912 686.112 624.224C685.92 629.536 684.512 634.832 684.32 640.224C690.064 639.952 696.672 640 700.48 644.304C704 648.16 703.6 656.48 702.544 659.664Z" fill="black"/>
</g>
<path d="M620.048 647.472C620.98 646.782 622.04 646.285 623.166 646.01C624.293 645.735 625.463 645.688 626.608 645.872C627.752 646.076 628.814 646.606 629.665 647.397C630.516 648.189 631.122 649.209 631.408 650.336C631.639 651.474 631.439 652.656 630.848 653.656C630.257 654.655 629.316 655.399 628.208 655.744C625.472 656.4 622.736 654.144 619.952 654.544C618.975 654.774 618.014 655.062 617.072 655.408C613.056 656.48 609.072 653.808 605.776 651.392C604.537 650.59 603.453 649.571 602.576 648.384C602.154 647.787 601.9 647.087 601.84 646.358C601.781 645.629 601.919 644.897 602.24 644.24C603.264 642.496 605.696 642.24 607.712 642.464C611.783 642.937 615.638 644.551 618.832 647.12C618.736 646.48 618.624 645.84 618.528 645.216L620.048 647.472Z" fill="#1B44DD"/>
<path d="M556.464 627.424C557.141 627.318 557.835 627.405 558.466 627.673C559.096 627.942 559.639 628.382 560.032 628.944C560.414 629.799 560.462 630.767 560.165 631.655C559.869 632.544 559.251 633.289 558.432 633.744C556.741 634.565 554.868 634.94 552.992 634.832C551.072 634.832 548.688 634.64 547.984 632.864C547.778 632.191 547.799 631.469 548.045 630.809C548.291 630.15 548.748 629.59 549.344 629.216C550.542 628.486 551.885 628.027 553.28 627.872C553.28 627.872 555.104 627.568 556.464 627.424Z" fill="#1B44DD"/>
<path d="M646.832 614.4C648.334 615.044 649.663 616.033 650.711 617.287C651.759 618.541 652.496 620.024 652.864 621.616C653.088 622.576 653.056 623.792 652.208 624.288C651.557 624.552 650.828 624.552 650.176 624.288L641.536 622.224C642.945 622.681 644.262 623.385 645.424 624.304C646 624.769 646.441 625.378 646.703 626.07C646.964 626.762 647.036 627.511 646.912 628.24C646.626 629.065 646.079 629.774 645.355 630.262C644.631 630.749 643.768 630.989 642.896 630.944C641.141 630.808 639.467 630.145 638.096 629.04C637.29 628.58 636.599 627.941 636.078 627.173C635.556 626.405 635.218 625.527 635.088 624.608C635.088 622.768 637.392 621.04 638.816 622.24C635.516 621.339 632.383 619.913 629.536 618.016C628.476 617.373 627.561 616.518 626.848 615.504C626.506 614.989 626.301 614.396 626.253 613.779C626.206 613.163 626.317 612.545 626.576 611.984C629.536 606.608 633.264 614.48 635.088 615.184C638.576 616.512 642.464 612.512 646.832 614.4Z" fill="#1B44DD"/>
<path d="M641.776 642.016C641.561 642.654 641.534 643.34 641.699 643.993C641.864 644.645 642.213 645.237 642.704 645.696C642.962 645.905 643.264 646.054 643.586 646.134C643.909 646.213 644.245 646.22 644.57 646.154C644.896 646.088 645.203 645.951 645.469 645.753C645.736 645.555 645.955 645.301 646.112 645.008C643.652 645.5 641.411 646.761 639.712 648.608C638.224 650.608 638.592 654.096 640.96 654.88C641.725 655.02 642.511 655.005 643.269 654.835C644.028 654.664 644.745 654.342 645.376 653.888C649.238 651.778 652.92 649.354 656.384 646.64C655.328 649.072 657.872 651.84 660.528 652.08C663.184 652.32 665.648 650.864 667.92 649.488C670.704 647.792 673.904 645.216 673.168 642.032C672.528 639.264 668.992 638.048 666.272 638.832C663.625 639.902 661.319 641.672 659.6 643.952C661.088 641.776 658.976 638.544 656.4 638.192C655.125 638.126 653.852 638.371 652.693 638.906C651.533 639.441 650.521 640.25 649.744 641.264C652.704 639.664 653.376 635.392 649.408 634.864C646.768 634.608 642.4 639.856 641.776 642.016Z" fill="#1B44DD"/>
<path d="M620.96 631.552C622.262 632.176 623.385 633.12 624.224 634.295C625.063 635.47 625.592 636.838 625.76 638.272C626.496 642.08 625.504 646.656 621.376 648.032C620.215 648.39 618.98 648.43 617.798 648.149C616.616 647.868 615.531 647.275 614.656 646.432C610.416 642.416 611.936 635.904 615.84 632.432C616.559 631.883 617.4 631.516 618.292 631.362C619.184 631.209 620.099 631.274 620.96 631.552Z" fill="#1B44DD"/>
<path d="M578.752 643.312C579.587 643.252 580.423 643.406 581.181 643.759C581.94 644.111 582.596 644.651 583.088 645.328C584.528 647.04 585.328 649.616 583.632 651.472C583.151 651.979 582.542 652.349 581.87 652.543C581.198 652.737 580.486 652.748 579.808 652.576C576.608 651.744 575.472 648.048 576.464 645.2C576.665 644.724 576.978 644.304 577.376 643.975C577.775 643.646 578.247 643.419 578.752 643.312Z" fill="#1B44DD"/>
<path d="M575.504 611.2C576.338 610.562 577.32 610.147 578.359 609.993C579.397 609.839 580.457 609.951 581.44 610.32C584.128 611.12 586.72 613.28 586.24 616.384C586.09 617.241 585.715 618.042 585.153 618.706C584.59 619.37 583.861 619.872 583.04 620.16C579.056 621.552 575.392 618.4 574.464 614.736C574.345 614.106 574.378 613.457 574.559 612.843C574.739 612.228 575.063 611.665 575.504 611.2Z" fill="#1B44DD"/>
<path d="M589.872 596.8C590.84 597.206 591.689 597.85 592.341 598.673C592.992 599.495 593.426 600.469 593.6 601.504C594.24 604.24 593.6 607.568 590.736 608.688C589.912 608.986 589.022 609.057 588.161 608.893C587.3 608.73 586.498 608.339 585.84 607.76C582.64 604.992 583.536 600.24 586.256 597.616C586.75 597.201 587.336 596.91 587.965 596.768C588.594 596.626 589.248 596.637 589.872 596.8Z" fill="#1B44DD"/>
<path d="M552.528 638.944C552.443 637.898 552.624 636.847 553.055 635.89C553.486 634.934 554.152 634.101 554.992 633.472C557.104 631.648 560.336 630.608 562.688 632.704C563.33 633.306 563.8 634.068 564.05 634.911C564.3 635.755 564.322 636.65 564.112 637.504C563.12 641.6 558.496 642.992 554.912 641.808C554.315 641.555 553.787 641.164 553.372 640.665C552.958 640.167 552.668 639.577 552.528 638.944Z" fill="#1B44DD"/>
<path d="M594.384 623.216L593.392 624.064C594.013 623.286 594.86 622.72 595.816 622.444C596.773 622.168 597.791 622.197 598.731 622.525C599.67 622.854 600.484 623.466 601.06 624.278C601.636 625.09 601.946 626.061 601.946 627.056C601.946 628.051 601.636 629.022 601.06 629.834C600.484 630.646 599.67 631.258 598.731 631.587C597.791 631.915 596.773 631.944 595.816 631.668C594.86 631.393 594.013 630.826 593.392 630.048C592.004 630.711 590.441 630.914 588.93 630.626C587.419 630.338 586.039 629.575 584.992 628.448C584.514 627.859 584.163 627.176 583.961 626.445C583.759 625.713 583.711 624.947 583.819 624.196C583.927 623.445 584.19 622.724 584.59 622.079C584.99 621.434 585.519 620.879 586.144 620.448C588.816 618.928 592.864 621.2 592.544 624.256L593.712 622.96L594.384 623.216Z" fill="#1B44DD"/>
<path d="M564.016 624.496C564.752 627.056 563.68 630.368 561.104 631.072C558.528 631.776 556.064 629.712 554.544 627.536C553.024 625.36 551.712 622.928 552.832 620.816C556.8 613.424 563.2 621.936 564.016 624.496Z" fill="#1B44DD"/>
<path d="M668.8 628.656C666.304 629.6 662.912 628.784 662 626.272C661.088 623.76 662.976 621.136 665.024 619.456C667.072 617.776 669.392 616.256 671.584 617.232C679.232 620.544 671.264 627.696 668.8 628.656Z" fill="#1B44DD"/>
<path d="M633.6 601.072C632 603.248 628.8 604.432 626.64 602.848C624.48 601.264 624.592 598.048 625.376 595.52C626.16 592.992 627.248 590.448 629.6 590.016C637.84 588.528 635.2 598.912 633.6 601.072Z" fill="#1B44DD"/>
<path d="M625.728 599.776C625.897 600.789 625.673 601.828 625.102 602.681C624.532 603.534 623.657 604.138 622.656 604.368C620.624 604.56 619.024 602.672 618.176 600.816C617.328 598.96 616.576 596.96 617.776 595.52C621.712 590.4 625.504 597.744 625.728 599.776Z" fill="#1B44DD"/>
<path d="M644.208 608C643.261 608.392 642.199 608.406 641.241 608.04C640.283 607.674 639.501 606.956 639.056 606.032C638.4 604.112 639.888 602.112 641.488 600.864C643.088 599.616 644.912 598.512 646.576 599.264C652.4 601.888 646.144 607.232 644.208 608Z" fill="#1B44DD"/>
<path d="M610.384 614.976C610.669 614.467 611.054 614.02 611.515 613.662C611.976 613.304 612.505 613.043 613.069 612.894C613.633 612.745 614.222 612.71 614.8 612.793C615.378 612.876 615.933 613.074 616.432 613.376C617.407 614.057 618.122 615.047 618.462 616.186C618.802 617.324 618.746 618.545 618.304 619.648C617.823 620.735 617.061 621.674 616.097 622.369C615.132 623.063 614 623.488 612.816 623.6C609.888 623.92 606.416 621.568 607.104 618.704C606.431 619.481 605.576 620.078 604.616 620.444C603.656 620.81 602.62 620.932 601.6 620.8C599.537 620.495 597.562 619.753 595.808 618.624C593.344 617.216 590.736 615.024 591.008 612.224C591.197 611.109 591.756 610.09 592.595 609.333C593.434 608.575 594.504 608.122 595.632 608.048C596.759 608.006 597.883 608.186 598.94 608.579C599.997 608.971 600.966 609.568 601.792 610.336C603.037 611.592 604.345 612.783 605.712 613.904C606.404 614.459 607.232 614.819 608.11 614.946C608.988 615.073 609.884 614.961 610.704 614.624L610.384 614.976Z" fill="#1B44DD"/>
<path d="M203.376 647.232L206.992 621.888L219.6 626.272L212.304 649.536L203.376 647.232Z" fill="#CB7A63"/>
<path d="M211.904 648.448L203.392 644.8C203.212 644.723 203.01 644.709 202.821 644.762C202.632 644.814 202.467 644.929 202.352 645.088L197.152 652.32C197.038 652.47 196.955 652.642 196.908 652.825C196.861 653.007 196.852 653.198 196.88 653.384C196.909 653.571 196.974 653.75 197.073 653.911C197.172 654.071 197.302 654.211 197.456 654.32C197.534 654.38 197.62 654.428 197.712 654.464C201.28 655.92 204.512 657.088 208.912 658.976C214.112 661.216 212.528 661.264 218.608 663.984C222.272 665.584 224.736 661.712 223.264 660.784C216.496 656.816 215.376 653.744 213.664 650C213.275 649.294 212.653 648.745 211.904 648.448Z" fill="#263238"/>
<path d="M267.2 432.176C267.2 432.176 256.576 520.928 241.6 562C226.624 603.072 218.992 628.8 218.992 628.8L206.4 625.152C206.4 625.152 210.88 573.952 220.256 546.752C220.688 545.52 221.12 544.352 221.568 543.232C224.239 536.546 225.534 529.39 225.376 522.192V521.968C225.072 509.168 224.8 490.208 225.488 479.664C224.438 463.643 227.663 447.63 234.832 433.264L267.2 432.176Z" fill="#263238"/>
<path opacity="0.1" d="M257.76 465.296L260.688 477.632C258.88 488.832 256.72 501.04 254.288 513.088C253.657 506.357 251.407 499.88 247.728 494.208C240.332 483.342 237.505 470.004 239.856 457.072L257.76 465.296Z" fill="black"/>
<path d="M221.392 625.744L219.104 631.104L205.008 627.264L205.552 621.424L221.392 625.744Z" fill="#263238"/>
<path opacity="0.6" d="M221.392 625.744L219.104 631.104L205.008 627.264L205.552 621.424L221.392 625.744Z" fill="white"/>
<path d="M316.784 596.784L321.12 627.52L312.576 628.72L303.088 598.288L316.784 596.784Z" fill="#CB7A63"/>
<path d="M320.64 624.496L311.216 626.096C311.016 626.131 310.833 626.232 310.697 626.383C310.561 626.533 310.479 626.725 310.464 626.928L309.984 636.112C309.966 636.308 309.988 636.505 310.048 636.693C310.109 636.88 310.206 637.053 310.334 637.203C310.462 637.352 310.619 637.474 310.795 637.561C310.972 637.649 311.163 637.7 311.36 637.712C311.466 637.728 311.574 637.728 311.68 637.712C315.584 636.992 319.04 636.192 323.936 635.392C329.696 634.432 328.352 635.392 335.136 634.336C339.232 633.712 339.2 628.944 337.44 628.992C329.344 629.312 326.64 627.28 323.12 624.944C322.378 624.491 321.493 624.331 320.64 624.496Z" fill="#263238"/>
<path d="M280.256 434.656C280.256 434.656 310.816 494.384 313.856 513.056C316.896 531.728 319.232 608.176 319.232 608.176L305.104 611.536C298.542 586.83 294.506 561.521 293.056 536C292.928 533.232 292.24 530.592 291.952 528C290.752 517.424 254.08 485.424 254.08 485.424C254.08 485.424 227.728 479.84 236.4 435.088L280.256 434.656Z" fill="#263238"/>
<path d="M320.032 605.072L320.32 611.088L305.92 613.84L303.36 608.256L320.032 605.072Z" fill="#263238"/>
<path opacity="0.6" d="M320.032 605.072L320.32 611.088L305.92 613.84L303.36 608.256L320.032 605.072Z" fill="white"/>
<path d="M235.04 383.056C235.04 383.056 244.784 404.544 248.24 409.616C251.696 414.688 287.456 427.392 287.456 427.392L293.744 432.4C294.082 432.671 294.472 432.87 294.89 432.985C295.307 433.101 295.744 433.13 296.174 433.072C296.603 433.014 297.016 432.869 297.388 432.646C297.759 432.423 298.082 432.127 298.336 431.776L301.536 427.328C301.824 426.932 302.016 426.475 302.1 425.992C302.183 425.509 302.154 425.014 302.016 424.544L301.664 423.36C301.473 422.716 301.084 422.149 300.553 421.738C300.022 421.328 299.375 421.095 298.704 421.072L290.176 420.784C290.176 420.784 260.128 407.888 257.2 402.848C254.272 397.808 247.376 380.016 247.376 380.016L235.04 383.056Z" fill="#CB7A63"/>
<path d="M229.12 363.008C229.12 363.008 222.912 366.512 236.704 393.232C236.704 393.232 240.8 395.152 252.864 388.032C252.8 388.032 248.464 366.4 229.12 363.008Z" fill="#1B44DD"/>
<path opacity="0.4" d="M229.12 363.008C229.12 363.008 222.912 366.512 236.704 393.232C236.704 393.232 240.8 395.152 252.864 388.032C252.8 388.032 248.464 366.4 229.12 363.008Z" fill="white"/>
<path d="M265.216 322.336C265.698 322.357 266.179 322.269 266.622 322.077C267.066 321.886 267.46 321.597 267.776 321.232C267.627 321.752 267.305 322.206 266.862 322.517C266.42 322.829 265.884 322.979 265.344 322.944L265.216 322.336Z" fill="#263238"/>
<path d="M267.984 323.472C268.176 324.176 267.984 324.832 267.504 324.96C267.024 325.088 266.496 324.592 266.336 323.92C266.176 323.248 266.336 322.56 266.816 322.448C267.296 322.336 267.792 322.784 267.984 323.472Z" fill="#263238"/>
<path d="M265.76 326.08L270.352 330.88C270.352 330.88 270.16 332.656 267.44 332.256L265.76 326.08Z" fill="#D4827D"/>
<path d="M263.44 321.6C263.501 321.606 263.563 321.596 263.619 321.571C263.675 321.545 263.724 321.506 263.76 321.456C264.037 321.075 264.4 320.765 264.82 320.55C265.24 320.336 265.705 320.224 266.176 320.224C266.273 320.229 266.368 320.197 266.442 320.134C266.516 320.072 266.564 319.984 266.576 319.888C266.581 319.787 266.547 319.688 266.482 319.611C266.416 319.534 266.324 319.484 266.224 319.472C265.623 319.471 265.031 319.617 264.499 319.895C263.966 320.174 263.51 320.578 263.168 321.072C263.1 321.143 263.063 321.238 263.063 321.336C263.063 321.434 263.1 321.529 263.168 321.6C263.211 321.619 263.257 321.629 263.304 321.629C263.351 321.629 263.397 321.619 263.44 321.6Z" fill="#263238"/>
<path d="M238.64 327.456C240.24 337.632 240.768 341.984 246.464 346.656C254.896 351.216 267.264 349.536 268.608 339.056C269.888 329.648 267.008 314.624 256.544 311.488C254.245 310.801 251.81 310.713 249.467 311.231C247.125 311.75 244.954 312.858 243.161 314.452C241.367 316.045 240.01 318.07 239.219 320.334C238.428 322.599 238.229 325.029 238.64 327.392V327.456Z" fill="#CB7A63"/>
<path d="M243.776 340.88C243.776 340.88 246.976 354.064 242.064 359.072L259.664 359.936C259.664 359.936 253.472 355.664 256.048 343.456C252.412 341.12 248.044 340.203 243.776 340.88Z" fill="#CB7A63"/>
<path d="M280.64 434.512C280.64 434.512 280.896 415.824 280.48 401.248C280.32 395.584 282.368 393.92 282.08 387.36C281.904 382.384 278.88 377.296 278.256 374.256C276.56 365.792 277.136 354.864 264.432 356.912L233.328 359.28C232.332 359.356 231.364 359.651 230.495 360.144C229.626 360.637 228.877 361.316 228.3 362.132C227.724 362.948 227.335 363.882 227.162 364.866C226.988 365.85 227.034 366.86 227.296 367.824C230.96 381.168 237.696 409.184 233.504 435.984L280.64 434.512Z" fill="#1B44DD"/>
<path opacity="0.4" d="M280.64 434.512C280.64 434.512 280.896 415.824 280.48 401.248C280.32 395.584 282.368 393.92 282.08 387.36C281.904 382.384 278.88 377.296 278.256 374.256C276.56 365.792 277.136 354.864 264.432 356.912L233.328 359.28C232.332 359.356 231.364 359.651 230.495 360.144C229.626 360.637 228.877 361.316 228.3 362.132C227.724 362.948 227.335 363.882 227.162 364.866C226.988 365.85 227.034 366.86 227.296 367.824C230.96 381.168 237.696 409.184 233.504 435.984L280.64 434.512Z" fill="black"/>
<path d="M250.08 309.2C251.985 308.617 253.988 308.423 255.97 308.629C257.952 308.834 259.872 309.435 261.618 310.395C263.363 311.356 264.898 312.657 266.132 314.222C267.366 315.786 268.273 317.583 268.8 319.504C270.288 315.824 268.096 311.12 265.168 308.416C263.661 307.117 261.886 306.167 259.969 305.633C258.052 305.099 256.041 304.995 254.08 305.328C252.931 305.426 251.828 305.823 250.88 306.48C250.485 306.797 250.196 307.228 250.053 307.714C249.91 308.201 249.919 308.719 250.08 309.2Z" fill="#263238"/>
<path d="M262.4 310.96C257.28 305.104 247.504 303.344 243.584 308.48C240.384 306.416 229.712 309.392 227.664 314.208C222.384 326.624 227.056 339.696 244.656 347.808C244.656 347.808 256.032 349.072 255.952 340.704C255.808 324.704 261.2 337.664 264.768 320.976C265.114 319.234 265.082 317.438 264.674 315.71C264.265 313.982 263.49 312.362 262.4 310.96Z" fill="#263238"/>
<path d="M260.88 329.04C261.524 331.098 261.456 333.313 260.688 335.328C261.161 334.949 261.532 334.458 261.767 333.899C262.002 333.34 262.093 332.731 262.032 332.128C262.104 331.558 262.036 330.98 261.836 330.442C261.635 329.904 261.307 329.423 260.88 329.04Z" fill="#263238"/>
<path d="M260.304 328.56C261.938 329.94 263.064 331.827 263.504 333.92C263.691 333.352 263.734 332.747 263.631 332.158C263.528 331.569 263.281 331.014 262.912 330.544C262.256 329.488 261.568 328.608 260.304 328.56Z" fill="#263238"/>
<path d="M260 327.728C260.544 328.528 260.925 329.427 261.12 330.374C261.315 331.322 261.32 332.298 261.136 333.248C260.624 335.792 258.048 335.904 256.256 334.224C254.464 332.544 252.96 329.584 254.416 327.488C254.737 327.035 255.167 326.669 255.666 326.425C256.166 326.18 256.718 326.065 257.273 326.089C257.828 326.112 258.369 326.275 258.845 326.561C259.321 326.848 259.718 327.249 260 327.728Z" fill="#CB7A63"/>
<path d="M266.704 384.48L256.992 404.544C255.856 414.144 254.272 443.392 254.272 443.392L258.208 453.088C258.446 453.67 258.486 454.315 258.321 454.923C258.156 455.53 257.796 456.066 257.296 456.448L256.288 457.216C255.977 457.448 255.623 457.616 255.247 457.709C254.87 457.803 254.479 457.82 254.096 457.76L247.696 456.72C247.313 456.659 246.946 456.521 246.618 456.313C246.29 456.105 246.008 455.833 245.789 455.512C245.57 455.191 245.419 454.829 245.346 454.448C245.272 454.067 245.277 453.675 245.36 453.296L247.696 442.208C247.696 442.208 244.608 408.96 245.696 402.496C246.784 396.032 253.152 380.88 253.152 380.88L266.704 384.48Z" fill="#CB7A63"/>
<path d="M276.16 364.144C275.632 369.536 273.68 378.544 267.6 391.808C267.6 391.808 256.4 391.984 248.736 386.416C248.736 386.416 253.68 359.664 269.056 357.264C270 357.135 270.96 357.223 271.865 357.519C272.77 357.816 273.596 358.315 274.28 358.977C274.964 359.64 275.489 360.449 275.815 361.344C276.14 362.239 276.258 363.197 276.16 364.144Z" fill="#1B44DD"/>
<path opacity="0.3" d="M276.16 364.144C275.632 369.536 273.68 378.544 267.6 391.808C267.6 391.808 256.4 391.984 248.736 386.416C248.736 386.416 253.68 359.664 269.056 357.264C270 357.135 270.96 357.223 271.865 357.519C272.77 357.816 273.596 358.315 274.28 358.977C274.964 359.64 275.489 360.449 275.815 361.344C276.14 362.239 276.258 363.197 276.16 364.144Z" fill="black"/>
<path opacity="0.1" d="M255.36 349.088C255.36 349.088 254.992 345.568 255.024 343.456C255.024 343.456 257.6 348.128 261.424 347.808L263.152 347.392C260.743 348.617 258.06 349.201 255.36 349.088Z" fill="black"/>
<path d="M320.64 624.496L311.216 626.096C311.016 626.131 310.833 626.232 310.697 626.383C310.561 626.533 310.479 626.725 310.464 626.928L309.984 636.112C309.966 636.308 309.988 636.505 310.048 636.693C310.109 636.88 310.206 637.053 310.334 637.203C310.462 637.352 310.619 637.474 310.795 637.561C310.972 637.649 311.163 637.7 311.36 637.712C311.466 637.728 311.574 637.728 311.68 637.712C315.584 636.992 319.04 636.192 323.936 635.392C329.696 634.432 328.352 635.392 335.136 634.336C339.232 633.712 339.2 628.944 337.44 628.992C329.344 629.312 326.64 627.28 323.12 624.944C322.378 624.491 321.493 624.331 320.64 624.496Z" fill="#263238"/>
</svg>
