<svg width="63" height="41" viewBox="0 0 63 41" fill="none" xmlns="http://www.w3.org/2000/svg">
<rect width="63" height="40" transform="translate(0 0.718994)" />
<g clip-path="url(#clip0_20_7124)">
<mask id="mask0_20_7124" style="mask-type:alpha" maskUnits="userSpaceOnUse" x="21" y="10" width="21" height="21">
<circle cx="31.5" cy="20.719" r="10" fill="#C4C4C4"/>
</mask>
<g mask="url(#mask0_20_7124)">
<path d="M40.5 20.719C40.5 21.9009 40.2672 23.0712 39.8149 24.1631C39.3626 25.2551 38.6997 26.2472 37.864 27.083C37.0282 27.9187 36.0361 28.5816 34.9442 29.0339C33.8522 29.4862 32.6819 29.719 31.5 29.719C30.3181 29.719 29.1478 29.4862 28.0558 29.0339C26.9639 28.5816 25.9718 27.9187 25.136 27.083C24.3003 26.2472 23.6374 25.2551 23.1851 24.1631C22.7328 23.0712 22.5 21.9009 22.5 20.719C22.5 19.5371 22.7328 18.3668 23.1851 17.2748C23.6374 16.1829 24.3003 15.1908 25.136 14.355C25.9718 13.5193 26.9639 12.8564 28.0559 12.4041C29.1478 11.9518 30.3181 11.719 31.5 11.719C32.6819 11.719 33.8522 11.9518 34.9442 12.4041C36.0361 12.8564 37.0282 13.5193 37.864 14.355C38.6997 15.1908 39.3626 16.1829 39.8149 17.2748C40.2672 18.3668 40.5 19.5371 40.5 20.719L40.5 20.719Z" stroke="#2CD668" stroke-width="2"/>
<path d="M27.5 20.719L30.5 23.719L36.5 17.719" stroke="#2CD668" stroke-width="2.4" stroke-linecap="round" stroke-linejoin="round"/>
</g>
</g>
<defs>
<clipPath id="clip0_20_7124">
<rect width="24" height="24" fill="white" transform="translate(19.5 8.71899)"/>
</clipPath>
</defs>
</svg>
