<svg width="63" height="41" viewBox="0 0 63 41" fill="none" xmlns="http://www.w3.org/2000/svg">
<rect width="63" height="40" transform="translate(0 0.718994)" />
<g clip-path="url(#clip0_20_7125)">
<mask id="mask0_20_7125" style="mask-type:alpha" maskUnits="userSpaceOnUse" x="21" y="10" width="21" height="21">
<circle cx="31.5" cy="20.719" r="10" fill="#C4C4C4"/>
</mask>
<g mask="url(#mask0_20_7125)">
<path fill-rule="evenodd" clip-rule="evenodd" d="M27.1944 17.8023C26.8109 17.4188 26.8109 16.797 27.1944 16.4134C27.578 16.0299 28.1998 16.0299 28.5833 16.4134L30.7929 18.623C31.1834 19.0135 31.8166 19.0135 32.2071 18.623L34.4167 16.4134C34.8002 16.0299 35.422 16.0299 35.8056 16.4134C36.1891 16.797 36.1891 17.4188 35.8056 17.8023L33.596 20.0119C33.2055 20.4024 33.2055 21.0356 33.596 21.4261L35.8056 23.6357C36.1891 24.0192 36.1891 24.641 35.8056 25.0246C35.422 25.4081 34.8002 25.4081 34.4167 25.0246L32.2071 22.815C31.8166 22.4245 31.1834 22.4245 30.7929 22.815L28.5833 25.0246C28.1998 25.4081 27.578 25.4081 27.1944 25.0246C26.8109 24.641 26.8109 24.0192 27.1944 23.6357L29.404 21.4261C29.7945 21.0356 29.7945 20.4024 29.404 20.0119L27.1944 17.8023Z" fill="#FF6976" stroke="#FF6976" stroke-width="0.7" stroke-linecap="round" stroke-linejoin="round"/>
<path d="M40.5 20.719C40.5 21.9009 40.2672 23.0712 39.8149 24.1631C39.3626 25.2551 38.6997 26.2472 37.864 27.083C37.0282 27.9187 36.0361 28.5816 34.9442 29.0339C33.8522 29.4862 32.6819 29.719 31.5 29.719C30.3181 29.719 29.1478 29.4862 28.0558 29.0339C26.9639 28.5816 25.9718 27.9187 25.136 27.083C24.3003 26.2472 23.6374 25.2551 23.1851 24.1631C22.7328 23.0712 22.5 21.9009 22.5 20.719C22.5 19.5371 22.7328 18.3668 23.1851 17.2748C23.6374 16.1829 24.3003 15.1908 25.136 14.355C25.9718 13.5193 26.9639 12.8564 28.0559 12.4041C29.1478 11.9518 30.3181 11.719 31.5 11.719C32.6819 11.719 33.8522 11.9518 34.9442 12.4041C36.0361 12.8564 37.0282 13.5193 37.864 14.355C38.6997 15.1908 39.3626 16.1829 39.8149 17.2748C40.2672 18.3668 40.5 19.5371 40.5 20.719L40.5 20.719Z" stroke="#FF6976" stroke-width="2"/>
</g>
</g>
<defs>
<clipPath id="clip0_20_7125">
<rect width="24" height="24" fill="white" transform="translate(19.5 8.71899)"/>
</clipPath>
</defs>
</svg>
