<svg viewBox="0 0 800 800" fill="none" xmlns="http://www.w3.org/2000/svg">
<path d="M800 611.84H0V612.24H800V611.84Z" fill="#EBEBEB"/>
<path d="M694.064 628.864H641.072V629.264H694.064V628.864Z" fill="#EBEBEB"/>
<path d="M500.912 628.672H487.008V629.072H500.912V628.672Z" fill="#EBEBEB"/>
<path d="M719.84 637.584H689.136V637.984H719.84V637.584Z" fill="#EBEBEB"/>
<path d="M183.36 642.896H114.256V643.296H183.36V642.896Z" fill="#EBEBEB"/>
<path d="M177.424 625.424H167.296V625.824H177.424V625.424Z" fill="#EBEBEB"/>
<path d="M397.52 627.136H300.08V627.536H397.52V627.136Z" fill="#EBEBEB"/>
<path d="M379.2 540.48H70.256C67.8357 540.476 65.5161 539.511 63.8062 537.798C62.0963 536.086 61.136 533.764 61.136 531.344V97.056C61.1571 94.6496 62.1267 92.3488 63.8343 90.6531C65.5419 88.9575 67.8495 88.0041 70.256 88H379.2C381.623 88 383.947 88.9625 385.66 90.6759C387.373 92.3892 388.336 94.713 388.336 97.136V531.344C388.336 533.767 387.373 536.091 385.66 537.804C383.947 539.517 381.623 540.48 379.2 540.48ZM70.256 88.32C67.9418 88.3242 65.7239 89.2465 64.089 90.8844C62.4542 92.5222 61.536 94.7418 61.536 97.056V531.344C61.536 533.658 62.4542 535.878 64.089 537.516C65.7239 539.154 67.9418 540.076 70.256 540.08H379.2C381.516 540.076 383.735 539.154 385.373 537.517C387.01 535.879 387.932 533.66 387.936 531.344V97.056C387.932 94.7404 387.01 92.5208 385.373 90.8834C383.735 89.246 381.516 88.3242 379.2 88.32H70.256Z" fill="#EBEBEB"/>
<path d="M725.296 540.48H416.336C413.914 540.476 411.593 539.512 409.881 537.799C408.168 536.087 407.204 533.766 407.2 531.344V97.056C407.225 94.6482 408.198 92.3473 409.909 90.6521C411.619 88.957 413.928 88.0041 416.336 88H725.296C727.7 88.0083 730.003 88.9636 731.707 90.6588C733.411 92.3539 734.379 94.6524 734.4 97.056V531.344C734.4 533.761 733.442 536.08 731.735 537.793C730.029 539.505 727.713 540.472 725.296 540.48ZM416.336 88.32C414.02 88.3242 411.801 89.246 410.163 90.8834C408.526 92.5208 407.604 94.7404 407.6 97.056V531.344C407.604 533.66 408.526 535.879 410.163 537.517C411.801 539.154 414.02 540.076 416.336 540.08H725.296C727.612 540.076 729.831 539.154 731.469 537.517C733.106 535.879 734.028 533.66 734.032 531.344V97.056C734.028 94.7404 733.106 92.5208 731.469 90.8834C729.831 89.246 727.612 88.3242 725.296 88.32H416.336Z" fill="#EBEBEB"/>
<path d="M686.224 154.128H113.776V392.352H686.224V154.128Z" fill="#F0F0F0"/>
<path d="M675.024 381.168V165.344L124.976 165.344V381.168H675.024Z" fill="#FAFAFA"/>
<path d="M197.392 381.152L253.808 165.328H295.408L238.992 381.152H197.392Z" fill="white"/>
<path d="M248.592 381.152L305.008 165.328H323.616L267.2 381.152H248.592Z" fill="white"/>
<path d="M339.632 381.152L396.064 165.328H437.664L381.232 381.152H339.632Z" fill="white"/>
<path d="M444.528 381.152L500.944 165.328H519.568L463.136 381.152H444.528Z" fill="white"/>
<path d="M272.336 381.168V165.344H269.488V381.168H272.336Z" fill="#E0E0E0"/>
<path d="M127.824 381.168L127.824 165.344H124.976L124.976 381.168H127.824Z" fill="#E0E0E0"/>
<path d="M269.488 381.168V165.344H258.288V381.168H269.488Z" fill="#F0F0F0"/>
<path d="M411.2 381.168V165.344H408.352V381.168H411.2Z" fill="#E0E0E0"/>
<path d="M408.352 381.168V165.344H397.152V381.168H408.352Z" fill="#F0F0F0"/>
<path d="M550.128 381.152V165.328H547.28V381.152H550.128Z" fill="#E0E0E0"/>
<path d="M547.28 381.152V165.328H536.08V381.152H547.28Z" fill="#F0F0F0"/>
<path d="M689.072 392.352V154.128H686.224V392.352H689.072Z" fill="#E0E0E0"/>
<path d="M695.472 137.776H104.528C103.872 137.772 103.243 137.509 102.779 137.045C102.315 136.581 102.052 135.952 102.048 135.296C102.048 134.637 102.309 134.004 102.773 133.537C103.238 133.069 103.869 132.804 104.528 132.8H695.472C696.131 132.804 696.762 133.069 697.227 133.537C697.691 134.004 697.952 134.637 697.952 135.296C697.948 135.952 697.685 136.581 697.221 137.045C696.757 137.509 696.129 137.772 695.472 137.776Z" fill="#E0E0E0"/>
<g opacity="0.6">
<path d="M227.744 128H106.848V562.672H227.744V128Z" fill="#F5F5F5"/>
<path d="M172.352 566.224H162.224L165.072 131.552H169.6L172.352 566.224Z" fill="#E6E6E6"/>
<path d="M138.8 566.224H133.904L135.28 131.552H137.472L138.8 566.224Z" fill="#E6E6E6"/>
<path d="M206 566.224H201.104L202.48 131.552H204.672L206 566.224Z" fill="#E6E6E6"/>
</g>
<g opacity="0.6">
<path d="M691.712 128H570.816V562.672H691.712V128Z" fill="#F5F5F5"/>
<path d="M618.192 566.224H608.064L610.912 131.552H615.44L618.192 566.224Z" fill="#E6E6E6"/>
<path d="M595.84 566.224H590.96L592.32 131.552H594.512L595.84 566.224Z" fill="#E6E6E6"/>
<path d="M647.568 566.224H642.688L644.064 131.552H646.24L647.568 566.224Z" fill="#E6E6E6"/>
<path d="M672.464 566.224H667.584L668.944 131.552H671.136L672.464 566.224Z" fill="#E6E6E6"/>
</g>
<path d="M520.336 609.12H543.056V478.912H520.336V609.12Z" fill="#E6E6E6"/>
<path d="M256.944 609.12H529.088V478.912H256.944V609.12Z" fill="#F0F0F0"/>
<path d="M522.976 609.12H514.784H268.688V611.84H514.784H522.976H531.312V609.12H522.976Z" fill="#E0E0E0"/>
<path opacity="0.5" d="M264.704 539.6H521.328V487.056H264.704V539.6Z" fill="#FAFAFA"/>
<path opacity="0.5" d="M264.704 600.624H521.328V548.08H264.704V600.624Z" fill="#FAFAFA"/>
<path d="M303.6 513.328C303.6 514.47 303.261 515.587 302.626 516.537C301.992 517.487 301.09 518.227 300.034 518.664C298.979 519.101 297.817 519.216 296.697 518.993C295.577 518.77 294.547 518.22 293.74 517.412C292.932 516.604 292.382 515.575 292.159 514.455C291.936 513.334 292.05 512.173 292.488 511.118C292.925 510.062 293.665 509.16 294.615 508.525C295.565 507.891 296.681 507.552 297.824 507.552C298.582 507.552 299.333 507.701 300.034 507.992C300.735 508.282 301.372 508.707 301.908 509.244C302.444 509.78 302.87 510.417 303.16 511.118C303.45 511.818 303.6 512.569 303.6 513.328Z" fill="#E0E0E0"/>
<path d="M493.968 513.328C493.968 514.47 493.629 515.587 492.995 516.537C492.36 517.487 491.458 518.227 490.402 518.664C489.347 519.101 488.186 519.216 487.065 518.993C485.945 518.77 484.916 518.22 484.108 517.412C483.3 516.604 482.75 515.575 482.527 514.455C482.304 513.334 482.418 512.173 482.856 511.118C483.293 510.062 484.033 509.16 484.983 508.525C485.933 507.891 487.05 507.552 488.192 507.552C488.951 507.552 489.702 507.701 490.402 507.992C491.103 508.282 491.74 508.707 492.276 509.244C492.813 509.78 493.238 510.417 493.528 511.118C493.819 511.818 493.968 512.569 493.968 513.328Z" fill="#E0E0E0"/>
<path d="M297.824 580.128C301.014 580.128 303.6 577.542 303.6 574.352C303.6 571.162 301.014 568.576 297.824 568.576C294.634 568.576 292.048 571.162 292.048 574.352C292.048 577.542 294.634 580.128 297.824 580.128Z" fill="#E0E0E0"/>
<path d="M493.968 574.4C493.968 575.542 493.629 576.659 492.995 577.609C492.36 578.559 491.458 579.299 490.402 579.736C489.347 580.173 488.186 580.288 487.065 580.065C485.945 579.842 484.916 579.292 484.108 578.484C483.3 577.676 482.75 576.647 482.527 575.527C482.304 574.406 482.418 573.245 482.856 572.19C483.293 571.134 484.033 570.232 484.983 569.597C485.933 568.963 487.05 568.624 488.192 568.624C489.724 568.624 491.193 569.233 492.276 570.316C493.359 571.399 493.968 572.868 493.968 574.4Z" fill="#E0E0E0"/>
<path d="M398.784 513.328C398.784 514.47 398.445 515.587 397.81 516.537C397.176 517.487 396.274 518.227 395.218 518.664C394.163 519.101 393.002 519.216 391.881 518.993C390.761 518.77 389.731 518.22 388.924 517.412C388.116 516.604 387.566 515.575 387.343 514.455C387.12 513.334 387.234 512.173 387.672 511.118C388.109 510.062 388.849 509.16 389.799 508.525C390.749 507.891 391.866 507.552 393.008 507.552C393.766 507.552 394.518 507.701 395.218 507.992C395.919 508.282 396.556 508.707 397.092 509.244C397.629 509.78 398.054 510.417 398.344 511.118C398.635 511.818 398.784 512.569 398.784 513.328Z" fill="#E0E0E0"/>
<path d="M393.008 580.128C396.198 580.128 398.784 577.542 398.784 574.352C398.784 571.162 396.198 568.576 393.008 568.576C389.818 568.576 387.232 571.162 387.232 574.352C387.232 577.542 389.818 580.128 393.008 580.128Z" fill="#E0E0E0"/>
<path d="M512.256 456.8C512.256 462.665 509.926 468.289 505.78 472.436C501.633 476.582 496.008 478.912 490.144 478.912C484.28 478.912 478.655 476.582 474.508 472.436C470.362 468.289 468.032 462.665 468.032 456.8H512.256Z" fill="#F0F0F0"/>
<path d="M337.424 452.8C337.424 459.713 334.678 466.342 329.79 471.23C324.902 476.118 318.273 478.864 311.36 478.864C304.447 478.864 297.818 476.118 292.93 471.23C288.042 466.342 285.296 459.713 285.296 452.8H337.424Z" fill="#F0F0F0"/>
<path d="M449.472 463.568C449.472 467.638 447.855 471.54 444.978 474.418C442.1 477.295 438.197 478.912 434.128 478.912C430.058 478.912 426.156 477.295 423.278 474.418C420.401 471.54 418.784 467.638 418.784 463.568H449.472Z" fill="#F0F0F0"/>
<path d="M400 684.096C571.332 684.096 710.224 675.987 710.224 665.984C710.224 655.981 571.332 647.872 400 647.872C228.668 647.872 89.7759 655.981 89.7759 665.984C89.7759 675.987 228.668 684.096 400 684.096Z" fill="#F5F5F5"/>
<path d="M557.04 184.576C553.632 181.168 547.072 168.256 553.36 162.176C559.648 156.096 565.248 161.616 565.68 164.576C566.112 167.536 564.96 192.48 557.04 184.576Z" fill="#263238"/>
<path d="M555.6 649.04L541.312 649.168L537.424 616.144L551.696 616.016L555.6 649.04Z" fill="#FF8B7B"/>
<path d="M541.296 647.52L556.88 647.376C557.167 647.38 557.446 647.475 557.676 647.648C557.906 647.82 558.076 648.061 558.16 648.336L561.936 660.992C562.036 661.287 562.064 661.601 562.017 661.909C561.97 662.216 561.85 662.508 561.666 662.759C561.483 663.01 561.241 663.214 560.962 663.352C560.683 663.49 560.375 663.558 560.064 663.552C554.448 663.552 546.288 663.248 539.264 663.312C531.008 663.312 527.328 663.888 517.632 663.984C511.776 663.984 509.632 658.128 512.112 657.584C523.104 655.04 528.784 654.704 537.984 648.672C538.952 647.974 540.103 647.573 541.296 647.52Z" fill="#263238"/>
<path opacity="0.2" d="M537.424 616.16L539.44 633.184L553.712 633.056L551.712 616.032L537.424 616.16Z" fill="black"/>
<path d="M535.392 650.064C536.933 650.036 538.466 649.849 539.968 649.504C540.039 649.494 540.105 649.459 540.154 649.407C540.203 649.355 540.234 649.288 540.24 649.216C540.247 649.147 540.232 649.078 540.197 649.018C540.163 648.957 540.111 648.909 540.048 648.88C539.376 648.544 533.376 645.68 531.728 646.688C531.576 646.785 531.451 646.92 531.367 647.08C531.283 647.24 531.242 647.419 531.248 647.6C531.244 647.908 531.312 648.212 531.445 648.49C531.578 648.767 531.774 649.01 532.016 649.2C533.017 649.849 534.203 650.153 535.392 650.064ZM538.816 649.04C535.728 649.584 533.376 649.472 532.416 648.704C532.25 648.574 532.118 648.406 532.031 648.213C531.945 648.021 531.907 647.81 531.92 647.6C531.911 647.534 531.921 647.468 531.949 647.408C531.978 647.348 532.023 647.298 532.08 647.264C532.976 646.72 536.368 648 538.816 649.04Z" fill="#1B44DD"/>
<path d="M539.904 649.6C539.98 649.594 540.052 649.567 540.112 649.52C540.161 649.484 540.197 649.434 540.217 649.377C540.237 649.32 540.239 649.258 540.224 649.2C540.224 648.944 539.104 642.8 535.712 643.184C534.816 643.28 534.56 643.744 534.512 644.096C534.272 645.696 537.936 648.8 539.76 649.568L539.904 649.6ZM536 643.84C538.048 643.84 539.072 647.184 539.424 648.64C537.536 647.584 535.04 645.152 535.184 644.192C535.184 644.192 535.184 643.92 535.792 643.856L536 643.84Z" fill="#1B44DD"/>
<path d="M545.504 256.688L544.032 258.288L542.656 259.648C541.744 260.544 540.8 261.392 539.856 262.224C537.979 263.909 536.059 265.509 534.096 267.024C530.135 270.172 525.966 273.048 521.616 275.632C519.424 276.928 517.168 278.16 514.88 279.328C512.592 280.496 510.176 281.504 507.744 282.528C502.757 284.518 497.561 285.94 492.256 286.768L491.072 286.944C490.303 287.043 489.528 287.091 488.752 287.088C486.97 287.071 485.207 286.724 483.552 286.064C481.911 285.405 480.408 284.445 479.12 283.232C478.095 282.254 477.202 281.146 476.464 279.936C475.442 278.18 474.672 276.29 474.176 274.32C473.788 272.794 473.505 271.244 473.328 269.68C473.037 266.976 472.957 264.253 473.088 261.536C473.2 258.944 473.408 256.448 473.696 254C474.304 249.088 475.168 244.4 476.224 239.6C477.28 234.8 478.48 230.368 480.032 225.728L490.544 227.808C490.16 236.8 489.728 246.016 490.016 254.72C490.069 258.762 490.497 262.79 491.296 266.752C491.454 267.484 491.673 268.201 491.952 268.896C492.176 269.44 492.448 269.776 492.432 269.632C492.339 269.388 492.191 269.169 492 268.992C491.565 268.571 491.055 268.234 490.496 268C489.921 267.758 489.31 267.612 488.688 267.568C488.4 267.568 488.272 267.568 488.096 267.568H488.272L488.608 267.472C492.398 266.498 496.085 265.159 499.616 263.472C503.311 261.689 506.886 259.669 510.32 257.424C513.792 255.12 517.216 252.624 520.512 249.984C522.112 248.672 523.792 247.296 525.312 245.904L527.648 243.792L528.768 242.752L529.744 241.824L545.504 256.688Z" fill="#FF8B7B"/>
<path d="M553.968 251.04C553.424 235.952 541.04 230.704 525.52 240.992C518.678 245.33 512.091 250.058 505.792 255.152L515.824 287.376C515.824 287.376 535.024 281.28 546.128 269.312C553.6 261.184 554.16 256.176 553.968 251.04Z" fill="#263238"/>
<path opacity="0.2" d="M535.072 257.472C535.072 257.472 525.808 270.72 522.528 284.8C527.083 282.858 531.471 280.546 535.648 277.888L535.072 257.472Z" fill="black"/>
<path d="M490.016 232.592L495.392 220.448L480.176 216C480.176 216 477.568 221.808 479.056 231.776L490.016 232.592Z" fill="#FF8B7B"/>
<path d="M497.008 206.208L483.776 207.792L480.176 216L495.392 220.448L497.008 206.208Z" fill="#FF8B7B"/>
<path d="M535.168 360.416C535.168 360.416 525.344 442.752 524.256 486.816C523.136 532.592 532.112 624.928 532.112 624.928L557.888 624.384C557.888 624.384 560.992 525.536 564.736 480.24C568.8 430.864 579.04 359.52 579.04 359.52L535.168 360.416Z" fill="#1B44DD"/>
<path opacity="0.6" d="M535.168 360.416C535.168 360.416 525.344 442.752 524.256 486.816C523.136 532.592 532.112 624.928 532.112 624.928L557.888 624.384C557.888 624.384 560.992 525.536 564.736 480.24C568.8 430.864 579.04 359.52 579.04 359.52L535.168 360.416Z" fill="white"/>
<path opacity="0.2" d="M565.872 383.728C554.352 409.12 557.44 465.84 563.984 490.16C564.224 486.624 564.48 483.28 564.736 480.192C567.408 447.648 572.736 405.584 576.112 380.672C572.976 376.128 569.472 375.776 565.872 383.728Z" fill="black"/>
<path d="M561.056 625.488L530.752 626.096L528.512 616.032L560.688 615.952L561.056 625.488Z" fill="#1B44DD"/>
<path d="M619.264 649.04L604.992 649.168L601.104 616.144L615.376 616.016L619.264 649.04Z" fill="#FF8B7B"/>
<path d="M604.96 647.52L620.56 647.376C620.847 647.383 621.124 647.479 621.354 647.651C621.583 647.823 621.753 648.063 621.84 648.336L625.616 660.992C625.713 661.286 625.738 661.6 625.689 661.906C625.64 662.212 625.52 662.502 625.337 662.752C625.154 663.002 624.914 663.205 624.637 663.345C624.36 663.484 624.054 663.555 623.744 663.552C618.112 663.552 609.968 663.248 602.944 663.312C594.688 663.312 590.992 663.888 581.312 663.984C575.456 663.984 573.312 658.128 575.792 657.584C586.768 655.04 592.448 654.704 601.664 648.672C602.626 647.974 603.772 647.574 604.96 647.52Z" fill="#263238"/>
<path opacity="0.2" d="M601.104 616.16L603.104 633.184L617.392 633.056L615.392 616.032L601.104 616.16Z" fill="black"/>
<path d="M599.072 650.064C600.613 650.034 602.146 649.847 603.648 649.504C603.718 649.493 603.781 649.458 603.828 649.406C603.874 649.353 603.901 649.286 603.904 649.216C603.914 649.149 603.903 649.08 603.871 649.019C603.84 648.959 603.789 648.91 603.728 648.88C603.04 648.544 597.04 645.68 595.408 646.688C595.253 646.783 595.127 646.918 595.043 647.078C594.958 647.239 594.919 647.419 594.928 647.6C594.925 647.906 594.991 648.209 595.121 648.486C595.251 648.763 595.442 649.007 595.68 649.2C596.688 649.847 597.878 650.15 599.072 650.064ZM602.496 649.04C599.408 649.584 597.056 649.472 596.096 648.704C595.931 648.572 595.799 648.404 595.71 648.212C595.621 648.021 595.578 647.811 595.584 647.6C595.575 647.534 595.585 647.468 595.613 647.408C595.642 647.348 595.687 647.298 595.744 647.264C596.64 646.72 600 648 602.496 649.04Z" fill="#1B44DD"/>
<path d="M603.568 649.6C603.617 649.598 603.666 649.586 603.71 649.565C603.754 649.543 603.793 649.512 603.825 649.475C603.857 649.437 603.88 649.393 603.894 649.346C603.907 649.298 603.911 649.249 603.904 649.2C603.904 648.944 602.784 642.8 599.392 643.184C598.496 643.28 598.24 643.744 598.176 644.096C597.952 645.696 601.616 648.8 603.44 649.568L603.568 649.6ZM599.68 643.84C601.712 643.84 602.752 647.184 603.104 648.64C601.216 647.584 598.704 645.152 598.848 644.192C598.848 644.192 598.848 643.92 599.456 643.856L599.68 643.84Z" fill="#1B44DD"/>
<path d="M560.32 359.872C560.32 359.872 567.44 448.464 572.64 492.176C578.032 537.648 595.792 624.88 595.792 624.88L621.568 624.336C621.568 624.336 614.496 525.296 611.76 479.92C608.768 430.4 608 358.784 608 358.784L560.32 359.872Z" fill="#1B44DD"/>
<path opacity="0.6" d="M560.32 359.872C560.32 359.872 567.44 448.464 572.64 492.176C578.032 537.648 595.792 624.88 595.792 624.88L621.568 624.336C621.568 624.336 614.496 525.296 611.76 479.92C608.768 430.4 608 358.784 608 358.784L560.32 359.872Z" fill="white"/>
<path d="M624.736 625.488L594.416 626.096L592.192 616.032L624.368 615.952L624.736 625.488Z" fill="#1B44DD"/>
<path d="M533.392 237.04C533.392 237.04 522.848 276.176 535.168 360.416C558.176 359.92 596.816 359.024 608 358.816C608.288 347.088 599.632 289.584 609.76 234.144C602.474 232.886 595.104 232.169 587.712 232C576.892 231.605 566.057 231.84 555.264 232.704C547.872 233.579 540.559 235.028 533.392 237.04Z" fill="#263238"/>
<path opacity="0.2" d="M605.344 273.6L593.424 263.728C594.208 271.44 601.184 290.336 604.864 299.904C604.8 291.52 604.88 282.672 605.344 273.6Z" fill="black"/>
<path d="M562.704 259.728L549.696 285.472C549.421 286.013 549.325 286.626 549.422 287.225C549.518 287.824 549.802 288.376 550.233 288.803C550.663 289.23 551.218 289.51 551.817 289.601C552.417 289.692 553.03 289.591 553.568 289.312L562.064 284.64C562.526 284.392 563.048 284.278 563.572 284.312C564.095 284.346 564.598 284.526 565.024 284.832L573.392 290.864C573.873 291.214 574.453 291.399 575.047 291.394C575.642 291.388 576.218 291.191 576.692 290.832C577.166 290.473 577.511 289.971 577.678 289.401C577.844 288.83 577.823 288.221 577.616 287.664L567.84 260.176C567.67 259.653 567.35 259.192 566.92 258.85C566.49 258.507 565.968 258.299 565.42 258.252C564.873 258.204 564.323 258.318 563.84 258.581C563.357 258.843 562.962 259.242 562.704 259.728Z" fill="white"/>
<path d="M583.712 195.456C581.888 205.952 580.256 225.12 587.712 231.92C587.712 231.92 585.536 241.424 565.68 244.72C552.336 240.432 555.264 232.688 555.264 232.688C566.848 229.648 566.352 221.024 564.16 212.96L583.712 195.456Z" fill="#FF8B7B"/>
<path opacity="0.2" d="M575.744 202.576L564.16 212.88C564.699 214.759 565.074 216.681 565.28 218.624C569.728 217.888 575.728 212.864 576.096 208.208C576.323 206.325 576.204 204.416 575.744 202.576Z" fill="black"/>
<path d="M590.064 182.544C586.208 196.176 584.656 204.352 576.144 209.936C563.344 218.32 547.648 208.336 547.344 193.792C547.056 180.736 553.392 160.624 568.144 158.064C571.384 157.489 574.718 157.751 577.828 158.825C580.939 159.899 583.724 161.75 585.919 164.202C588.115 166.653 589.647 169.625 590.373 172.835C591.098 176.045 590.992 179.387 590.064 182.544Z" fill="#FF8B7B"/>
<path d="M581.856 190.896C580.064 186.544 578.768 172.208 586.24 168.688C593.712 165.168 601.472 173.76 599.504 177.824C596.48 184.128 586.016 200.976 581.856 190.896Z" fill="#263238"/>
<path d="M586.32 173.744C584.48 168.944 562.544 166.224 559.472 161.056C555.824 154.912 570.784 154.176 581.072 157.296C590.112 160.048 596.144 162.704 595.088 169.424C594.496 173.232 586.32 173.744 586.32 173.744Z" fill="#263238"/>
<path d="M591.088 168.8C591.088 168.8 595.888 170.112 598.512 166.592C597.68 170.08 593.6 173.6 591.088 168.8Z" fill="#263238"/>
<path d="M569.12 154C562.528 148.88 553.552 154.896 554.4 161.568C555.248 168.24 577.472 173.312 577.472 173.312C577.472 173.312 577.872 160.8 569.12 154Z" fill="#263238"/>
<path d="M554.416 161.6C555.424 166.272 558.832 169.936 565.728 172.656C561.737 169.705 558.713 165.634 557.04 160.96L554.416 161.6Z" fill="#263238"/>
<path d="M568.256 181.856C568.016 182.992 567.232 183.776 566.496 183.616C565.76 183.456 565.36 182.4 565.6 181.28C565.84 180.16 566.64 179.376 567.376 179.536C568.112 179.696 568.512 180.8 568.256 181.856Z" fill="#263238"/>
<path d="M555.552 179.104C555.296 180.224 554.512 181.008 553.776 180.848C553.04 180.688 552.64 179.648 552.88 178.528C553.12 177.408 553.92 176.624 554.656 176.768C555.392 176.912 555.792 177.984 555.552 179.104Z" fill="#263238"/>
<path d="M559.472 180.544C557.383 183.691 554.869 186.534 552 188.992C553.6 191.28 557.168 191.168 557.168 191.168L559.472 180.544Z" fill="#FF5652"/>
<path d="M559.76 194.992C561.262 195.365 562.833 195.369 564.337 195.005C565.842 194.64 567.236 193.916 568.4 192.896C568.432 192.865 568.457 192.827 568.475 192.786C568.492 192.745 568.501 192.701 568.501 192.656C568.501 192.611 568.492 192.567 568.475 192.526C568.457 192.485 568.432 192.447 568.4 192.416C568.335 192.355 568.249 192.322 568.16 192.322C568.071 192.322 567.985 192.355 567.92 192.416C566.828 193.335 565.535 193.987 564.146 194.317C562.757 194.648 561.31 194.649 559.92 194.32C559.831 194.301 559.738 194.318 559.661 194.368C559.585 194.417 559.531 194.495 559.512 194.584C559.493 194.673 559.51 194.766 559.56 194.843C559.609 194.919 559.687 194.973 559.776 194.992H559.76Z" fill="#263238"/>
<path d="M572.976 178.592C573.099 178.617 573.226 178.607 573.344 178.565C573.462 178.522 573.566 178.449 573.645 178.352C573.724 178.254 573.775 178.138 573.792 178.014C573.81 177.89 573.793 177.763 573.744 177.648C573.312 176.663 572.651 175.794 571.816 175.115C570.982 174.436 569.997 173.966 568.944 173.744C568.766 173.721 568.586 173.768 568.443 173.876C568.3 173.983 568.204 174.143 568.176 174.32C568.162 174.407 568.166 174.496 568.187 174.582C568.208 174.668 568.245 174.749 568.297 174.82C568.349 174.891 568.415 174.952 568.49 174.998C568.565 175.044 568.649 175.074 568.736 175.088C569.566 175.27 570.341 175.649 570.995 176.192C571.649 176.734 572.164 177.426 572.496 178.208C572.541 178.305 572.608 178.39 572.691 178.457C572.774 178.523 572.872 178.57 572.976 178.592Z" fill="#263238"/>
<path d="M550.912 173.52C551.038 173.555 551.171 173.55 551.294 173.507C551.417 173.465 551.523 173.385 551.6 173.28C552.107 172.6 552.766 172.049 553.525 171.671C554.283 171.293 555.12 171.099 555.968 171.104C556.146 171.121 556.324 171.066 556.462 170.952C556.6 170.838 556.687 170.674 556.704 170.496C556.721 170.318 556.667 170.14 556.553 170.002C556.438 169.864 556.274 169.777 556.096 169.76C555.023 169.728 553.957 169.956 552.991 170.424C552.024 170.892 551.185 171.586 550.544 172.448C550.487 172.516 550.445 172.596 550.42 172.681C550.395 172.766 550.387 172.856 550.398 172.944C550.408 173.032 550.436 173.118 550.481 173.195C550.525 173.272 550.585 173.339 550.656 173.392C550.729 173.456 550.817 173.5 550.912 173.52Z" fill="#263238"/>
<path d="M613.248 245.056C616.16 250.144 618.592 255.072 621.12 260.144C623.648 265.216 625.92 270.32 628.08 275.536C630.24 280.752 632.336 286.048 634.16 291.536C636.057 297.009 637.659 302.58 638.96 308.224L639.936 312.592C640.363 314.643 640.546 316.738 640.48 318.832C640.344 322.723 639.482 326.554 637.936 330.128C635.22 336.15 631.356 341.584 626.56 346.128C622.283 350.258 617.622 353.971 612.64 357.216C610.224 358.816 607.728 360.288 605.216 361.696C602.704 363.104 600.208 364.4 597.408 365.632L592.096 356.336C594.032 354.736 596.16 353.136 598.144 351.408C600.128 349.68 602.064 347.92 603.984 346.16C607.692 342.721 611.131 339.003 614.272 335.04C617.066 331.641 619.233 327.773 620.672 323.616C621.167 322.067 621.363 320.438 621.248 318.816C621.201 318.164 621.078 317.519 620.88 316.896L619.792 313.312C616.559 303.371 612.712 293.64 608.272 284.176C606.08 279.376 603.744 274.576 601.408 269.776C599.072 264.976 596.608 260.176 594.224 255.616L613.248 245.056Z" fill="#FF8B7B"/>
<path d="M610.304 234.224C623.648 237.104 632.928 271.92 632.928 271.92L609.072 293.568C601.487 285.13 595.521 275.367 591.472 264.768C585.152 247.344 596.032 231.12 610.304 234.224Z" fill="#263238"/>
<path d="M594.992 354.688L579.648 354.848L589.248 370.32C589.248 370.32 600.176 367.616 601.152 362.128L594.992 354.688Z" fill="#FF8B7B"/>
<path d="M570.096 363.984L578.56 376.4L589.168 370.32L579.648 354.848L570.096 363.984Z" fill="#FF8B7B"/>
<path d="M594.256 195.024C592.551 198.161 589.676 200.496 586.256 201.52C581.712 202.848 579.392 198.8 580.608 194.496C581.712 190.624 585.408 185.264 589.952 185.824C594.496 186.384 596.288 191.168 594.256 195.024Z" fill="#FF8B7B"/>
<path d="M458.262 459.754L441.202 460.992L441.318 462.588L458.377 461.35L458.262 459.754Z" fill="#1B44DD"/>
<path d="M473.59 458.649L465.212 459.257L465.328 460.853L473.706 460.245L473.59 458.649Z" fill="#1B44DD"/>
<path d="M547.2 270.832L264.704 291.2C258.824 291.659 253.363 294.418 249.505 298.878C245.647 303.338 243.703 309.14 244.096 315.024L253.696 448.176C254.151 454.064 256.912 459.535 261.38 463.397C265.848 467.26 271.66 469.201 277.552 468.8L293.552 467.648C294.714 467.564 295.863 467.945 296.744 468.707C297.626 469.469 298.17 470.55 298.256 471.712L300.048 496.384C300.077 496.862 300.249 497.32 300.54 497.7C300.832 498.079 301.23 498.363 301.684 498.514C302.139 498.666 302.628 498.678 303.089 498.549C303.55 498.42 303.962 498.157 304.272 497.792L331.056 466.832C332.182 465.535 333.775 464.736 335.488 464.608L560 448.432C565.882 447.977 571.348 445.22 575.209 440.76C579.071 436.299 581.017 430.495 580.624 424.608L571.024 291.456C570.569 285.574 567.812 280.108 563.351 276.247C558.891 272.385 553.087 270.439 547.2 270.832Z" fill="#1B44DD"/>
<path d="M305.968 352.32L321.232 351.216L322.48 368.496L339.152 367.296L337.904 350.016L353.232 348.896L356.8 398.272L341.472 399.376L340.032 379.408L323.36 380.624L324.8 400.592L309.552 401.696L305.968 352.32Z" fill="white"/>
<path opacity="0.2" d="M264.704 291.2C258.824 291.659 253.363 294.418 249.505 298.878C245.647 303.338 243.703 309.14 244.096 315.024L253.696 448.176C254.151 454.064 256.912 459.535 261.38 463.397C265.848 467.26 271.66 469.201 277.552 468.8L279.904 468.624C283.812 468.342 287.517 466.777 290.445 464.173C293.373 461.57 295.359 458.072 296.096 454.224L328.272 286.608L264.704 291.2Z" fill="black"/>
<path d="M404.688 380.256L377.2 382.24C377.411 384.021 378.158 385.695 379.344 387.04C380.024 387.755 380.86 388.304 381.787 388.643C382.714 388.981 383.707 389.101 384.688 388.992C386.035 388.896 387.336 388.455 388.464 387.712C389.347 387.043 390.101 386.219 390.688 385.28L404.288 385.552C402.808 388.905 400.405 391.769 397.36 393.808C394.565 395.579 390.437 396.645 384.976 397.008C381.158 397.452 377.288 397.043 373.648 395.808C370.729 394.583 368.225 392.545 366.432 389.936C364.376 386.966 363.196 383.48 363.024 379.872C362.738 377.367 362.981 374.829 363.736 372.424C364.491 370.018 365.742 367.797 367.408 365.904C370.736 362.192 375.536 360.107 381.808 359.648C385.96 359.155 390.17 359.648 394.096 361.088C397.102 362.372 399.634 364.558 401.344 367.344C403.301 370.804 404.399 374.684 404.544 378.656L404.688 380.256ZM390.288 374.688C390.093 372.607 389.196 370.655 387.744 369.152C387.012 368.589 386.173 368.183 385.278 367.957C384.383 367.732 383.451 367.694 382.54 367.844C381.63 367.994 380.76 368.329 379.984 368.83C379.209 369.33 378.544 369.984 378.032 370.752C377.178 372.257 376.747 373.966 376.784 375.696L390.288 374.688Z" fill="white"/>
<path d="M408.928 344.88L422.672 343.888L426.24 393.248L412.496 394.24L408.928 344.88Z" fill="white"/>
<path d="M431.888 343.216L445.632 342.224L449.2 391.584L435.472 392.576L431.888 343.216Z" fill="white"/>
<path d="M454.992 373.296C454.732 370.792 455.003 368.261 455.785 365.868C456.568 363.476 457.846 361.274 459.536 359.408C462.96 355.6 467.808 353.467 474.08 353.008C481.227 352.496 486.784 354.181 490.752 358.064C494.048 361.54 495.952 366.105 496.102 370.893C496.253 375.68 494.639 380.356 491.568 384.032C488.176 387.808 483.259 389.941 476.816 390.432C471.811 391.032 466.755 389.842 462.544 387.072C460.304 385.518 458.456 383.464 457.146 381.073C455.835 378.683 455.098 376.02 454.992 373.296ZM468.736 372.272C468.71 374.798 469.577 377.251 471.184 379.2C471.832 379.864 472.617 380.378 473.483 380.708C474.35 381.039 475.278 381.177 476.203 381.113C477.129 381.049 478.029 380.785 478.842 380.338C479.655 379.892 480.361 379.274 480.912 378.528C482.205 376.301 482.691 373.696 482.288 371.152C482.304 368.677 481.448 366.276 479.872 364.368C479.256 363.692 478.492 363.167 477.64 362.834C476.788 362.501 475.871 362.369 474.96 362.448C474.01 362.492 473.082 362.755 472.25 363.215C471.417 363.676 470.702 364.322 470.16 365.104C468.871 367.256 468.389 369.797 468.8 372.272H468.736Z" fill="white"/>
<path d="M500.432 338.256L515.072 337.2L515.888 348.4L514.688 371.2L505.632 371.856L501.232 349.456L500.432 338.256ZM503.632 375.504L517.296 374.512L518.176 386.608L504.496 387.584L503.632 375.504Z" fill="white"/>
<path d="M260.8 247.36C260.728 249.702 260.851 252.046 261.168 254.368C246.67 259.21 231.208 260.435 216.128 257.936C216.852 255.199 217.291 252.395 217.44 249.568C216.935 252.415 215.945 255.153 214.512 257.664C211.664 257.12 210.064 256.656 210.064 256.656C210.064 256.656 212.976 240.912 207.728 229.456C202.48 218 205.104 211.6 209.072 209.792C216.432 187.168 244.096 190.736 253.456 199.92C265.328 211.568 265.392 244.384 267.504 251.888C265.76 252.64 264.048 253.328 262.336 253.936C261.478 251.839 260.96 249.62 260.8 247.36Z" fill="#263238"/>
<path d="M272.24 282.576L273.68 287.136C274.208 288.736 274.736 290.336 275.28 291.856C276.352 295.056 277.472 298.256 278.672 301.328C279.872 304.4 281.024 307.632 282.272 310.768L284.128 315.568L284.592 316.752L284.704 317.024C284.506 316.851 284.279 316.715 284.032 316.624C283.68 316.496 283.536 316.624 283.76 316.624C284.145 316.622 284.528 316.563 284.896 316.448C286.147 316.052 287.35 315.515 288.48 314.848C291.209 313.258 293.818 311.472 296.288 309.504C298.88 307.488 301.424 305.328 303.92 303.104C306.416 300.88 308.928 298.56 311.344 296.288L316.256 300.448C314.208 303.392 312.048 306.08 309.856 308.816C307.664 311.552 305.2 314.112 302.672 316.656C300.07 319.312 297.237 321.732 294.208 323.888C292.475 325.102 290.613 326.122 288.656 326.928C287.414 327.426 286.112 327.76 284.784 327.92C282.981 328.145 281.15 327.896 279.472 327.2C277.643 326.421 276.084 325.118 274.992 323.456C274.752 323.088 274.528 322.72 274.352 322.384L273.92 321.52L273.344 320.352C272.592 318.752 271.744 317.152 271.088 315.648C269.632 312.448 268.176 309.248 266.848 306.048C265.52 302.848 264.224 299.552 262.992 296.256C262.416 294.656 261.84 292.912 261.296 291.232C260.752 289.552 260.224 287.904 259.696 285.936L272.24 282.576Z" fill="#FFC3BD"/>
<path d="M268.448 268.368C273.968 269.776 277.824 292.464 277.824 292.464L262.624 302.8C262.624 302.8 248.064 279.904 252.304 273.84C256.72 267.536 260.4 266.32 268.448 268.368Z" fill="#1B44DD"/>
<path d="M268.448 268.368C273.968 269.776 277.824 292.464 277.824 292.464L262.624 302.8C262.624 302.8 248.064 279.904 252.304 273.84C256.72 267.536 260.4 266.32 268.448 268.368Z" fill="#1B44DD"/>
<path opacity="0.4" d="M268.448 268.368C273.968 269.776 277.824 292.464 277.824 292.464L262.624 302.8C262.624 302.8 248.064 279.904 252.304 273.84C256.72 267.536 260.4 266.32 268.448 268.368Z" fill="white"/>
<path opacity="0.3" d="M267.952 273.44L272.192 296.304L263.648 302.096L267.952 273.44Z" fill="black"/>
<path d="M311.088 296.832L316.16 284.608L322.416 296.832C322.416 296.832 318.352 302.912 312.992 301.424L311.088 296.832Z" fill="#FFC3BD"/>
<path d="M321.744 283.344L329.776 286.576L322.416 296.832L316.144 284.608L321.744 283.344Z" fill="#FFC3BD"/>
<path d="M238.608 650.32H252L252.896 619.328H239.504L238.608 650.32Z" fill="#FFC3BD"/>
<path d="M148.816 610.4L161.12 615.648L177.232 588.832L164.912 583.584L148.816 610.4Z" fill="#FFC3BD"/>
<path d="M163.488 613.824L150.688 605.952C150.469 605.811 150.206 605.756 149.949 605.798C149.692 605.839 149.46 605.974 149.296 606.176L141.6 615.408C141.408 615.65 141.271 615.929 141.197 616.229C141.122 616.528 141.113 616.839 141.169 617.142C141.225 617.446 141.345 617.733 141.522 617.986C141.698 618.239 141.927 618.451 142.192 618.608C146.704 621.28 149.008 622.336 154.64 625.792C158.112 627.936 162.944 631.392 167.728 634.336C172.512 637.28 175.728 632.736 173.952 631.056C166.192 623.648 166.416 620.128 164.96 615.744C164.718 614.947 164.195 614.265 163.488 613.824Z" fill="#263238"/>
<path d="M252.448 648.768H237.424C237.165 648.765 236.914 648.856 236.717 649.023C236.52 649.191 236.391 649.424 236.352 649.68L234.64 661.584C234.598 661.889 234.623 662.2 234.713 662.495C234.803 662.79 234.957 663.061 235.162 663.291C235.367 663.521 235.62 663.703 235.903 663.826C236.186 663.948 236.492 664.007 236.8 664C242.048 663.92 244.576 663.6 251.2 663.6C255.264 663.6 263.68 664.032 269.296 664.032C274.912 664.032 275.2 658.48 272.864 657.968C262.384 655.712 258.256 652.608 254.72 649.648C254.094 649.09 253.287 648.777 252.448 648.768Z" fill="#263238"/>
<path opacity="0.2" d="M252.88 619.344L252.432 635.312H239.04L239.504 619.344H252.88Z" fill="black"/>
<path opacity="0.2" d="M164.912 583.6L177.216 588.832L168.912 602.656L156.608 597.408L164.912 583.6Z" fill="black"/>
<path d="M268.448 268.368C268.448 268.368 274.848 270.608 262.048 349.12H207.648C208.56 327.008 208.592 313.376 198.048 267.984C205.655 266.412 213.366 265.396 221.12 264.944C229.339 264.351 237.589 264.351 245.808 264.944C256.432 265.904 268.448 268.368 268.448 268.368Z" fill="#1B44DD"/>
<path opacity="0.4" d="M268.448 268.368C268.448 268.368 274.848 270.608 262.048 349.12H207.648C208.56 327.008 208.592 313.376 198.048 267.984C205.655 266.412 213.366 265.396 221.12 264.944C229.339 264.351 237.589 264.351 245.808 264.944C256.432 265.904 268.448 268.368 268.448 268.368Z" fill="white"/>
<path d="M221.152 264.928C229.371 264.351 237.621 264.351 245.84 264.928C247.168 265.056 248.528 265.2 249.872 265.36C250.431 266.201 250.79 267.159 250.921 268.16C251.051 269.162 250.95 270.18 250.624 271.136C248.88 275.44 242.624 275.936 238.08 275.936C221.264 275.936 218.416 266.112 218.304 265.696L218.144 265.104L221.152 264.928Z" fill="white"/>
<path d="M223.6 237.152C225.2 245.152 226.72 259.648 221.152 264.944C221.152 264.944 223.328 272.944 238.08 272.944C254.304 272.944 245.84 264.944 245.84 264.944C236.976 262.832 237.216 256.256 238.752 250.096L223.6 237.152Z" fill="#FFC3BD"/>
<path d="M225.216 231.504C223.312 237.792 225.952 252.672 229.872 258.432C222.144 254 219.536 240.496 219.536 240.496L225.216 231.504Z" fill="#263238"/>
<path opacity="0.2" d="M229.776 242.432L238.752 250.08C238.358 251.514 238.101 252.982 237.984 254.464C234.608 253.968 229.984 250.256 229.6 246.72C229.401 245.292 229.461 243.839 229.776 242.432Z" fill="black"/>
<path d="M216.272 222.976C219.376 235.888 220.4 241.424 228.176 246.976C239.872 255.312 255.056 248.688 255.872 235.104C256.608 222.88 251.424 203.824 237.744 200.88C234.73 200.214 231.596 200.33 228.639 201.217C225.682 202.103 223.001 203.73 220.85 205.944C218.698 208.157 217.149 210.884 216.348 213.865C215.546 216.846 215.52 219.982 216.272 222.976Z" fill="#FFC3BD"/>
<path d="M262.064 349.12C262.064 349.12 272.608 452.192 271.664 492.992C270.752 535.424 255.2 632.192 255.2 632.192H237.12C237.12 632.192 239.984 537.872 238.384 496.192C236.64 450.752 222.208 349.088 222.208 349.088L262.064 349.12Z" fill="#1B44DD"/>
<path opacity="0.4" d="M262.064 349.12C262.064 349.12 272.608 452.192 271.664 492.992C270.752 535.424 255.2 632.192 255.2 632.192H237.12C237.12 632.192 239.984 537.872 238.384 496.192C236.64 450.752 222.208 349.088 222.208 349.088L262.064 349.12Z" fill="black"/>
<path d="M235.616 632.864H256.832L258.4 626.096L234.624 625.264L235.616 632.864Z" fill="#1B44DD"/>
<path opacity="0.2" d="M238.624 374.768C251.968 401.616 241.296 450.592 236.576 468.816C234.16 441.456 230.08 408.016 226.896 383.424C228.912 369.6 232.464 362.384 238.624 374.768Z" fill="black"/>
<path d="M247.712 349.12C247.712 349.12 235.392 456.32 226.096 490.672C215.072 531.52 173.104 601.072 173.104 601.072L156.32 593.936C156.32 593.936 182.288 514.96 190.736 493.44C208.736 447.52 193.328 379.088 207.712 349.12H247.712Z" fill="#1B44DD"/>
<path opacity="0.4" d="M247.712 349.12C247.712 349.12 235.392 456.32 226.096 490.672C215.072 531.52 173.104 601.072 173.104 601.072L156.32 593.936C156.32 593.936 182.288 514.96 190.736 493.44C208.736 447.52 193.328 379.088 207.712 349.12H247.712Z" fill="black"/>
<path d="M154 593.984L174.832 602.848L179.84 597.248L155.808 585.712L154 593.984Z" fill="#1B44DD"/>
<path d="M236.8 223.152C236.992 224.208 237.696 224.976 238.4 224.848C239.104 224.72 239.504 223.76 239.312 222.704C239.12 221.648 238.416 220.88 237.712 220.992C237.008 221.104 236.528 222.08 236.8 223.152Z" fill="#263238"/>
<path d="M248.736 221.04C248.912 222.096 249.632 222.864 250.336 222.736C251.04 222.608 251.456 221.648 251.264 220.592C251.072 219.536 250.368 218.768 249.664 218.88C248.96 218.992 248.544 219.968 248.736 221.04Z" fill="#263238"/>
<path d="M249.36 219.008L251.776 217.808C251.776 217.808 250.816 220.032 249.36 219.008Z" fill="#263238"/>
<path d="M245.872 223.424C247.246 225.682 248.926 227.739 250.864 229.536C250.389 230.017 249.816 230.389 249.183 230.626C248.551 230.864 247.874 230.961 247.2 230.912L245.872 223.424Z" fill="#ED847E"/>
<path d="M242.384 235.92C242.99 235.919 243.595 235.865 244.192 235.76C244.238 235.758 244.282 235.747 244.323 235.726C244.364 235.705 244.4 235.676 244.429 235.641C244.457 235.605 244.478 235.564 244.489 235.519C244.5 235.475 244.502 235.429 244.494 235.384C244.486 235.339 244.468 235.296 244.442 235.258C244.416 235.221 244.383 235.189 244.343 235.166C244.304 235.142 244.26 235.127 244.215 235.122C244.169 235.117 244.123 235.122 244.08 235.136C242.762 235.399 241.401 235.345 240.108 234.981C238.815 234.617 237.627 233.952 236.64 233.04C236.58 232.981 236.5 232.948 236.416 232.948C236.332 232.948 236.252 232.981 236.192 233.04C236.161 233.068 236.136 233.103 236.119 233.142C236.102 233.18 236.094 233.222 236.094 233.264C236.094 233.306 236.102 233.348 236.119 233.386C236.136 233.425 236.161 233.459 236.192 233.488C237.862 235.072 240.083 235.944 242.384 235.92Z" fill="#263238"/>
<path d="M220.8 215.408C221.15 218.81 221.684 222.191 222.4 225.536C222.4 225.536 230.4 215.408 231.728 209.984C231.411 212.119 230.791 214.199 229.888 216.16C229.888 216.16 240.656 213.808 241.712 206.704C241.694 209.884 241.34 213.054 240.656 216.16C240.656 216.16 250.928 212.128 249.984 205.312C249.04 198.496 233.264 195.856 225.984 198.16C218.704 200.464 211.584 207.936 213.728 218.208C215.872 228.48 219.984 232.336 219.984 232.336C219.984 232.336 217.024 221.984 220.8 215.408Z" fill="#263238"/>
<path d="M215.712 232.704C216.7 235.074 218.587 236.956 220.96 237.936C224.16 239.216 226.064 236.48 225.504 233.312C225.008 230.448 222.752 226.352 219.44 226.416C218.715 226.448 218.01 226.66 217.388 227.033C216.766 227.406 216.246 227.928 215.876 228.552C215.506 229.176 215.297 229.882 215.269 230.607C215.24 231.332 215.393 232.053 215.712 232.704Z" fill="#FFC3BD"/>
<path d="M222.736 210.48C221.136 216.88 224.464 231.6 228.656 237.152C220.656 233.104 217.456 219.728 217.456 219.728L222.736 210.48Z" fill="#263238"/>
<path d="M232.416 219.504C232.498 219.479 232.574 219.438 232.64 219.383C232.706 219.328 232.761 219.26 232.8 219.184C233.137 218.462 233.641 217.831 234.269 217.341C234.898 216.852 235.633 216.518 236.416 216.368C236.581 216.344 236.731 216.258 236.836 216.127C236.94 215.996 236.99 215.831 236.976 215.664C236.968 215.58 236.943 215.499 236.903 215.425C236.863 215.351 236.809 215.286 236.743 215.234C236.677 215.182 236.602 215.143 236.521 215.121C236.44 215.099 236.355 215.093 236.272 215.104C235.279 215.276 234.343 215.684 233.541 216.294C232.739 216.904 232.095 217.698 231.664 218.608C231.609 218.719 231.589 218.844 231.604 218.967C231.619 219.09 231.669 219.206 231.749 219.3C231.828 219.395 231.934 219.465 232.052 219.501C232.17 219.537 232.297 219.538 232.416 219.504Z" fill="#263238"/>
<path d="M253.104 214.544C253.184 214.547 253.265 214.534 253.339 214.503C253.414 214.473 253.481 214.427 253.536 214.368C253.653 214.248 253.719 214.088 253.719 213.92C253.719 213.752 253.653 213.592 253.536 213.472C252.854 212.734 252.007 212.166 251.065 211.816C250.122 211.466 249.111 211.342 248.112 211.456C248.029 211.471 247.949 211.503 247.879 211.549C247.808 211.595 247.747 211.655 247.699 211.725C247.651 211.795 247.618 211.874 247.601 211.957C247.584 212.04 247.584 212.125 247.6 212.208C247.635 212.37 247.731 212.512 247.868 212.604C248.005 212.697 248.173 212.733 248.336 212.704C249.124 212.616 249.921 212.715 250.663 212.993C251.406 213.271 252.072 213.72 252.608 214.304C252.668 214.378 252.743 214.439 252.829 214.48C252.915 214.522 253.009 214.543 253.104 214.544Z" fill="#263238"/>
<path d="M204.688 286.976C202.464 294 200.336 301.376 198.528 308.64C196.708 315.811 195.377 323.097 194.544 330.448L194.416 331.792C194.416 332.224 194.416 332.32 194.416 332.704C194.434 333.459 194.492 334.212 194.592 334.96C194.796 336.713 195.089 338.454 195.472 340.176C196.224 343.744 197.072 347.424 198.16 351.072C199.248 354.72 200.176 358.432 201.264 362.112L204.464 373.152L198.528 375.6C194.88 368.624 191.712 361.52 188.752 354.192C187.328 350.512 185.936 346.8 184.784 342.88C184.208 340.928 183.664 338.928 183.184 336.752C182.956 335.6 182.796 334.435 182.704 333.264C182.704 332.672 182.704 331.792 182.704 331.264V329.664C182.84 325.587 183.213 321.521 183.824 317.488C184.352 313.488 185.136 309.584 185.984 305.696C187.649 297.909 189.786 290.231 192.384 282.704L204.688 286.976Z" fill="#FFC3BD"/>
<path d="M198.08 267.984C192.64 269.584 186.096 288.384 186.096 288.384L207.216 303.488C207.216 303.488 214.928 287.84 212.64 280.8C210.256 273.472 204.304 266.096 198.08 267.984Z" fill="#1B44DD"/>
<path opacity="0.4" d="M198.08 267.984C192.64 269.584 186.096 288.384 186.096 288.384L207.216 303.488C207.216 303.488 214.928 287.84 212.64 280.8C210.256 273.472 204.304 266.096 198.08 267.984Z" fill="white"/>
<path d="M168.896 618.912C169.156 618.82 169.393 618.673 169.589 618.479C169.786 618.285 169.937 618.051 170.032 617.792C170.124 617.626 170.173 617.438 170.173 617.248C170.173 617.058 170.124 616.87 170.032 616.704C169.072 615.296 164.224 615.408 163.632 615.424C163.571 615.425 163.511 615.444 163.46 615.478C163.409 615.512 163.369 615.56 163.344 615.616C163.313 615.666 163.296 615.725 163.296 615.784C163.296 615.843 163.313 615.901 163.344 615.952C164.608 617.216 166.976 619.28 168.64 618.96L168.896 618.912ZM164.4 616C166.336 616 168.928 616.272 169.44 617.024C169.484 617.096 169.507 617.179 169.507 617.264C169.507 617.349 169.484 617.432 169.44 617.504C169.369 617.697 169.252 617.87 169.098 618.006C168.945 618.143 168.76 618.24 168.56 618.288C167.68 618.512 166.144 617.6 164.4 616Z" fill="#1B44DD"/>
<path d="M165.824 615.664C167.296 615.2 168.864 614.384 169.2 613.472C169.283 613.235 169.285 612.976 169.203 612.738C169.122 612.5 168.963 612.297 168.752 612.16C168.566 612.005 168.346 611.893 168.111 611.835C167.875 611.777 167.629 611.773 167.392 611.824C165.488 612.16 163.44 615.424 163.36 615.568C163.332 615.617 163.317 615.672 163.317 615.728C163.317 615.784 163.332 615.839 163.36 615.888C163.389 615.935 163.429 615.974 163.476 616.002C163.523 616.03 163.577 616.046 163.632 616.048C164.377 616.027 165.116 615.898 165.824 615.664ZM167.296 612.464H167.504C167.654 612.433 167.81 612.435 167.959 612.471C168.109 612.507 168.248 612.576 168.368 612.672C168.688 612.928 168.656 613.12 168.608 613.264C168.288 614.144 165.856 615.2 164.24 615.408C164.975 614.178 166.032 613.171 167.296 612.496V612.464Z" fill="#1B44DD"/>
<path d="M257.472 651.104C258.6 651.197 259.726 650.909 260.672 650.288C260.892 650.089 261.059 649.839 261.16 649.56C261.26 649.281 261.29 648.981 261.248 648.688C261.235 648.514 261.179 648.347 261.084 648.202C260.988 648.056 260.858 647.937 260.704 647.856C259.104 646.96 253.744 649.68 253.136 649.984C253.077 650.008 253.027 650.049 252.992 650.102C252.956 650.154 252.937 650.216 252.938 650.28C252.938 650.343 252.956 650.405 252.992 650.458C253.027 650.511 253.077 650.552 253.136 650.576C254.56 650.898 256.012 651.075 257.472 651.104ZM259.856 648.336C260.06 648.323 260.263 648.362 260.448 648.448C260.511 648.483 260.564 648.533 260.6 648.595C260.637 648.657 260.656 648.728 260.656 648.8C260.686 648.984 260.669 649.173 260.608 649.349C260.546 649.525 260.442 649.683 260.304 649.808C259.488 650.544 257.28 650.672 254.32 650.176C256.048 649.254 257.92 648.631 259.856 648.336Z" fill="#1B44DD"/>
<path d="M253.328 650.64H253.456C255.056 649.92 258.256 647.04 257.968 645.52C257.968 645.152 257.648 644.72 256.768 644.624C256.453 644.589 256.134 644.619 255.831 644.712C255.528 644.806 255.248 644.961 255.008 645.168C253.408 646.576 253.024 650.176 253.008 650.32C253.006 650.376 253.018 650.432 253.043 650.482C253.068 650.533 253.106 650.576 253.152 650.608C253.204 650.641 253.267 650.652 253.328 650.64ZM256.528 645.216H256.72C257.296 645.216 257.344 645.52 257.344 645.584C257.504 646.496 255.36 648.784 253.728 649.76C253.856 648.24 254.454 646.797 255.44 645.632C255.733 645.365 256.115 645.217 256.512 645.216H256.528Z" fill="#1B44DD"/>
<path d="M206.896 345.936L205.52 350.736C205.328 351.104 205.776 351.488 206.4 351.488H262.4C262.896 351.488 263.296 351.248 263.328 350.944L263.824 346.144C263.824 345.808 263.424 345.52 262.896 345.52H207.792C207.62 345.507 207.446 345.538 207.29 345.611C207.133 345.684 206.997 345.796 206.896 345.936Z" fill="#263238"/>
<path d="M214.288 352.08H212.8C212.512 352.08 212.288 351.936 212.304 351.744L212.992 345.344C212.992 345.168 213.28 345.008 213.568 345.008H215.04C215.344 345.008 215.552 345.168 215.536 345.344L214.848 351.744C214.848 352 214.592 352.08 214.288 352.08Z" fill="#1B44DD"/>
<path opacity="0.4" d="M214.288 352.08H212.8C212.512 352.08 212.288 351.936 212.304 351.744L212.992 345.344C212.992 345.168 213.28 345.008 213.568 345.008H215.04C215.344 345.008 215.552 345.168 215.536 345.344L214.848 351.744C214.848 352 214.592 352.08 214.288 352.08Z" fill="black"/>
<path d="M258.176 352.08H256.704C256.416 352.08 256.192 351.936 256.208 351.744L256.912 345.344C256.912 345.168 257.184 345.008 257.472 345.008H258.944C259.248 345.008 259.472 345.168 259.44 345.344L258.752 351.744C258.736 352 258.48 352.08 258.176 352.08Z" fill="#1B44DD"/>
<path opacity="0.4" d="M258.176 352.08H256.704C256.416 352.08 256.192 351.936 256.208 351.744L256.912 345.344C256.912 345.168 257.184 345.008 257.472 345.008H258.944C259.248 345.008 259.472 345.168 259.44 345.344L258.752 351.744C258.736 352 258.48 352.08 258.176 352.08Z" fill="black"/>
<path d="M236.24 352.08H234.768C234.464 352.08 234.24 351.936 234.272 351.744L234.96 345.344C234.96 345.168 235.232 345.008 235.536 345.008H237.008C237.296 345.008 237.52 345.168 237.504 345.344L236.816 351.744C236.8 352 236.528 352.08 236.24 352.08Z" fill="#1B44DD"/>
<path opacity="0.4" d="M236.24 352.08H234.768C234.464 352.08 234.24 351.936 234.272 351.744L234.96 345.344C234.96 345.168 235.232 345.008 235.536 345.008H237.008C237.296 345.008 237.52 345.168 237.504 345.344L236.816 351.744C236.8 352 236.528 352.08 236.24 352.08Z" fill="black"/>
<path d="M237.344 221.104L239.76 219.92C239.76 219.92 238.8 222.144 237.344 221.104Z" fill="#263238"/>
<path d="M204.016 371.344L215.488 380.144L202.192 383.072C202.192 383.072 196.544 376.672 198.496 371.392L204.016 371.344Z" fill="#FFC3BD"/>
<path d="M218.304 391.04L207.04 392.88L200.896 381.328L215.488 380.144L218.304 391.04Z" fill="#FFC3BD"/>
</svg>
