<svg viewBox="0 0 100 54" fill="none" xmlns="http://www.w3.org/2000/svg">
<g clip-path="url(#clip0_41_11881)">
<path fill-rule="evenodd" clip-rule="evenodd" d="M4.94922 12.7666H9.39817L13.1064 23.2076L17.0647 12.7666H19.8152L23.698 23.1079L27.3638 12.7666H31.8458L25.2408 31.1475H22.3346L18.3999 20.6923L14.4086 31.1333H11.5306L4.94922 12.7666ZM50.1747 23.2551V22.3866C50.1747 19.3587 49.2752 16.924 47.4761 15.0826C45.677 13.2412 43.3385 12.3268 40.4606 12.3395C39.2063 12.302 37.958 12.5273 36.7949 13.0012C35.6319 13.4751 34.5795 14.1871 33.7046 15.0921C32.8123 16.0122 32.1135 17.1038 31.6498 18.3016C31.1862 19.4995 30.9672 20.779 31.006 22.0638C30.971 23.3241 31.1923 24.5782 31.6563 25.7493C32.1204 26.9204 32.8174 27.9838 33.7046 28.8742C35.4974 30.6935 37.8233 31.6015 40.6824 31.5984C42.328 31.6415 43.9615 31.3038 45.4569 30.6112C46.8455 29.9072 48.0314 28.8565 48.9009 27.5596L45.0606 25.7324C44.487 26.3188 43.8012 26.7822 43.0447 27.0946C42.2881 27.407 41.4765 27.562 40.6588 27.5501C39.3872 27.5992 38.1403 27.1884 37.144 26.3921C36.2151 25.5909 35.6107 24.4747 35.4455 23.2551H50.1747ZM45.6125 19.6577H35.6673C36.03 18.7548 36.6066 17.9549 37.3468 17.3274C38.3251 16.6145 39.5076 16.2413 40.7154 16.2643C41.825 16.2454 42.9125 16.5774 43.8245 17.2135C44.6801 17.7993 45.311 18.6617 45.6125 19.6577Z" fill="#3B97D3"/>
<path fill-rule="evenodd" clip-rule="evenodd" d="M57.0013 12.7665V14.7882C57.7698 14.0038 58.6812 13.3754 59.6858 12.9373C60.6634 12.5225 61.7149 12.3125 62.776 12.3204C63.9277 12.3023 65.0696 12.5351 66.1234 13.0028C67.1772 13.4706 68.1179 14.1623 68.8809 15.0303C70.5447 16.8432 71.3782 19.164 71.3814 21.9925C71.4184 23.2493 71.2087 24.501 70.7642 25.6762C70.3198 26.8513 69.6493 27.9267 68.7913 28.8409C68.0236 29.7139 67.0791 30.4116 66.0212 30.8872C64.9634 31.3627 63.8167 31.6052 62.658 31.5983C61.6524 31.6066 60.6551 31.4146 59.7235 31.0335C58.7164 30.5899 57.7998 29.9624 57.0202 29.1826V37.8629H52.4438V12.7665H57.0013ZM80.6331 12.7665H85.351L90.0689 24.2801L95.301 12.7665H100.019L88.578 37.8629H83.8885L87.6061 29.7948L80.6331 12.7665ZM73.745 5.69507H78.3167V31.1332H73.7403V5.69507H73.745ZM61.8041 16.5395C61.1364 16.5213 60.4724 16.6441 59.8548 16.9C59.2372 17.1558 58.6798 17.5391 58.2185 18.025C57.7374 18.5446 57.3644 19.1557 57.1213 19.8223C56.8783 20.489 56.7701 21.1978 56.8032 21.9071C56.7692 22.628 56.8766 23.3486 57.1195 24.0278C57.3623 24.7069 57.7358 25.3313 58.2185 25.8652C58.6692 26.3355 59.2076 26.7119 59.8029 26.9728C60.3982 27.2338 61.0388 27.3743 61.6881 27.3862C62.3374 27.3981 62.9826 27.2812 63.587 27.0422C64.1913 26.8032 64.743 26.4468 65.2104 25.9933L65.3378 25.8652C66.303 24.7981 66.8115 23.3914 66.7532 21.9498C66.8089 20.5215 66.3 19.129 65.3378 18.0772C64.8926 17.5812 64.3467 17.1873 63.7371 16.922C63.1274 16.6567 62.4682 16.5263 61.8041 16.5395Z" fill="#231F20"/>
<path fill-rule="evenodd" clip-rule="evenodd" d="M10.7379 0H37.2995C40.1455 0.00876829 42.8724 1.15027 44.8843 3.17511C46.8963 5.19995 48.0299 7.94353 48.0374 10.8064V12.0641C47.2316 11.4526 46.3477 10.953 45.4095 10.5786C45.3387 8.45949 44.4543 6.45039 42.942 4.97336C41.4298 3.49634 39.4073 2.66634 37.2995 2.65771H10.7379C8.58763 2.66397 6.52723 3.52601 5.00676 5.05551C3.4863 6.58501 2.62936 8.65766 2.62314 10.8207V31.2281C2.63183 33.3904 3.48957 35.4616 5.00949 36.9905C6.52942 38.5195 8.58839 39.3823 10.7379 39.3911H14.0404L13.6063 47.2076L21.773 39.3911H37.2995C39.0376 39.3836 40.7278 38.8179 42.1238 37.7764C43.5199 36.7349 44.5487 35.272 45.0604 33.6011C45.5985 33.4352 46.1223 33.2257 46.6267 32.9746C47.102 32.7401 47.5593 32.4704 47.9949 32.1678C47.7584 34.8599 46.5302 37.366 44.5514 39.1941C42.5727 41.0222 39.9861 42.0404 37.2995 42.0488H22.8203L10.6152 53.7238L11.2663 42.0488H10.7379C7.89025 42.04 5.16195 40.8972 3.14969 38.8703C1.13743 36.8434 0.00497592 34.0974 0 31.2329L0 10.8254C0.00248269 7.95922 1.13384 5.21077 3.14637 3.18184C5.1589 1.1529 7.88861 0.00878712 10.7379 0Z" fill="#231F20"/>
</g>
<defs>
<clipPath id="clip0_41_11881">
<rect width="100" height="53.719" fill="white"/>
</clipPath>
</defs>
</svg>
