<svg viewBox="0 0 800 800" fill="none" xmlns="http://www.w3.org/2000/svg">
<path d="M800 611.84H0V612.24H800V611.84Z" fill="#EBEBEB"/>
<path d="M719.84 637.584H666.848V637.984H719.84V637.584Z" fill="#EBEBEB"/>
<path d="M529.952 641.936H516.048V642.336H529.952V641.936Z" fill="#EBEBEB"/>
<path d="M665.248 622.736H634.544V623.136H665.248V622.736Z" fill="#EBEBEB"/>
<path d="M153.04 625.424H83.936V625.824H153.04V625.424Z" fill="#EBEBEB"/>
<path d="M177.424 625.424H167.296V625.824H177.424V625.424Z" fill="#EBEBEB"/>
<path d="M360.24 632.176H210.352V632.576H360.24V632.176Z" fill="#EBEBEB"/>
<path d="M379.2 540.48H70.256C67.8357 540.476 65.5161 539.511 63.8062 537.798C62.0963 536.086 61.136 533.764 61.136 531.344V97.056C61.1571 94.6496 62.1267 92.3488 63.8343 90.6531C65.5419 88.9575 67.8495 88.0041 70.256 88H379.2C381.623 88 383.947 88.9625 385.66 90.6759C387.373 92.3892 388.336 94.713 388.336 97.136V531.344C388.336 533.767 387.373 536.091 385.66 537.804C383.947 539.517 381.623 540.48 379.2 540.48ZM70.256 88.32C67.9418 88.3242 65.7239 89.2465 64.089 90.8844C62.4542 92.5222 61.536 94.7418 61.536 97.056V531.344C61.536 533.658 62.4542 535.878 64.089 537.516C65.7239 539.154 67.9418 540.076 70.256 540.08H379.2C381.516 540.076 383.735 539.154 385.373 537.517C387.01 535.879 387.932 533.66 387.936 531.344V97.056C387.932 94.7404 387.01 92.5208 385.373 90.8834C383.735 89.246 381.516 88.3242 379.2 88.32H70.256Z" fill="#EBEBEB"/>
<path d="M725.296 540.48H416.336C413.914 540.476 411.593 539.512 409.881 537.799C408.168 536.087 407.204 533.766 407.2 531.344V97.056C407.225 94.6482 408.198 92.3473 409.909 90.6521C411.619 88.957 413.928 88.0041 416.336 88H725.296C727.7 88.0083 730.003 88.9636 731.707 90.6588C733.412 92.3539 734.379 94.6524 734.4 97.056V531.344C734.4 533.761 733.442 536.08 731.735 537.793C730.029 539.505 727.713 540.472 725.296 540.48ZM416.336 88.32C414.02 88.3242 411.801 89.246 410.163 90.8834C408.526 92.5208 407.604 94.7404 407.6 97.056V531.344C407.604 533.66 408.526 535.879 410.163 537.517C411.801 539.154 414.02 540.076 416.336 540.08H725.296C727.612 540.076 729.831 539.154 731.469 537.517C733.106 535.879 734.028 533.66 734.032 531.344V97.056C734.028 94.7404 733.106 92.5208 731.469 90.8834C729.831 89.246 727.612 88.3242 725.296 88.32H416.336Z" fill="#EBEBEB"/>
<path d="M318.768 494.064H305.28H296.384L321.312 514.704H325.888H329.968L324.144 505.856L341.136 514.704H345.232H350.064L318.768 494.064Z" fill="#E0E0E0"/>
<path d="M142 514.704H150.928L170.752 504.384L162.096 514.704H170.752L195.68 494.064H173.296L142 514.704Z" fill="#E0E0E0"/>
<path d="M166.16 514.704L186.784 494.064H173.296L142 514.704H146.832L170.752 501.552L162.096 514.704H166.16Z" fill="#F0F0F0"/>
<path d="M96.416 514.704V612.592H397.888V514.704H96.416ZM392.96 553.104H150.928V521.104H392.96V553.104Z" fill="#E0E0E0"/>
<path d="M144.336 514.704V612.592H397.888V514.704H144.336ZM392.96 553.104H150.928V521.104H392.96V553.104Z" fill="#EBEBEB"/>
<path d="M392.96 521.056H348.832V553.04H392.96V521.056Z" fill="#E0E0E0"/>
<path d="M214.832 537.04H150.928V553.04H214.832V537.04Z" fill="#E0E0E0"/>
<path d="M259.952 543.536H218.848V553.04H259.952V543.536Z" fill="#E0E0E0"/>
<path d="M317.92 533.6H269.456V553.04H317.92V533.6Z" fill="#E0E0E0"/>
<path d="M199.04 560L197.872 563.824H182.144L180.976 560H150.928V602.48H229.088V560H199.04Z" fill="#E0E0E0"/>
<path d="M280.864 560L279.696 563.824H263.984L262.816 560H232.752V602.48H310.928V560H280.864Z" fill="#E0E0E0"/>
<path d="M362.704 560L361.536 563.824H345.824L344.64 560H314.592V602.48H392.752V560H362.704Z" fill="#E0E0E0"/>
<path d="M344.784 364.496H137.12C134.001 364.496 131.472 367.025 131.472 370.144V491.152C131.472 494.271 134.001 496.8 137.12 496.8H344.784C347.903 496.8 350.432 494.271 350.432 491.152V370.144C350.432 367.025 347.903 364.496 344.784 364.496Z" fill="#E0E0E0"/>
<path d="M349.936 364.496H142.272C139.153 364.496 136.624 367.025 136.624 370.144V491.152C136.624 494.271 139.153 496.8 142.272 496.8H349.936C353.055 496.8 355.584 494.271 355.584 491.152V370.144C355.584 367.025 353.055 364.496 349.936 364.496Z" fill="#E6E6E6"/>
<path d="M349.136 490.368V370.928H143.04V490.368H349.136Z" fill="#F0F0F0"/>
<path d="M603.137 218.491C619.363 214.388 629.191 197.908 625.088 181.683C620.985 165.457 604.506 155.629 588.28 159.732C572.054 163.835 562.226 180.314 566.329 196.54C570.432 212.766 586.911 222.593 603.137 218.491Z" fill="#E0E0E0"/>
<path d="M620.744 194.975C624.012 181.129 615.437 167.254 601.59 163.986C587.744 160.718 573.87 169.294 570.602 183.14C567.334 196.987 575.909 210.861 589.756 214.129C603.602 217.397 617.476 208.821 620.744 194.975Z" fill="#F0F0F0"/>
<path d="M594.496 171.408V189.408L582.56 182.656" fill="#F0F0F0"/>
<path d="M594.496 191.008C594.216 191.01 593.94 190.938 593.696 190.8L581.76 184C581.394 183.789 581.126 183.442 581.015 183.034C580.905 182.626 580.959 182.191 581.168 181.824C581.376 181.455 581.722 181.184 582.13 181.07C582.538 180.956 582.975 181.009 583.344 181.216L592.944 186.624V171.36C592.944 170.936 593.113 170.529 593.413 170.229C593.713 169.929 594.12 169.76 594.544 169.76C594.968 169.76 595.375 169.929 595.675 170.229C595.975 170.529 596.144 170.936 596.144 171.36V189.36C596.144 189.784 595.975 190.191 595.675 190.491C595.375 190.791 594.968 190.96 594.544 190.96L594.496 191.008Z" fill="#E0E0E0"/>
<path d="M182.992 189.184C182.992 189.184 181.52 179.584 188.56 173.36C195.6 167.136 194.96 163.504 192.96 163.024C190.96 162.544 189.104 168.72 186.016 170.416C186.016 170.416 185.904 161.616 189.056 158.368C192.208 155.12 193.856 146.768 190.848 146.624C187.84 146.48 187.552 151.584 186.944 155.2C186.093 158.301 184.76 161.249 182.992 163.936C182.992 163.936 182.336 156.048 180.304 152.736C178.272 149.424 183.696 142.08 181.6 138.832C179.504 135.584 175.808 141.776 176.112 148.72C176.416 155.664 181.072 163.12 179.984 170.352C179.984 170.352 177.936 165.264 176.096 164.8C174.256 164.336 172.416 160.96 171.168 159.712C169.92 158.464 168.4 162.784 171.168 166.8C173.936 170.816 181.072 181.568 179.984 190.256L182.992 189.184Z" fill="#E6E6E6"/>
<path d="M187.2 184.8L189.488 199.2C189.657 200.249 189.597 201.322 189.31 202.345C189.024 203.368 188.518 204.316 187.829 205.124C187.139 205.932 186.282 206.581 185.317 207.025C184.352 207.469 183.302 207.698 182.24 207.696H179.792C178.729 207.698 177.679 207.469 176.713 207.025C175.748 206.581 174.89 205.932 174.199 205.125C173.509 204.317 173.001 203.369 172.713 202.346C172.424 201.323 172.361 200.25 172.528 199.2L174.832 184.8H187.2Z" fill="#E6E6E6"/>
<path d="M152.368 210.768L315.12 210.768V202.4L152.368 202.4V210.768Z" fill="#E0E0E0"/>
<path d="M300.464 202.416H307.632V171.6H300.464V202.416Z" fill="#EBEBEB"/>
<path d="M265.792 202.416H272.96V171.6H265.792V202.416Z" fill="#EBEBEB"/>
<path d="M221.205 201.197L228.269 202.415L233.506 172.031L226.442 170.813L221.205 201.197Z" fill="#EBEBEB"/>
<path d="M291.568 202.416H298.736V175.648H291.568V202.416Z" fill="#EBEBEB"/>
<path d="M275.104 202.416H282.272V175.648H275.104V202.416Z" fill="#EBEBEB"/>
<path d="M233.488 202.416H240.656V175.648H233.488V202.416Z" fill="#EBEBEB"/>
<path d="M250.584 200.844L257.581 202.399L263.388 176.269L256.391 174.714L250.584 200.844Z" fill="#EBEBEB"/>
<path d="M285.376 202.416H288.96V170.064H285.376V202.416Z" fill="#EBEBEB"/>
<path d="M242.736 202.416H246.32V170.064H242.736V202.416Z" fill="#EBEBEB"/>
<path d="M315.12 264.832H152.368V273.2H315.12V264.832Z" fill="#E0E0E0"/>
<path d="M167.024 234.016H159.856V264.848H167.024V234.016Z" fill="#EBEBEB"/>
<path d="M201.696 234.016H194.528V264.848H201.696V234.016Z" fill="#EBEBEB"/>
<path d="M241.056 233.236L233.992 234.453L239.229 264.837L246.293 263.62L241.056 233.236Z" fill="#EBEBEB"/>
<path d="M175.92 238.08H168.752V264.848H175.92V238.08Z" fill="#EBEBEB"/>
<path d="M192.4 238.08H185.232V264.848H192.4V238.08Z" fill="#EBEBEB"/>
<path d="M233.984 238.08H226.816V264.848H233.984V238.08Z" fill="#EBEBEB"/>
<path d="M211.124 237.14L204.126 238.695L209.934 264.826L216.931 263.271L211.124 237.14Z" fill="#EBEBEB"/>
<path d="M182.112 232.48H178.528V264.832H182.112V232.48Z" fill="#EBEBEB"/>
<path d="M224.768 232.48H221.184V264.832H224.768V232.48Z" fill="#EBEBEB"/>
<path d="M299.52 240.448H264.576V264.56H299.52V240.448Z" fill="#EBEBEB"/>
<path d="M400 684.096C571.332 684.096 710.224 675.987 710.224 665.984C710.224 655.981 571.332 647.872 400 647.872C228.668 647.872 89.776 655.981 89.776 665.984C89.776 675.987 228.668 684.096 400 684.096Z" fill="#F5F5F5"/>
<path d="M144.88 606.624C144.88 606.144 143.28 558.624 135.584 551.184C128.192 544.016 119.68 550.928 119.312 551.184L118.288 549.952C118.384 549.872 128.272 541.808 136.688 549.952C144.832 557.856 146.416 604.496 146.48 606.48L144.88 606.624Z" fill="#1B44DD"/>
<path d="M145.6 616C145.376 613.664 140.304 558.816 160.992 535.056L162.208 536.112C141.92 559.328 147.088 615.264 147.2 615.824L145.6 616Z" fill="#1B44DD"/>
<path d="M145.168 610L143.568 609.888C143.568 609.248 147.616 545.712 132.528 531.856L133.616 530.672C149.248 545.056 145.344 607.344 145.168 610Z" fill="#1B44DD"/>
<path d="M147.2 609.952H145.6C145.6 608.192 146.096 566.864 157.904 560.096C159.041 559.362 160.337 558.91 161.685 558.779C163.032 558.649 164.391 558.842 165.648 559.344C172.816 562.32 176.352 575.008 176.496 575.536L174.896 575.968C174.896 575.84 171.424 563.488 164.992 560.832C163.953 560.41 162.826 560.249 161.71 560.364C160.595 560.478 159.524 560.864 158.592 561.488C147.632 567.776 147.2 609.6 147.2 609.952Z" fill="#1B44DD"/>
<path d="M142.576 609.984L140.976 609.888C140.976 609.568 142.736 577.392 134.08 566.08C132 563.392 129.776 562.096 127.424 562.272C121.824 562.656 117.088 570.912 117.056 570.992L115.648 570.208C115.872 569.84 120.848 561.12 127.312 560.608C130.224 560.4 132.928 561.888 135.312 565.056C144.384 576.896 142.656 608.64 142.576 609.984Z" fill="#1B44DD"/>
<path d="M144.096 614.4C143.872 611.2 138.416 537.6 148.048 524.512L149.328 525.472C140.048 538.032 145.648 613.472 145.696 614.272L144.096 614.4Z" fill="#1B44DD"/>
<path d="M168.128 566.976C168.128 566.976 162.384 569.104 164.096 574.112C165.808 579.12 184 587.36 184 587.36C184 587.36 191.616 580.368 184.624 569.008C177.632 557.648 168.288 563.392 168.128 566.976Z" fill="#1B44DD"/>
<path opacity="0.2" d="M168.128 566.976C168.128 566.976 162.384 569.104 164.096 574.112C165.808 579.12 184 587.36 184 587.36C184 587.36 191.616 580.368 184.624 569.008C177.632 557.648 168.288 563.392 168.128 566.976Z" fill="white"/>
<path d="M143.12 557.44C143.12 557.44 149.248 557.184 149.52 562.464C149.792 567.744 136.32 582.4 136.32 582.4C136.32 582.4 126.592 578.896 128.672 565.712C130.752 552.528 141.584 554.192 143.12 557.44Z" fill="#1B44DD"/>
<path opacity="0.2" d="M143.12 557.44C143.12 557.44 149.248 557.184 149.52 562.464C149.792 567.744 136.32 582.4 136.32 582.4C136.32 582.4 126.592 578.896 128.672 565.712C130.752 552.528 141.584 554.192 143.12 557.44Z" fill="white"/>
<path d="M137.92 532.16C137.92 532.16 142.016 531.712 141.68 529.232C141.344 526.752 125.792 520.336 116.624 530.688C116.624 530.688 122.496 540.784 131.024 540.912C139.552 541.04 137.92 532.16 137.92 532.16Z" fill="#1B44DD"/>
<path opacity="0.2" d="M137.92 532.16C137.92 532.16 142.016 531.712 141.68 529.232C141.344 526.752 125.792 520.336 116.624 530.688C116.624 530.688 122.496 540.784 131.024 540.912C139.552 541.04 137.92 532.16 137.92 532.16Z" fill="white"/>
<path d="M145.6 526.112C145.6 526.112 141.904 527.904 140.8 525.616C139.696 523.328 149.584 509.616 162.848 513.6C162.848 513.6 163.2 525.28 156.064 529.888C148.928 534.496 145.6 526.112 145.6 526.112Z" fill="#1B44DD"/>
<path opacity="0.2" d="M145.6 526.112C145.6 526.112 141.904 527.904 140.8 525.616C139.696 523.328 149.584 509.616 162.848 513.6C162.848 513.6 163.2 525.28 156.064 529.888C148.928 534.496 145.6 526.112 145.6 526.112Z" fill="white"/>
<path d="M126.192 564.96C126.192 564.96 129.008 562.688 125.968 561.568C122.928 560.448 107.984 560.784 107.84 575.568C107.84 575.568 125.232 578.464 127.376 572.832C129.52 567.2 126.192 564.96 126.192 564.96Z" fill="#1B44DD"/>
<path opacity="0.2" d="M126.192 564.96C126.192 564.96 129.008 562.688 125.968 561.568C122.928 560.448 107.984 560.784 107.84 575.568C107.84 575.568 125.232 578.464 127.376 572.832C129.52 567.2 126.192 564.96 126.192 564.96Z" fill="white"/>
<path d="M161.6 531.792C161.6 531.792 158.768 529.504 161.824 528.4C164.88 527.296 179.792 527.6 179.952 542.4C179.952 542.4 162.56 545.28 160.4 539.648C158.24 534.016 161.6 531.792 161.6 531.792Z" fill="#1B44DD"/>
<path opacity="0.2" d="M161.6 531.792C161.6 531.792 158.768 529.504 161.824 528.4C164.88 527.296 179.792 527.6 179.952 542.4C179.952 542.4 162.56 545.28 160.4 539.648C158.24 534.016 161.6 531.792 161.6 531.792Z" fill="white"/>
<path d="M152.464 543.696C152.464 543.696 152.208 540.928 154.448 542.016C156.688 543.104 164.464 551.504 156.4 559.472C156.4 559.472 145.536 551.472 147.488 547.232C149.44 542.992 152.464 543.696 152.464 543.696Z" fill="#1B44DD"/>
<path opacity="0.2" d="M152.464 543.696C152.464 543.696 152.208 540.928 154.448 542.016C156.688 543.104 164.464 551.504 156.4 559.472C156.4 559.472 145.536 551.472 147.488 547.232C149.44 542.992 152.464 543.696 152.464 543.696Z" fill="white"/>
<path d="M123.664 547.648C123.664 547.648 125.36 545.44 122.88 545.168C120.4 544.896 109.36 547.84 112 558.88C112 558.88 125.472 557.872 126.048 553.28C126.624 548.688 123.664 547.648 123.664 547.648Z" fill="#1B44DD"/>
<path opacity="0.2" d="M123.664 547.648C123.664 547.648 125.36 545.44 122.88 545.168C120.4 544.896 109.36 547.84 112 558.88C112 558.88 125.472 557.872 126.048 553.28C126.624 548.688 123.664 547.648 123.664 547.648Z" fill="white"/>
<path d="M169.216 650.944H122.96L117.968 600.304H174.192L169.216 650.944Z" fill="#1B44DD"/>
<path opacity="0.5" d="M169.216 650.944H122.96L117.968 600.304H174.192L169.216 650.944Z" fill="white"/>
<path d="M176.672 594.72H115.504V605.888H176.672V594.72Z" fill="#1B44DD"/>
<path opacity="0.2" d="M176.672 594.72H115.504V605.888H176.672V594.72Z" fill="white"/>
<path d="M544.032 650.944L544.128 650.352L546.832 618.704H558.368L550.128 650.944" fill="#263238"/>
<path d="M650.784 650.944L650.688 650.352L647.968 618.704H636.448L644.688 650.944" fill="#263238"/>
<path d="M528.832 650.944L528.928 650.352L534.176 618.704H545.696L534.928 650.944" fill="#263238"/>
<path d="M665.984 650.944L665.872 650.352L660.64 618.704H649.12L659.888 650.944" fill="#263238"/>
<g opacity="0.2">
<path d="M528.832 650.944L528.928 650.352L534.176 618.704H545.696L534.928 650.944" fill="white"/>
<path d="M665.984 650.944L665.872 650.352L660.64 618.704H649.12L659.888 650.944" fill="white"/>
</g>
<path d="M666.848 429.264H527.984C524.467 429.264 521.616 432.115 521.616 435.632V619.392C521.616 622.909 524.467 625.76 527.984 625.76H666.848C670.365 625.76 673.216 622.909 673.216 619.392V435.632C673.216 432.115 670.365 429.264 666.848 429.264Z" fill="#1B44DD"/>
<path opacity="0.4" d="M666.848 429.264H527.984C524.467 429.264 521.616 432.115 521.616 435.632V619.392C521.616 622.909 524.467 625.76 527.984 625.76H666.848C670.365 625.76 673.216 622.909 673.216 619.392V435.632C673.216 432.115 670.365 429.264 666.848 429.264Z" fill="white"/>
<path opacity="0.5" d="M667.024 472.112H527.792V543.04H667.024V472.112Z" fill="white"/>
<path opacity="0.5" d="M667.024 547.76H527.792V618.688H667.024V547.76Z" fill="white"/>
<path opacity="0.5" d="M667.024 436.32H527.792V467.376H667.024V436.32Z" fill="white"/>
<path opacity="0.5" d="M608.8 441.488H586.016C585.333 441.485 584.665 441.291 584.085 440.929C583.506 440.568 583.039 440.052 582.736 439.44L581.216 436.32H613.6L612 439.44C611.708 440.043 611.254 440.554 610.689 440.916C610.124 441.277 609.47 441.475 608.8 441.488Z" fill="black"/>
<path opacity="0.5" d="M608.8 477.264H586.016C585.332 477.264 584.662 477.072 584.082 476.71C583.502 476.348 583.036 475.83 582.736 475.216L581.216 472.112H613.6L612 475.216C611.711 475.822 611.258 476.335 610.692 476.696C610.127 477.058 609.471 477.255 608.8 477.264Z" fill="black"/>
<path opacity="0.5" d="M608.8 552.928H586.016C585.332 552.928 584.662 552.736 584.082 552.374C583.502 552.012 583.036 551.494 582.736 550.88L581.216 547.76H613.6L612 550.88C611.711 551.486 611.258 551.999 610.692 552.36C610.127 552.722 609.471 552.919 608.8 552.928Z" fill="black"/>
<path d="M637.904 407.584L649.936 429.264H634.96L637.904 407.584Z" fill="#1B44DD"/>
<path opacity="0.2" d="M637.904 407.584L649.936 429.264H634.96L637.904 407.584Z" fill="black"/>
<path d="M641.92 429.264H613.6L622.464 392.576H650.784L641.92 429.264Z" fill="#1B44DD"/>
<path opacity="0.5" d="M617.504 426.352L624.96 395.488H646.88L639.424 426.352H617.504Z" fill="white"/>
<path d="M559.056 412.56L552.032 429.264H570.816L559.056 412.56Z" fill="#1B44DD"/>
<path d="M597.408 429.264H561.44L552.992 403.2H588.976L597.408 429.264Z" fill="#1B44DD"/>
<path opacity="0.2" d="M597.408 429.264H561.44L552.992 403.2H588.976L597.408 429.264Z" fill="white"/>
<path opacity="0.5" d="M563.424 425.504L557.408 406.96H586.992L592.992 425.504H563.424Z" fill="white"/>
<path d="M437.168 233.264H207.296C198.106 233.264 190.656 240.714 190.656 249.904V657.952C190.656 667.142 198.106 674.592 207.296 674.592H437.168C446.358 674.592 453.808 667.142 453.808 657.952V249.904C453.808 240.714 446.358 233.264 437.168 233.264Z" fill="#263238"/>
<path d="M444.928 249.12V657.888C444.928 658.741 444.758 659.585 444.427 660.371C444.097 661.157 443.612 661.869 443.003 662.465C442.393 663.061 441.671 663.53 440.877 663.843C440.084 664.156 439.236 664.307 438.384 664.288H205.376C204.601 664.299 203.831 664.153 203.113 663.86C202.395 663.566 201.744 663.131 201.199 662.579C200.654 662.028 200.225 661.372 199.94 660.651C199.654 659.93 199.517 659.159 199.536 658.384V248.592C199.506 247.907 199.612 247.223 199.848 246.58C200.084 245.936 200.446 245.346 200.911 244.843C201.377 244.34 201.938 243.934 202.562 243.65C203.185 243.365 203.859 243.207 204.544 243.184H262.8C263.612 243.201 264.401 243.457 265.067 243.921C265.733 244.385 266.247 245.036 266.544 245.792L268.96 251.744C269.256 252.499 269.77 253.149 270.437 253.611C271.104 254.073 271.893 254.325 272.704 254.336H371.904C372.712 254.332 373.501 254.086 374.168 253.63C374.835 253.173 375.351 252.528 375.648 251.776L378.064 245.808C378.358 245.049 378.871 244.395 379.538 243.928C380.204 243.461 380.994 243.202 381.808 243.184H439.232C440.77 243.23 442.228 243.878 443.293 244.988C444.358 246.098 444.945 247.582 444.928 249.12Z" fill="#1B44DD"/>
<path opacity="0.3" d="M444.928 249.12V657.888C444.928 658.741 444.758 659.585 444.427 660.371C444.097 661.157 443.612 661.869 443.003 662.465C442.393 663.061 441.671 663.53 440.877 663.843C440.084 664.156 439.236 664.307 438.384 664.288H205.376C204.601 664.299 203.831 664.153 203.113 663.86C202.395 663.566 201.744 663.131 201.199 662.579C200.654 662.028 200.225 661.372 199.94 660.651C199.654 659.93 199.517 659.159 199.536 658.384V248.592C199.506 247.907 199.612 247.223 199.848 246.58C200.084 245.936 200.446 245.346 200.911 244.843C201.377 244.34 201.938 243.934 202.562 243.65C203.185 243.365 203.859 243.207 204.544 243.184H262.8C263.612 243.201 264.401 243.457 265.067 243.921C265.733 244.385 266.247 245.036 266.544 245.792L268.96 251.744C269.256 252.499 269.77 253.149 270.437 253.611C271.104 254.073 271.893 254.325 272.704 254.336H371.904C372.712 254.332 373.501 254.086 374.168 253.63C374.835 253.173 375.351 252.528 375.648 251.776L378.064 245.808C378.358 245.049 378.871 244.395 379.538 243.928C380.204 243.461 380.994 243.202 381.808 243.184H439.232C440.77 243.23 442.228 243.878 443.293 244.988C444.358 246.098 444.945 247.582 444.928 249.12Z" fill="black"/>
<path opacity="0.6" d="M444.928 270.72H199.536V634.256H444.928V270.72Z" fill="white"/>
<path opacity="0.6" d="M226.592 260.944H229.616V256.896H226.592V260.944Z" fill="white"/>
<path opacity="0.6" d="M221.648 260.944H224.672V255.552H221.648V260.944Z" fill="white"/>
<path opacity="0.6" d="M216.704 260.944H219.728V254.208H216.704V260.944Z" fill="white"/>
<path opacity="0.6" d="M211.76 260.944H214.784V252.864H211.76V260.944Z" fill="white"/>
<path opacity="0.6" d="M417.152 255.424H415.36V259.472H417.152V255.424Z" fill="white"/>
<path opacity="0.6" d="M418.384 260.944H432.704V253.952H418.384V260.944Z" fill="white"/>
<path opacity="0.6" d="M322.192 243.76C322.192 244.428 321.994 245.08 321.623 245.636C321.252 246.191 320.725 246.624 320.108 246.879C319.491 247.135 318.812 247.201 318.157 247.071C317.502 246.941 316.901 246.619 316.429 246.147C315.957 245.675 315.635 245.074 315.505 244.419C315.375 243.764 315.441 243.085 315.697 242.468C315.952 241.851 316.385 241.324 316.94 240.953C317.496 240.582 318.148 240.384 318.816 240.384C319.26 240.382 319.7 240.468 320.11 240.637C320.521 240.806 320.894 241.054 321.208 241.368C321.522 241.682 321.77 242.055 321.939 242.466C322.108 242.876 322.194 243.316 322.192 243.76Z" fill="white"/>
<path opacity="0.6" d="M329.008 243.76C329.008 244.187 328.881 244.605 328.644 244.96C328.407 245.315 328.069 245.592 327.675 245.756C327.28 245.919 326.846 245.962 326.427 245.879C326.008 245.795 325.623 245.59 325.321 245.287C325.019 244.985 324.813 244.6 324.729 244.181C324.646 243.762 324.689 243.328 324.852 242.933C325.016 242.539 325.293 242.201 325.648 241.964C326.003 241.727 326.421 241.6 326.848 241.6C327.421 241.6 327.97 241.828 328.375 242.233C328.78 242.638 329.008 243.187 329.008 243.76Z" fill="white"/>
<path d="M444.928 270.72H199.536V312.688H444.928V270.72Z" fill="#1B44DD"/>
<path d="M434.512 295.136V291.936H431.664C431.481 291.123 431.156 290.348 430.704 289.648L432.72 287.632L430.4 285.312L428.384 287.328C427.682 286.884 426.907 286.564 426.096 286.384V283.536H422.896V286.4C422.085 286.583 421.312 286.902 420.608 287.344L418.592 285.328L416.32 287.616L418.336 289.632C417.884 290.332 417.559 291.107 417.376 291.92H414.528V295.12H417.376C417.562 295.927 417.887 296.696 418.336 297.392L416.32 299.408L418.592 301.696L420.608 299.68C421.315 300.12 422.087 300.444 422.896 300.64V303.472H426.096V300.64C426.906 300.447 427.679 300.123 428.384 299.68L430.4 301.696L432.672 299.408L430.656 297.392C431.105 296.696 431.43 295.927 431.616 295.12L434.512 295.136ZM424.528 296.496C423.936 296.496 423.356 296.32 422.864 295.991C422.372 295.661 421.988 295.193 421.762 294.645C421.536 294.098 421.478 293.495 421.595 292.914C421.711 292.334 421.998 291.8 422.418 291.383C422.838 290.965 423.373 290.681 423.954 290.568C424.536 290.454 425.138 290.515 425.684 290.744C426.231 290.973 426.697 291.359 427.024 291.853C427.35 292.348 427.523 292.928 427.52 293.52C427.52 293.912 427.442 294.3 427.292 294.663C427.141 295.025 426.921 295.353 426.643 295.63C426.365 295.907 426.035 296.125 425.672 296.274C425.309 296.423 424.92 296.498 424.528 296.496Z" fill="white"/>
<path d="M220.752 284.704L209.952 294.96H213.296V302.32H228.208V294.96H231.536L220.752 284.704Z" fill="white"/>
<path opacity="0.4" d="M367.824 383.152C367.834 392.174 365.167 400.995 360.161 408.501C355.156 416.006 348.036 421.858 339.704 425.317C331.372 428.775 322.201 429.684 313.351 427.929C304.502 426.173 296.373 421.832 289.991 415.455C283.61 409.078 279.263 400.952 277.502 392.104C275.74 383.256 276.643 374.085 280.095 365.75C283.548 357.415 289.395 350.291 296.897 345.281C304.399 340.27 313.218 337.597 322.24 337.6C328.226 337.59 334.156 338.76 339.689 341.045C345.222 343.33 350.25 346.685 354.485 350.917C358.719 355.148 362.077 360.174 364.366 365.705C366.655 371.237 367.83 377.166 367.824 383.152Z" fill="black"/>
<path opacity="0.8" d="M356.704 413.008C352.423 417.949 347.13 421.911 341.184 424.627C335.238 427.343 328.777 428.748 322.24 428.748C315.703 428.748 309.242 427.343 303.296 424.627C297.349 421.911 292.057 417.949 287.776 413.008C289.427 407.087 292.574 401.691 296.915 397.34C301.256 392.988 306.644 389.826 312.56 388.16C309.396 386.079 306.988 383.033 305.693 379.475C304.398 375.916 304.285 372.035 305.371 368.408C306.458 364.78 308.685 361.6 311.722 359.338C314.76 357.077 318.445 355.856 322.232 355.856C326.019 355.856 329.704 357.077 332.742 359.338C335.779 361.6 338.006 364.78 339.093 368.408C340.179 372.035 340.066 375.916 338.771 379.475C337.476 383.033 335.068 386.079 331.904 388.16C337.821 389.828 343.21 392.99 347.553 397.341C351.896 401.693 355.047 407.088 356.704 413.008Z" fill="white"/>
<g opacity="0.5">
<path d="M236.64 455.808V456.64H231.76V449.92H236.56V450.752H232.784V452.8H236.16V453.616H232.784V455.792L236.64 455.808Z" fill="black"/>
<path d="M237.536 453.6H240.128V454.4H237.536V453.6Z" fill="black"/>
<path d="M249.984 453.712V456.64H249.072V453.824C249.072 452.816 248.592 452.336 247.76 452.336C247.537 452.314 247.313 452.343 247.103 452.421C246.894 452.499 246.704 452.624 246.55 452.786C246.396 452.948 246.281 453.143 246.213 453.356C246.145 453.569 246.127 453.795 246.16 454.016V456.64H245.248V453.824C245.248 452.816 244.768 452.336 243.92 452.336C243.697 452.314 243.473 452.343 243.263 452.421C243.054 452.499 242.864 452.624 242.71 452.786C242.556 452.948 242.441 453.143 242.373 453.356C242.305 453.569 242.287 453.795 242.32 454.016V456.64H241.6V451.552H242.48V452.32C242.679 452.048 242.942 451.831 243.247 451.688C243.552 451.546 243.888 451.482 244.224 451.504C244.579 451.478 244.934 451.553 245.248 451.72C245.562 451.887 245.823 452.139 246 452.448C246.222 452.142 246.516 451.895 246.857 451.73C247.198 451.565 247.574 451.488 247.952 451.504C248.238 451.49 248.524 451.539 248.789 451.647C249.054 451.756 249.292 451.921 249.485 452.132C249.679 452.343 249.825 452.593 249.911 452.866C249.997 453.14 250.022 453.428 249.984 453.712Z" fill="black"/>
<path d="M255.728 453.568V456.64H254.848V456C254.661 456.244 254.418 456.438 254.139 456.566C253.86 456.694 253.554 456.753 253.248 456.736C252.096 456.736 251.36 456.112 251.36 455.232C251.36 454.352 251.888 453.744 253.408 453.744H254.864V453.568C254.864 452.784 254.416 452.336 253.504 452.336C252.925 452.334 252.362 452.525 251.904 452.88L251.52 452.192C252.124 451.741 252.863 451.51 253.616 451.536C254.928 451.504 255.728 452.176 255.728 453.568ZM254.8 455.088V454.4H253.376C252.464 454.4 252.208 454.768 252.208 455.2C252.208 455.632 252.624 456.016 253.328 456.016C253.64 456.035 253.95 455.956 254.214 455.79C254.478 455.623 254.683 455.378 254.8 455.088Z" fill="black"/>
<path d="M257.264 449.984C257.264 449.903 257.28 449.822 257.312 449.748C257.343 449.673 257.39 449.605 257.448 449.548C257.506 449.492 257.575 449.447 257.65 449.418C257.726 449.388 257.807 449.374 257.888 449.376C258.008 449.379 258.124 449.418 258.221 449.486C258.319 449.555 258.395 449.651 258.438 449.762C258.482 449.874 258.492 449.995 258.466 450.112C258.441 450.229 258.382 450.336 258.296 450.419C258.211 450.503 258.102 450.559 257.985 450.581C257.867 450.603 257.746 450.591 257.636 450.544C257.526 450.498 257.432 450.42 257.366 450.32C257.299 450.221 257.264 450.104 257.264 449.984ZM257.44 451.584H258.352V456.672H257.44V451.584Z" fill="black"/>
<path d="M260.112 449.6H261.024V456.72H260.112V449.6Z" fill="black"/>
</g>
<g opacity="0.8">
<path d="M401.68 489.904H242.784C239.593 489.904 236.532 488.636 234.276 486.38C232.02 484.124 230.752 481.063 230.752 477.872C230.752 474.681 232.02 471.621 234.276 469.364C236.532 467.108 239.593 465.84 242.784 465.84H401.68C404.871 465.84 407.931 467.108 410.188 469.364C412.444 471.621 413.712 474.681 413.712 477.872C413.712 481.063 412.444 484.124 410.188 486.38C407.931 488.636 404.871 489.904 401.68 489.904Z" fill="white"/>
</g>
<g opacity="0.5">
<path d="M237.184 511.472C237.184 512.928 236.128 513.808 234.384 513.808H232.784V515.84H231.824V509.12H234.448C236.128 509.12 237.184 510 237.184 511.472ZM236.224 511.472C236.224 510.512 235.584 509.952 234.352 509.952H232.752V512.976H234.352C235.584 512.976 236.224 512.416 236.224 511.472Z" fill="black"/>
<path d="M242.448 512.768V515.84H241.6V515.2C241.414 515.445 241.171 515.64 240.892 515.768C240.613 515.896 240.307 515.954 240 515.936C238.848 515.936 238.112 515.312 238.112 514.432C238.112 513.552 238.64 512.944 240.16 512.944H241.6V512.768C241.6 511.984 241.152 511.536 240.24 511.536C239.661 511.534 239.098 511.725 238.64 512.08L238.256 511.392C238.866 510.941 239.61 510.71 240.368 510.736C241.6 510.704 242.448 511.376 242.448 512.768ZM241.52 514.288V513.6H240.096C239.184 513.6 238.928 513.968 238.928 514.4C238.928 514.832 239.36 515.216 240.048 515.216C240.373 515.256 240.702 515.187 240.983 515.018C241.264 514.85 241.481 514.593 241.6 514.288H241.52Z" fill="black"/>
<path d="M243.52 515.296L243.904 514.576C244.431 514.923 245.049 515.107 245.68 515.104C246.528 515.104 246.896 514.848 246.896 514.416C246.896 513.264 243.696 514.256 243.696 512.224C243.696 511.328 244.512 510.704 245.808 510.704C246.457 510.694 247.097 510.854 247.664 511.168L247.264 511.888C246.827 511.618 246.322 511.479 245.808 511.488C244.992 511.488 244.608 511.792 244.608 512.192C244.608 513.392 247.808 512.416 247.808 514.384C247.808 515.312 246.96 515.904 245.616 515.904C244.872 515.921 244.14 515.709 243.52 515.296Z" fill="black"/>
<path d="M248.32 515.296L248.704 514.576C249.238 514.921 249.86 515.105 250.496 515.104C251.344 515.104 251.696 514.848 251.696 514.416C251.696 513.264 248.496 514.256 248.496 512.224C248.496 511.328 249.312 510.704 250.624 510.704C251.272 510.695 251.912 510.855 252.48 511.168L252.08 511.888C251.636 511.619 251.126 511.481 250.608 511.488C249.808 511.488 249.408 511.792 249.408 512.192C249.408 513.392 252.608 512.416 252.608 514.384C252.608 515.312 251.76 515.904 250.4 515.904C249.661 515.916 248.936 515.704 248.32 515.296Z" fill="black"/>
<path d="M261.376 510.752L259.472 515.84H258.592L257.12 512L255.632 515.856H254.752L252.8 510.752H253.664L255.152 514.8L256.752 510.752H257.6L259.2 514.816L260.704 510.752H261.376Z" fill="black"/>
<path d="M261.696 513.296C261.69 512.773 261.839 512.259 262.125 511.821C262.411 511.382 262.821 511.039 263.303 510.834C263.785 510.63 264.317 510.573 264.831 510.671C265.345 510.769 265.819 511.018 266.191 511.386C266.564 511.754 266.818 512.224 266.923 512.737C267.027 513.25 266.977 513.783 266.778 514.267C266.579 514.751 266.241 515.165 265.806 515.457C265.371 515.748 264.859 515.904 264.336 515.904C263.988 515.92 263.64 515.863 263.315 515.738C262.99 515.613 262.694 515.422 262.446 515.177C262.198 514.932 262.003 514.639 261.874 514.315C261.745 513.991 261.685 513.644 261.696 513.296ZM266.048 513.296C266.048 513.071 266.004 512.849 265.918 512.641C265.832 512.433 265.705 512.244 265.546 512.086C265.388 511.927 265.199 511.8 264.991 511.714C264.783 511.628 264.561 511.584 264.336 511.584C264.111 511.584 263.888 511.628 263.681 511.714C263.473 511.8 263.284 511.927 263.125 512.086C262.966 512.244 262.84 512.433 262.754 512.641C262.668 512.849 262.624 513.071 262.624 513.296C262.624 513.521 262.668 513.744 262.754 513.951C262.84 514.159 262.966 514.348 263.125 514.507C263.284 514.666 263.473 514.792 263.681 514.878C263.888 514.964 264.111 515.008 264.336 515.008C264.561 515.008 264.783 514.964 264.991 514.878C265.199 514.792 265.388 514.666 265.546 514.507C265.705 514.348 265.832 514.159 265.918 513.951C266.004 513.744 266.048 513.521 266.048 513.296Z" fill="black"/>
<path d="M270.992 510.704V511.6H270.784C270.563 511.599 270.344 511.645 270.141 511.733C269.938 511.821 269.755 511.951 269.605 512.113C269.454 512.275 269.339 512.467 269.267 512.676C269.195 512.885 269.166 513.107 269.184 513.328V515.856H268.256V510.768H269.136V511.616C269.329 511.305 269.605 511.055 269.933 510.894C270.261 510.733 270.628 510.667 270.992 510.704Z" fill="black"/>
<path d="M276.88 508.8V515.92H276V515.12C275.789 515.402 275.513 515.628 275.195 515.778C274.877 515.929 274.527 515.999 274.176 515.984C273.522 515.933 272.911 515.636 272.465 515.155C272.02 514.673 271.772 514.04 271.772 513.384C271.772 512.728 272.02 512.096 272.465 511.614C272.911 511.132 273.522 510.835 274.176 510.784C274.515 510.771 274.853 510.838 275.162 510.98C275.47 511.121 275.741 511.334 275.952 511.6V508.8H276.88ZM275.968 513.376C275.952 513.041 275.839 512.719 275.641 512.448C275.444 512.177 275.171 511.97 274.858 511.853C274.544 511.735 274.202 511.712 273.876 511.787C273.549 511.862 273.251 512.031 273.02 512.273C272.788 512.516 272.633 512.821 272.573 513.15C272.514 513.48 272.552 513.82 272.683 514.128C272.815 514.437 273.034 514.699 273.314 514.884C273.593 515.069 273.921 515.168 274.256 515.168C274.5 515.189 274.746 515.153 274.974 515.064C275.203 514.975 275.408 514.835 275.573 514.654C275.738 514.473 275.86 514.256 275.929 514.021C275.997 513.785 276.011 513.537 275.968 513.296V513.376Z" fill="black"/>
</g>
<g opacity="0.8">
<path d="M401.68 549.104H242.784C239.593 549.104 236.532 547.836 234.276 545.58C232.02 543.324 230.752 540.263 230.752 537.072C230.752 533.881 232.02 530.821 234.276 528.564C236.532 526.308 239.593 525.04 242.784 525.04H401.68C404.871 525.04 407.931 526.308 410.188 528.564C412.444 530.821 413.712 533.881 413.712 537.072C413.712 540.263 412.444 543.324 410.188 545.58C407.931 547.836 404.871 549.104 401.68 549.104Z" fill="white"/>
</g>
<path d="M361.68 598.704H282.784C281.204 598.704 279.639 598.393 278.179 597.788C276.72 597.183 275.393 596.297 274.276 595.18C273.159 594.063 272.272 592.736 271.668 591.276C271.063 589.817 270.752 588.252 270.752 586.672C270.752 585.092 271.063 583.527 271.668 582.068C272.272 580.608 273.159 579.281 274.276 578.164C275.393 577.047 276.72 576.161 278.179 575.556C279.639 574.951 281.204 574.64 282.784 574.64H361.68C364.871 574.64 367.931 575.908 370.188 578.164C372.444 580.421 373.712 583.481 373.712 586.672C373.712 589.863 372.444 592.924 370.188 595.18C367.931 597.436 364.871 598.704 361.68 598.704Z" fill="#1B44DD"/>
<path d="M305.83 583.455C305.778 583.023 305.571 582.688 305.207 582.449C304.844 582.21 304.398 582.091 303.869 582.091C303.483 582.091 303.145 582.153 302.855 582.278C302.568 582.403 302.344 582.575 302.182 582.794C302.023 583.013 301.943 583.261 301.943 583.54C301.943 583.773 301.999 583.973 302.109 584.141C302.223 584.305 302.368 584.443 302.544 584.554C302.72 584.662 302.905 584.751 303.098 584.822C303.291 584.891 303.469 584.946 303.631 584.989L304.517 585.227C304.744 585.287 304.997 585.369 305.276 585.474C305.557 585.58 305.825 585.723 306.081 585.905C306.339 586.084 306.553 586.314 306.72 586.595C306.888 586.876 306.972 587.222 306.972 587.631C306.972 588.102 306.848 588.528 306.601 588.909C306.357 589.29 305.999 589.592 305.527 589.817C305.058 590.041 304.489 590.153 303.818 590.153C303.193 590.153 302.652 590.053 302.195 589.851C301.74 589.649 301.382 589.368 301.121 589.007C300.862 588.646 300.716 588.227 300.682 587.75H301.773C301.801 588.08 301.912 588.352 302.105 588.568C302.301 588.781 302.548 588.94 302.847 589.045C303.148 589.148 303.472 589.199 303.818 589.199C304.222 589.199 304.584 589.134 304.905 589.003C305.226 588.869 305.48 588.685 305.668 588.449C305.855 588.21 305.949 587.932 305.949 587.614C305.949 587.324 305.868 587.088 305.706 586.906C305.544 586.724 305.331 586.577 305.067 586.463C304.803 586.349 304.517 586.25 304.21 586.165L303.136 585.858C302.455 585.662 301.915 585.382 301.517 585.018C301.119 584.655 300.92 584.179 300.92 583.591C300.92 583.102 301.053 582.676 301.317 582.312C301.584 581.946 301.942 581.662 302.391 581.46C302.842 581.256 303.347 581.153 303.903 581.153C304.466 581.153 304.966 581.254 305.403 581.456C305.841 581.655 306.188 581.928 306.443 582.274C306.702 582.621 306.838 583.014 306.852 583.455H305.83ZM308.573 590V583.455H309.578V590H308.573ZM309.084 582.364C308.888 582.364 308.719 582.297 308.577 582.163C308.438 582.03 308.368 581.869 308.368 581.682C308.368 581.494 308.438 581.334 308.577 581.2C308.719 581.067 308.888 581 309.084 581C309.28 581 309.448 581.067 309.587 581.2C309.729 581.334 309.8 581.494 309.8 581.682C309.8 581.869 309.729 582.03 309.587 582.163C309.448 582.297 309.28 582.364 309.084 582.364ZM314.062 592.591C313.577 592.591 313.159 592.528 312.81 592.403C312.46 592.281 312.169 592.119 311.936 591.918C311.706 591.719 311.523 591.506 311.386 591.278L312.188 590.716C312.278 590.835 312.393 590.972 312.533 591.125C312.672 591.281 312.862 591.416 313.104 591.53C313.348 591.646 313.668 591.705 314.062 591.705C314.591 591.705 315.027 591.577 315.371 591.321C315.714 591.065 315.886 590.665 315.886 590.119V588.79H315.801C315.727 588.909 315.622 589.057 315.486 589.233C315.352 589.406 315.159 589.561 314.906 589.697C314.656 589.831 314.318 589.898 313.892 589.898C313.364 589.898 312.889 589.773 312.469 589.523C312.051 589.273 311.72 588.909 311.476 588.432C311.234 587.955 311.114 587.375 311.114 586.693C311.114 586.023 311.232 585.439 311.467 584.942C311.703 584.442 312.031 584.055 312.452 583.783C312.872 583.507 313.358 583.369 313.909 583.369C314.335 583.369 314.673 583.44 314.923 583.582C315.176 583.722 315.369 583.881 315.503 584.06C315.639 584.236 315.744 584.381 315.818 584.494H315.92V583.455H316.892V590.188C316.892 590.75 316.764 591.207 316.509 591.56C316.256 591.915 315.915 592.175 315.486 592.339C315.06 592.507 314.585 592.591 314.062 592.591ZM314.028 588.994C314.432 588.994 314.773 588.902 315.051 588.717C315.33 588.533 315.541 588.267 315.686 587.92C315.831 587.574 315.903 587.159 315.903 586.676C315.903 586.205 315.832 585.788 315.69 585.428C315.548 585.067 315.338 584.784 315.06 584.58C314.781 584.375 314.438 584.273 314.028 584.273C313.602 584.273 313.247 584.381 312.963 584.597C312.682 584.812 312.47 585.102 312.328 585.466C312.189 585.83 312.119 586.233 312.119 586.676C312.119 587.131 312.19 587.533 312.332 587.882C312.477 588.229 312.69 588.501 312.972 588.7C313.256 588.896 313.608 588.994 314.028 588.994ZM319.739 586.062V590H318.733V583.455H319.705V584.477H319.79C319.943 584.145 320.176 583.878 320.489 583.676C320.801 583.472 321.205 583.369 321.699 583.369C322.142 583.369 322.53 583.46 322.862 583.642C323.195 583.821 323.453 584.094 323.638 584.46C323.822 584.824 323.915 585.284 323.915 585.841V590H322.909V585.909C322.909 585.395 322.776 584.994 322.509 584.707C322.241 584.418 321.875 584.273 321.409 584.273C321.088 584.273 320.801 584.342 320.548 584.482C320.298 584.621 320.101 584.824 319.956 585.091C319.811 585.358 319.739 585.682 319.739 586.062ZM334.991 581.273H336.048V587.051C336.048 587.648 335.907 588.18 335.626 588.649C335.348 589.115 334.954 589.483 334.446 589.753C333.937 590.02 333.341 590.153 332.656 590.153C331.971 590.153 331.375 590.02 330.866 589.753C330.358 589.483 329.963 589.115 329.681 588.649C329.403 588.18 329.264 587.648 329.264 587.051V581.273H330.321V586.966C330.321 587.392 330.414 587.771 330.602 588.104C330.789 588.433 331.056 588.693 331.403 588.884C331.752 589.071 332.17 589.165 332.656 589.165C333.142 589.165 333.559 589.071 333.909 588.884C334.258 588.693 334.525 588.433 334.71 588.104C334.897 587.771 334.991 587.392 334.991 586.966V581.273ZM338.022 592.455V583.455H338.994V584.494H339.113C339.187 584.381 339.289 584.236 339.42 584.06C339.553 583.881 339.744 583.722 339.991 583.582C340.241 583.44 340.579 583.369 341.005 583.369C341.556 583.369 342.042 583.507 342.462 583.783C342.883 584.058 343.211 584.449 343.447 584.955C343.683 585.46 343.8 586.057 343.8 586.744C343.8 587.438 343.683 588.038 343.447 588.547C343.211 589.053 342.884 589.445 342.467 589.723C342.049 589.999 341.567 590.136 341.022 590.136C340.602 590.136 340.265 590.067 340.012 589.928C339.759 589.786 339.565 589.625 339.428 589.446C339.292 589.264 339.187 589.114 339.113 588.994H339.028V592.455H338.022ZM339.011 586.727C339.011 587.222 339.083 587.658 339.228 588.036C339.373 588.411 339.585 588.705 339.863 588.918C340.141 589.128 340.482 589.233 340.886 589.233C341.306 589.233 341.657 589.122 341.938 588.901C342.222 588.676 342.435 588.375 342.577 587.997C342.722 587.616 342.795 587.193 342.795 586.727C342.795 586.267 342.724 585.852 342.582 585.483C342.442 585.111 342.231 584.817 341.947 584.601C341.665 584.382 341.312 584.273 340.886 584.273C340.477 584.273 340.133 584.376 339.854 584.584C339.576 584.788 339.366 585.075 339.224 585.445C339.082 585.811 339.011 586.239 339.011 586.727Z" fill="white"/>
<path d="M608.16 295.872L539.456 295.232C537.889 295.211 536.394 294.569 535.299 293.447C534.204 292.326 533.599 290.815 533.616 289.248L534.272 268.528C534.28 267.753 534.441 266.987 534.746 266.273C535.05 265.56 535.492 264.914 536.046 264.372C536.601 263.83 537.256 263.402 537.976 263.113C538.695 262.824 539.465 262.68 540.24 262.688L609.04 263.344C610.607 263.365 612.102 264.007 613.197 265.129C614.292 266.25 614.897 267.761 614.88 269.328L614.224 290.048C614.216 290.831 614.052 291.604 613.741 292.323C613.43 293.041 612.98 293.691 612.415 294.233C611.85 294.776 611.183 295.2 610.452 295.481C609.722 295.763 608.943 295.895 608.16 295.872Z" fill="#1B44DD"/>
<path d="M572.8 290.64C572.8 290.64 564.096 309.84 545.056 315.712C545.056 315.712 555.616 309.792 555.072 289.616L572.8 290.64Z" fill="#1B44DD"/>
<path d="M551.44 279.04L553.04 279.936L552.304 281.168L550.704 280.176V282H549.296V280.176L547.696 281.168L546.976 279.936L548.576 279.04L546.976 278.144L547.696 276.912L549.296 277.904V276.064H550.704V277.904L552.304 276.912L553.04 278.144L551.44 279.04Z" fill="white"/>
<path d="M561.264 279.04L562.864 279.936L562.128 281.168L560.528 280.176V282H559.12V280.176L557.52 281.168L556.8 280L558.4 279.104L556.8 278.208L557.536 276.976L559.136 277.968V276.128H560.544V277.968L562.144 276.976L562.88 278.208L561.264 279.04Z" fill="white"/>
<path d="M571.104 279.04L572.704 279.936L571.968 281.168L570.368 280.176V282H568.944V280.176L567.344 281.168L566.624 279.936L568.224 279.04L566.624 278.144L567.344 276.912L568.944 277.904V276.064H570.368V277.904L571.968 276.912L572.704 278.144L571.104 279.04Z" fill="white"/>
<path d="M580.928 279.04L582.528 279.936L581.792 281.168L580.192 280.176V282H578.784V280.176L577.184 281.168L576.464 279.936L578.064 279.04L576.464 278.144L577.184 276.912L578.784 277.904V276.064H580.192V277.904L581.792 276.912L582.528 278.144L580.928 279.04Z" fill="white"/>
<path d="M590.752 279.04L592.352 279.936L591.616 281.168L590.016 280.176V282H588.608V280.176L587.008 281.168L586.272 279.936L587.872 279.04L586.272 278.144L587.008 276.912L588.608 277.904V276.064H590.016V277.904L591.616 276.912L592.352 278.144L590.752 279.04Z" fill="white"/>
<path d="M600.592 279.04L602.192 279.936L601.456 281.168L599.856 280.176V282H598.4V280.176L596.8 281.168L596.08 279.936L597.68 279.04L596.08 278.144L596.8 276.912L598.4 277.904V276.064H599.824V277.904L601.424 276.912L602.16 278.144L600.592 279.04Z" fill="white"/>
<path d="M499.424 329.6C508.576 331.024 517.456 359.216 521.312 361.6C525.168 363.984 521.856 335.2 521.856 335.2L529.184 334.224C529.184 334.224 537.856 377.616 525.2 377.296C515.6 377.056 504.08 360.944 501.2 352.736L499.424 329.6Z" fill="#EBB376"/>
<path opacity="0.1" d="M525.2 377.184C519.36 377.04 512.816 371.04 507.952 364.512C505.172 360.886 502.92 356.883 501.264 352.624L500.32 340.784L499.424 329.584C508.576 331.008 517.456 359.2 521.312 361.584C525.168 363.968 521.856 335.184 521.856 335.184L529.184 334.208C529.184 334.208 537.856 377.504 525.2 377.184Z" fill="black"/>
<path opacity="0.2" d="M507.952 364.512C505.172 360.886 502.92 356.883 501.264 352.624L500.32 340.784C500.32 340.784 510.304 350.832 507.952 364.512Z" fill="black"/>
<path d="M465.728 271.296C465.728 271.296 449.424 271.104 450.208 293.52C450.992 315.936 466.672 316.24 461.408 322.72C466.085 324.703 471.112 325.725 476.192 325.725C481.272 325.725 486.299 324.703 490.976 322.72C490.976 322.72 488.08 321.584 489.456 317.472C490.832 313.36 498.384 307.472 499.056 298.8C499.728 290.128 482.592 269.056 465.728 271.296Z" fill="#263238"/>
<path d="M481.84 314.208C481.84 314.208 502.64 310.352 499.168 290.576C496.32 274.368 488.752 269.168 481.84 266.848C478.863 265.845 475.64 265.843 472.661 266.843C469.683 267.842 467.113 269.788 465.344 272.384C465.344 272.384 451.232 268.384 453.68 291.584C456.128 314.784 471.456 324.8 481.84 314.208Z" fill="#263238"/>
<path d="M519.76 645.584L510.512 640.848L513.872 627.024L516.976 614.368L528.624 618.176L523.936 632.688L519.76 645.584Z" fill="#EBB376"/>
<path d="M507.936 638.672C508.48 637.648 520.896 644.848 520.896 644.848C520.896 644.848 524.784 656.8 531.552 662.448C538.32 668.096 531.744 670.528 523.184 666.272L502 655.712C496 652.656 502.304 649.36 507.936 638.672Z" fill="#263238"/>
<path d="M525.104 650.928C523.759 649.84 522.55 648.594 521.504 647.216C521.496 647.179 521.496 647.141 521.504 647.104C521.496 647.056 521.496 647.008 521.504 646.96C521.497 646.929 521.497 646.896 521.504 646.864C521.517 646.806 521.551 646.754 521.6 646.72C521.712 646.608 524.272 644.16 526.4 644.304C526.713 644.325 527.018 644.413 527.294 644.562C527.57 644.711 527.811 644.918 528 645.168C528.202 645.355 528.34 645.601 528.395 645.871C528.449 646.141 528.418 646.421 528.304 646.672C527.92 647.328 526.704 647.536 525.36 647.584C526.412 647.899 527.355 648.503 528.08 649.328C528.202 649.5 528.286 649.696 528.328 649.903C528.369 650.109 528.366 650.322 528.32 650.528C528.144 651.392 527.68 651.664 527.328 651.744C526.921 651.769 526.514 651.709 526.131 651.568C525.748 651.428 525.399 651.21 525.104 650.928ZM522.784 647.584C524.272 649.328 526.272 651.216 527.12 651.008C527.2 651.008 527.424 651.008 527.536 650.384C527.56 650.273 527.559 650.159 527.534 650.048C527.509 649.938 527.461 649.834 527.392 649.744C526.736 648.752 524.368 648 522.784 647.584ZM527.04 645.328C526.811 645.162 526.538 645.068 526.256 645.056C524.927 645.197 523.677 645.757 522.688 646.656C524.944 646.88 527.28 646.784 527.6 646.224C527.696 646.048 527.488 645.744 527.344 645.568C527.254 645.474 527.152 645.393 527.04 645.328Z" fill="#1B44DD"/>
<path opacity="0.2" d="M523.824 632.976L513.776 627.296L516.912 614.496L528.608 618.24L523.824 632.976Z" fill="black"/>
<path d="M503.44 657.136H492.864L489.84 643.536L487.088 631.072L499.456 629.184L501.568 643.984L503.44 657.136Z" fill="#EBB376"/>
<path d="M489.376 656.72C489.376 655.552 503.776 656.464 503.776 656.464C503.776 656.464 512.592 665.424 521.152 667.44C529.712 669.456 524.928 674.592 515.36 674.592H491.632C484.8 674.592 489.088 668.8 489.376 656.72Z" fill="#263238"/>
<path d="M511.248 660.128C509.18 659.871 507.172 659.259 505.312 658.32L505.184 658.224V658.144C505.152 658.045 505.152 657.939 505.184 657.84C505.184 657.712 506.448 654.368 508.384 653.552C508.675 653.417 508.991 653.348 509.312 653.348C509.632 653.348 509.949 653.417 510.24 653.552C510.896 653.872 511.2 654.272 511.184 654.768C511.184 655.52 510.112 656.272 508.944 656.896C510.022 656.701 511.134 656.824 512.144 657.248C512.329 657.349 512.492 657.487 512.624 657.651C512.756 657.816 512.854 658.005 512.912 658.208C513.03 658.478 513.06 658.778 512.996 659.065C512.933 659.353 512.78 659.613 512.56 659.808C512.174 660.065 511.709 660.178 511.248 660.128ZM506.624 658.08C508.736 658.96 511.424 659.76 512.032 659.2C512.032 659.2 512.272 659.008 512.128 658.448C512.102 658.341 512.052 658.241 511.983 658.156C511.914 658.07 511.827 658 511.728 657.952C510.688 657.344 508.24 657.712 506.624 658.08ZM509.184 654.128C508.985 654.132 508.79 654.176 508.608 654.256C507.484 654.996 506.622 656.07 506.144 657.328C508.272 656.528 510.32 655.408 510.352 654.768C510.352 654.56 510.048 654.384 509.856 654.288C509.648 654.182 509.417 654.127 509.184 654.128Z" fill="#1B44DD"/>
<path opacity="0.2" d="M501.6 644.288L489.872 643.808L487.104 631.2L499.472 629.248L501.6 644.288Z" fill="black"/>
<path d="M451.872 408.224L477.84 404.064L501.376 399.264L507.776 437.664C507.776 437.664 540.912 485.664 548.944 518.688C556.976 551.712 526.848 628.32 526.848 628.32L513.008 622.192C513.008 622.192 522.608 548.512 522.384 539.664C522.24 533.904 503.344 507.344 490.128 489.44C489.744 493.936 494.032 538.752 494.032 538.752L503.36 636.992H485.92C425.952 450.768 451.872 408.224 451.872 408.224Z" fill="#263238"/>
<path opacity="0.6" d="M485.92 636.928H503.296L493.968 538.688C493.968 538.688 489.712 493.568 490.064 489.376C492.672 492.912 495.504 496.768 498.368 500.752C510 516.928 522.208 534.96 522.368 539.584C522.592 548.448 512.992 622.128 512.992 622.128L526.832 628.256C526.832 628.256 556.96 551.616 548.928 518.608C540.896 485.6 507.76 437.6 507.76 437.6L501.36 399.2L477.824 404L451.856 408.16C451.856 408.16 425.952 450.768 485.92 636.928Z" fill="white"/>
<path d="M512.224 615.936L532.656 622.976L528.096 629.984L511.312 623.984L512.224 615.936Z" fill="#1B44DD"/>
<path d="M483.424 634.576L505.28 631.584L504.192 639.744L486.144 642.016L483.424 634.576Z" fill="#1B44DD"/>
<path opacity="0.2" d="M490.064 489.376C492.672 492.912 495.504 496.768 498.368 500.752C493.792 477.04 488.4 453.952 488.4 453.952C487.717 465.786 488.274 477.658 490.064 489.376Z" fill="black"/>
<path d="M500.912 400.768L453.536 404.048C453.536 404.048 452.896 378.672 449.12 365.472C448.608 363.696 448.048 361.84 447.424 359.856C446.544 357.072 445.536 354.08 444.384 350.816C444.112 350.048 443.424 348.128 442.592 345.904C441.934 344.129 441.803 342.201 442.214 340.354C442.626 338.506 443.563 336.816 444.912 335.488C446.226 334.172 447.893 333.266 449.712 332.88C453.2 332.112 456.64 331.392 458.512 331.104C465.609 329.978 472.77 329.299 479.952 329.072C486.032 329.072 492.752 329.424 496.592 329.696L499.92 329.952C499.92 329.952 501.424 330.288 502.384 339.104C503.248 347.392 502.832 370.624 500.912 400.768Z" fill="#1B44DD"/>
<path d="M478.4 339.2C466.448 337.04 463.088 331.728 463.088 331.728C471.088 324.912 465.392 312.112 465.392 312.112L479.792 315.552C479.35 317.549 479.056 319.576 478.912 321.616C478.352 330.4 482.32 330.688 482.32 330.688C484.512 335.504 478.4 339.2 478.4 339.2Z" fill="#EBB376"/>
<path opacity="0.2" d="M479.68 315.472C479.238 317.469 478.944 319.496 478.8 321.536C471.904 319.568 465.344 312.032 465.344 312.032L479.68 315.472Z" fill="black"/>
<path d="M478.624 274.432C491.184 275.568 494.624 282.656 494.384 295.696C494.08 311.984 489.456 323.168 474.048 318.288C453.12 311.68 457.744 272.56 478.624 274.432Z" fill="#EBB376"/>
<path d="M486.4 294.256C487.24 296.229 488.314 298.093 489.6 299.808C489.184 300.291 488.643 300.651 488.037 300.849C487.43 301.046 486.781 301.074 486.16 300.928L486.4 294.256Z" fill="#D58745"/>
<path d="M478.72 292.544C478.72 293.568 478.032 294.368 477.344 294.336C476.656 294.304 476.16 293.408 476.224 292.368C476.288 291.328 476.912 290.544 477.6 290.576C478.288 290.608 478.784 291.504 478.72 292.544Z" fill="#263238"/>
<path d="M477.296 290.608L479.616 289.872C479.616 289.872 478.4 291.696 477.296 290.608Z" fill="#263238"/>
<path d="M491.6 293.184C491.52 294.208 490.912 295.008 490.224 294.96C489.536 294.912 489.024 294.048 489.104 293.008C489.184 291.968 489.776 291.168 490.48 291.216C491.184 291.264 491.664 292.144 491.6 293.184Z" fill="#263238"/>
<path d="M490.176 291.2L492.496 290.464C492.496 290.464 491.2 292.336 490.176 291.2Z" fill="#263238"/>
<path d="M473.744 285.84C473.596 285.836 473.454 285.779 473.344 285.68C473.238 285.567 473.179 285.419 473.179 285.264C473.179 285.109 473.238 284.961 473.344 284.848C474.179 284.122 475.172 283.599 476.244 283.321C477.315 283.044 478.437 283.019 479.52 283.248C479.595 283.265 479.665 283.296 479.728 283.34C479.79 283.384 479.843 283.44 479.884 283.505C479.925 283.57 479.953 283.642 479.966 283.717C479.979 283.792 479.977 283.869 479.96 283.944C479.943 284.019 479.912 284.089 479.868 284.152C479.824 284.214 479.768 284.267 479.703 284.308C479.638 284.349 479.566 284.377 479.491 284.39C479.416 284.403 479.339 284.401 479.264 284.384C478.377 284.195 477.458 284.209 476.577 284.425C475.696 284.641 474.875 285.054 474.176 285.632C474.123 285.696 474.057 285.747 473.983 285.783C473.908 285.819 473.827 285.838 473.744 285.84Z" fill="#263238"/>
<path d="M493.472 286.208C493.339 286.205 493.21 286.16 493.104 286.08C492.524 285.53 491.826 285.12 491.064 284.881C490.301 284.643 489.494 284.582 488.704 284.704C488.556 284.739 488.4 284.715 488.269 284.637C488.138 284.56 488.041 284.435 488 284.288C487.961 284.142 487.981 283.986 488.055 283.854C488.13 283.722 488.254 283.625 488.4 283.584C489.369 283.415 490.363 283.471 491.307 283.749C492.25 284.026 493.117 284.517 493.84 285.184C493.899 285.232 493.948 285.291 493.985 285.359C494.021 285.426 494.043 285.499 494.051 285.575C494.058 285.651 494.05 285.728 494.028 285.801C494.005 285.874 493.969 285.941 493.92 286C493.866 286.067 493.798 286.12 493.72 286.156C493.642 286.192 493.558 286.21 493.472 286.208Z" fill="#263238"/>
<path d="M462.976 294.4C462.976 294.4 469.776 284.592 469.6 276.544C469.6 276.544 495.424 268.544 494.384 294C494.384 294 498.832 271.776 477.28 269.328C455.728 266.88 452.96 298.512 463.28 308.928C463.28 308.912 458.752 300.512 462.976 294.4Z" fill="#263238"/>
<path d="M464.784 297.216C464.79 296.491 464.654 295.772 464.382 295.1C464.111 294.428 463.709 293.816 463.201 293.299C462.693 292.782 462.088 292.37 461.421 292.087C460.753 291.803 460.037 291.654 459.312 291.648C455.376 291.728 452.8 299.552 462.32 302.352C463.68 302.752 464.592 301.456 464.784 297.216Z" fill="#EBB376"/>
<path d="M484.944 306.784C483.41 306.86 481.893 306.432 480.625 305.565C479.357 304.699 478.407 303.441 477.92 301.984C477.898 301.914 477.89 301.84 477.896 301.766C477.902 301.693 477.923 301.621 477.958 301.556C477.992 301.49 478.039 301.432 478.095 301.385C478.152 301.338 478.217 301.302 478.288 301.28C478.36 301.258 478.437 301.25 478.512 301.258C478.588 301.265 478.661 301.287 478.728 301.323C478.795 301.358 478.854 301.407 478.902 301.465C478.95 301.524 478.986 301.592 479.008 301.664C479.434 302.93 480.273 304.016 481.39 304.747C482.507 305.478 483.838 305.812 485.168 305.696C485.318 305.687 485.466 305.738 485.58 305.836C485.693 305.935 485.764 306.074 485.776 306.224C485.785 306.374 485.735 306.522 485.636 306.636C485.537 306.749 485.398 306.82 485.248 306.832L484.944 306.784Z" fill="#263238"/>
<path d="M494.192 290.448C494.071 290.447 493.953 290.408 493.855 290.336C493.758 290.264 493.685 290.163 493.648 290.048C488.752 274.048 470 276.544 469.824 276.576C469.751 276.587 469.676 276.582 469.604 276.564C469.532 276.546 469.464 276.513 469.405 276.469C469.345 276.424 469.295 276.368 469.257 276.304C469.219 276.24 469.195 276.17 469.184 276.096C469.174 276.023 469.178 275.948 469.196 275.876C469.214 275.804 469.247 275.736 469.292 275.677C469.336 275.617 469.392 275.567 469.456 275.529C469.52 275.491 469.591 275.467 469.664 275.456C469.856 275.456 489.552 272.816 494.736 289.712C494.758 289.783 494.765 289.859 494.758 289.933C494.751 290.007 494.728 290.079 494.692 290.145C494.657 290.211 494.608 290.268 494.55 290.315C494.491 290.361 494.424 290.396 494.352 290.416L494.192 290.448Z" fill="#263238"/>
<path d="M526.72 317.472C526.72 317.472 533.328 317.36 533.552 318.512C533.776 319.664 533.344 329.344 532.464 330.704C531.505 331.933 530.404 333.045 529.184 334.016L529.824 351.168L525.888 352.544L522.32 336.848C522.32 336.848 518.272 332.896 519.456 327.888C520.64 322.88 526.72 317.472 526.72 317.472Z" fill="#EBB376"/>
<path opacity="0.1" d="M526.72 317.472C526.72 317.472 533.328 317.36 533.552 318.512C533.776 319.664 533.344 329.344 532.464 330.704C531.505 331.933 530.404 333.045 529.184 334.016L529.824 351.168L525.888 352.544L522.32 336.848C522.32 336.848 518.272 332.896 519.456 327.888C520.64 322.88 526.72 317.472 526.72 317.472Z" fill="black"/>
<path d="M515.504 325.92C515.499 326.064 515.524 326.207 515.579 326.339C515.633 326.472 515.716 326.592 515.82 326.69C515.925 326.789 516.049 326.864 516.185 326.91C516.321 326.957 516.465 326.974 516.608 326.96L527.808 326.096C528.12 326.066 528.411 325.925 528.628 325.699C528.845 325.473 528.974 325.177 528.992 324.864L529.792 302.464C529.801 302.311 529.778 302.158 529.726 302.013C529.674 301.869 529.593 301.737 529.488 301.625C529.384 301.513 529.257 301.423 529.117 301.361C528.977 301.299 528.825 301.266 528.672 301.264L517.472 302.128C517.147 302.193 516.853 302.365 516.638 302.618C516.423 302.871 516.3 303.189 516.288 303.52L515.504 325.92Z" fill="#263238"/>
<path opacity="0.5" d="M517.536 303.296L516.8 325.888C516.779 326.022 516.789 326.159 516.83 326.288C516.871 326.417 516.942 326.534 517.037 326.631C517.132 326.727 517.249 326.8 517.377 326.844C517.505 326.887 517.642 326.899 517.776 326.88L527.296 326.144C527.936 326.144 529.088 325.648 529.104 325.008L529.904 302.352C529.904 301.712 528.8 301.296 528.16 301.344L518.56 302.08C518.266 302.112 517.995 302.257 517.805 302.483C517.614 302.71 517.518 303.001 517.536 303.296Z" fill="white"/>
<path d="M504.08 342.912L508.352 332.944C508.352 332.944 509.744 319.584 510.416 318.144C511.088 316.704 521.968 317.248 523.216 317.168C524.464 317.088 524.176 330.416 523.04 331.824C521.904 333.232 517.456 334.352 517.456 334.352L510.624 347.6L504.08 342.912Z" fill="#EBB376"/>
<path d="M492.048 337.504C490.896 342.08 486.464 345.6 477.296 345.504C472.097 345.416 467.059 343.691 462.896 340.576C459.583 338.141 456.714 335.153 454.416 331.744C455.744 331.504 457.088 331.296 458.432 331.088C465.529 329.962 472.69 329.283 479.872 329.056C483.664 329.056 487.68 329.168 491.072 329.344C492.262 331.89 492.604 334.75 492.048 337.504Z" fill="#EBB376"/>
<path d="M453.408 400.464L451.424 409.136L502.56 406.448L501.088 397.888L453.408 400.464Z" fill="#263238"/>
<path d="M482.464 407.872C481.991 407.874 481.533 407.7 481.181 407.384C480.829 407.067 480.608 406.631 480.56 406.16L479.968 400.624C479.921 400.099 480.082 399.576 480.416 399.168C480.582 398.97 480.787 398.808 481.018 398.693C481.249 398.577 481.502 398.51 481.76 398.496L489.216 397.984C489.718 397.949 490.213 398.111 490.596 398.437C490.979 398.764 491.219 399.227 491.264 399.728L491.776 405.184C491.822 405.697 491.667 406.207 491.344 406.608C491.18 406.804 490.977 406.965 490.749 407.08C490.521 407.196 490.271 407.264 490.016 407.28L482.624 407.872H482.464ZM481.568 400.448L482.144 405.984C482.156 406.067 482.199 406.143 482.264 406.197C482.329 406.25 482.412 406.277 482.496 406.272L489.888 405.696C489.932 405.691 489.974 405.676 490.013 405.654C490.051 405.632 490.085 405.603 490.112 405.568C490.169 405.502 490.198 405.415 490.192 405.328L489.664 399.872C489.662 399.831 489.652 399.79 489.633 399.753C489.615 399.716 489.59 399.682 489.558 399.656C489.527 399.629 489.49 399.608 489.451 399.596C489.411 399.584 489.369 399.58 489.328 399.584L481.872 400.096C481.826 400.094 481.78 400.103 481.738 400.123C481.697 400.142 481.66 400.172 481.632 400.208C481.616 400.246 481.607 400.287 481.607 400.328C481.607 400.369 481.616 400.41 481.632 400.448H481.568Z" fill="white"/>
<path d="M489.6 403.2H486.848C486.636 403.2 486.432 403.116 486.282 402.966C486.132 402.816 486.048 402.612 486.048 402.4C486.052 402.189 486.138 401.988 486.287 401.839C486.436 401.69 486.637 401.604 486.848 401.6H489.6C489.811 401.604 490.012 401.69 490.161 401.839C490.31 401.988 490.396 402.189 490.4 402.4C490.4 402.612 490.316 402.816 490.166 402.966C490.016 403.116 489.812 403.2 489.6 403.2Z" fill="white"/>
<path opacity="0.2" d="M460.464 363.76C455.936 365.36 450.864 362.56 447.424 359.856C446.544 357.072 445.536 354.08 444.384 350.816C444.112 350.048 443.424 348.128 442.592 345.904C441.934 344.129 441.803 342.201 442.214 340.354C442.626 338.506 443.563 336.816 444.912 335.488C453.616 343.696 466.512 361.696 460.464 363.76Z" fill="black"/>
<path d="M444.8 334.4C445.708 333.668 446.756 333.131 447.881 332.822C449.005 332.514 450.181 332.439 451.335 332.604C452.489 332.77 453.597 333.17 454.589 333.782C455.582 334.394 456.438 335.203 457.104 336.16C464.128 346.224 475.92 362.96 477.344 363.776C479.376 364.96 494.704 350.832 508.368 332.912L516.736 336.112C516.736 336.112 495.12 380.56 479.776 380.752C468.272 380.896 450.976 357.568 443.12 345.84C441.908 344.072 441.408 341.912 441.719 339.791C442.031 337.67 443.131 335.745 444.8 334.4Z" fill="#EBB376"/>
<path opacity="0.2" d="M460.464 416.24C460.464 416.24 456.56 426.848 446.912 430.64V434.448C446.912 434.448 461.056 428.432 463.04 418.448L460.464 416.24Z" fill="black"/>
<path opacity="0.2" d="M449.488 472.112L463.04 469.568L466.272 496.8L453.296 498.688L451.424 480.96L463.136 479.296L462.464 472.576L462.272 478.544L449.104 480.656L449.488 472.112Z" fill="black"/>
</svg>
